<svg xmlns="http://www.w3.org/2000/svg">
    <symbol id="logo" viewBox="0 0 153 40">
        <path stroke="none" d="M51.6976 31V7.32962H59.3071C66.4453 7.32962 71.1928 11.6731 71.1928 19.148C71.1928 26.6565 66.4453 31 59.3071 31H51.6976ZM54.0209 28.9124H59.0714C64.8964 28.9124 68.7686 25.5117 68.7686 19.148C68.7686 12.8516 64.8964 9.41719 59.0714 9.41719H54.0209V28.9124ZM74.7377 22.5487C74.7377 16.9931 78.5425 13.6597 83.1217 13.6597C87.8019 13.6597 90.1925 17.2624 90.1925 21.4712C90.1925 21.8416 90.1588 22.2457 90.1251 22.616H77.1283C77.2293 26.9259 80.1923 29.3165 83.6941 29.3165C85.546 29.3165 87.4652 28.5421 88.8457 27.2962L89.8894 29.0471C88.3069 30.4949 85.849 31.404 83.6267 31.404C78.5762 31.404 74.7377 27.7676 74.7377 22.5487ZM77.2293 20.7978H87.8692C87.7345 17.2624 85.5796 15.5452 83.0543 15.5452C80.226 15.5452 77.7681 17.3971 77.2293 20.7978ZM94.4934 26.9932V7.32962H96.783V26.4881C96.783 28.7104 97.8267 29.0471 98.7022 29.0471C98.8369 29.0471 99.0389 29.0471 99.2409 29.0134V31.0673C99.0389 31.101 98.7695 31.1347 98.3991 31.1347C97.0187 31.1347 94.4934 30.697 94.4934 26.9932ZM102.779 26.9932V7.32962H105.069V26.4881C105.069 28.7104 106.113 29.0471 106.988 29.0471C107.123 29.0471 107.325 29.0471 107.527 29.0134V31.0673C107.325 31.101 107.056 31.1347 106.685 31.1347C105.305 31.1347 102.779 30.697 102.779 26.9932ZM110.965 10.1916V7.32962H113.456V10.1916H110.965ZM111.066 31V14.0637H113.355V31H111.066ZM123.472 31L116.94 14.0637H119.398L124.078 26.4881C124.381 27.3299 124.651 28.5421 124.651 28.5421H124.718C124.718 28.5421 125.021 27.3299 125.324 26.4881L130.004 14.0637H132.428L125.964 31H123.472ZM134.385 22.5487C134.385 16.9931 138.189 13.6597 142.768 13.6597C147.449 13.6597 149.839 17.2624 149.839 21.4712C149.839 21.8416 149.806 22.2457 149.772 22.616H136.775C136.876 26.9259 139.839 29.3165 143.341 29.3165C145.193 29.3165 147.112 28.5421 148.492 27.2962L149.536 29.0471C147.954 30.4949 145.496 31.404 143.274 31.404C138.223 31.404 134.385 27.7676 134.385 22.5487ZM136.876 20.7978H147.516C147.381 17.2624 145.226 15.5452 142.701 15.5452C139.873 15.5452 137.415 17.3971 136.876 20.7978Z"/>
        <path fill="none" d="M27.4963 29.9023C27.4963 29.9023 28.4641 24.2011 15.312 24.2011C2.15994 24.2011 2.31576 7.01538 2.31576 7.01538H14.2602C17.3376 7.01538 30.0588 9.00191 30.0588 22.1692C30.0588 29.7418 24.0744 35.2285 15.4118 35.0708H2.65905C2.65905 35.0708 -0.471934 26.9887 6.91484 20.7397" stroke-width="2.80588" stroke-miterlimit="22.9256" stroke-linecap="round" stroke-linejoin="round"/>
    </symbol>

    <symbol id="icon-pin" viewBox="0 0 44 43">
        <path stroke="none" d="M21.7402 13C23.5968 13 25.3772 13.6938 26.69 14.9287C28.0027 16.1636 28.7402 17.8385 28.7402 19.5849C28.7402 22.3674 26.6618 25.3999 22.5587 28.7146C22.3305 28.899 22.0397 29.0002 21.7389 29C21.4381 28.9998 21.1474 28.898 20.9196 28.7133L20.6482 28.4917C16.7268 25.2635 14.7402 22.3053 14.7402 19.5849C14.7402 17.8385 15.4777 16.1636 16.7905 14.9287C18.1032 13.6938 19.8837 13 21.7402 13ZM21.7402 17.0522C21.0262 17.0522 20.3414 17.3191 19.8365 17.794C19.3316 18.269 19.0479 18.9132 19.0479 19.5849C19.0479 20.2566 19.3316 20.9008 19.8365 21.3758C20.3414 21.8507 21.0262 22.1176 21.7402 22.1176C22.4543 22.1176 23.1391 21.8507 23.644 21.3758C24.1489 20.9008 24.4325 20.2566 24.4325 19.5849C24.4325 18.9132 24.1489 18.269 23.644 17.794C23.1391 17.3191 22.4543 17.0522 21.7402 17.0522Z"/>
    </symbol>
    <symbol id="icon-clock" viewBox="0 0 44 44">
        <path stroke="none" d="M20.2895 11.532C19.5495 11.532 18.9499 12.118 18.9499 12.8413V20.7859C18.3441 21.2009 17.9453 21.885 17.9453 22.662C17.9453 23.9255 18.9973 24.9537 20.2902 24.9537C20.6442 24.9537 20.9779 24.8709 21.2791 24.7323L25.9389 27.3609C26.1506 27.4808 26.3798 27.5372 26.6077 27.5372C27.0703 27.5372 27.5207 27.3025 27.769 26.8822C28.1386 26.2571 27.9196 25.4556 27.2779 25.0943L22.6133 22.4618C22.5509 21.7697 22.1826 21.1651 21.6305 20.7872V12.8413C21.6291 12.1187 21.0288 11.532 20.2895 11.532ZM20.2895 23.6431C19.7353 23.6431 19.2849 23.2023 19.2849 22.662C19.2849 22.121 19.736 21.6802 20.2895 21.6802C20.843 21.6802 21.294 22.121 21.294 22.662C21.294 23.2023 20.843 23.6431 20.2895 23.6431Z"/>
    </symbol>
    <symbol id="icon-phone" viewBox="0 0 44 43">
        <path stroke="none" fill-rule="evenodd" clip-rule="evenodd" d="M25.4771 28.9977C24.3232 28.9553 21.0528 28.5034 17.6279 25.0799C14.2037 21.6556 13.7525 18.3868 13.7092 17.2322C13.6451 15.4728 14.993 13.7639 16.55 13.0965C16.7375 13.0156 16.9429 12.9847 17.1459 13.0071C17.3489 13.0294 17.5426 13.1041 17.708 13.2239C18.9902 14.1581 19.8749 15.5714 20.6345 16.6826C20.8017 16.9268 20.8732 17.2239 20.8353 17.5173C20.7975 17.8107 20.653 18.08 20.4294 18.2738L18.8659 19.4347C18.7904 19.4892 18.7372 19.5693 18.7163 19.6601C18.6954 19.7509 18.7081 19.8462 18.7522 19.9282C19.1064 20.5716 19.7362 21.5298 20.4574 22.2509C21.1795 22.972 22.1828 23.6434 22.8711 24.0376C22.9574 24.086 23.059 24.0995 23.155 24.0754C23.251 24.0513 23.3341 23.9913 23.3872 23.9078L24.4049 22.3591C24.592 22.1106 24.868 21.9441 25.1752 21.8945C25.4823 21.8449 25.7967 21.9161 26.0525 22.0931C27.18 22.8734 28.4958 23.7427 29.4591 24.9757C29.5886 25.1423 29.671 25.3406 29.6976 25.5499C29.7242 25.7592 29.6942 25.9718 29.6105 26.1655C28.9398 27.7302 27.2425 29.0626 25.4771 28.9977Z"/>
    </symbol>
    <symbol id="icon-burger" viewBox="0 0 44 43">
        <path fill="none" d="M11.959 14H31.959" stroke-width="2" stroke-linecap="round"/>
        <path fill="none" d="M11.959 20.6667H31.959" stroke-width="2" stroke-linecap="round"/>
        <path fill="none" d="M11.959 27.3333H31.959" stroke-width="2" stroke-linecap="round"/>
    </symbol>
    <symbol id="icon-favorites" viewBox="0 0 43 43">
        <path stroke="none" d="M21.1303 15.537C27.4791 9.95075 35.0969 20.861 21.1303 28C7.16211 20.8605 13.9345 9.95022 21.1303 15.537Z"/>
    </symbol>
    <symbol id="icon-basket" viewBox="0 0 44 43">
        <path fill="none" d="M13.0137 13H14.5856C15.2879 13 15.639 13 15.9033 13.1907C16.1677 13.3814 16.2787 13.7143 16.5006 14.3803L17.0495 16.0269" stroke-width="1.5" stroke-linecap="round"/>
        <path fill="none" d="M27.1378 26.1167H17.6032C17.4569 26.1167 17.3833 26.1167 17.3268 26.1107C17.1867 26.095 17.0514 26.0502 16.9297 25.9791C16.808 25.908 16.7025 25.8122 16.6201 25.6978C16.5377 25.5835 16.4802 25.4531 16.4512 25.3152C16.4222 25.1772 16.4225 25.0347 16.452 24.8969C16.4753 24.8076 16.5026 24.7194 16.5337 24.6325C16.5862 24.4772 16.6114 24.3995 16.6407 24.3298C16.7843 23.9858 17.0204 23.6883 17.3228 23.4704C17.6252 23.2524 17.9821 23.1224 18.3539 23.0949C18.4285 23.0898 18.5103 23.0898 18.6737 23.0898H24.111" stroke-width="1.5" stroke-linecap="round" stroke-linejoin="round"/>
        <path d="M23.7893 23.0891H20.7211C19.4296 23.0891 18.7839 23.0891 18.2794 22.7561C17.774 22.4231 17.5197 21.8299 17.0112 20.6433L16.8407 20.2458C16.0234 18.3389 15.6158 17.3874 16.0638 16.7064C16.5138 16.0264 17.551 16.0264 19.6234 16.0264H24.9507C27.2712 16.0264 28.4305 16.0264 28.8684 16.7801C29.3053 17.5337 28.7302 18.5407 27.579 20.5546L27.2934 21.056C26.7264 22.0478 26.4429 22.5442 25.9727 22.8166C25.5036 23.0891 24.9315 23.0891 23.7893 23.0891Z" stroke-width="1.5" stroke-linecap="round"/>
        <path d="M26.8929 28.6383C26.8929 28.7814 26.777 28.8973 26.634 28.8973C26.4909 28.8973 26.375 28.7814 26.375 28.6383C26.375 28.4953 26.4909 28.3794 26.634 28.3794C26.777 28.3794 26.8929 28.4953 26.8929 28.6383Z" stroke-width="1.5"/>
        <path d="M18.8226 28.6383C18.8226 28.7814 18.7067 28.8973 18.5636 28.8973C18.4206 28.8973 18.3047 28.7814 18.3047 28.6383C18.3047 28.4953 18.4206 28.3794 18.5636 28.3794C18.7067 28.3794 18.8226 28.4953 18.8226 28.6383Z" stroke-width="1.5"/>
    </symbol>
    <symbol id="icon-user" viewBox="0 0 43 43">
        <circle stroke="none" cx="21.3134" cy="16.7277" r="4.72747"/>
        <path stroke="none" d="M13.041 24.4754C13.041 23.4601 13.8641 22.637 14.8795 22.637H27.7487C28.7641 22.637 29.5872 23.4601 29.5872 24.4754C29.5872 28.0292 26.7063 30.91 23.1525 30.91H19.4756C15.9219 30.91 13.041 28.0292 13.041 24.4754Z"/>
    </symbol>

    <symbol id="favorites" viewBox="0 0 21 18">
        <path stroke="none" d="M17.2926 0.807105C15.0322 -0.415352 12.0909 -0.0438033 10.2273 1.6333C8.36208 -0.044639 5.43258 -0.416785 3.15886 0.807105C1.20979 1.86194 0 3.87728 0 6.06287C0 6.68968 0.103926 7.31267 0.284185 7.84516C1.26121 12.154 9.4767 17.2641 9.82506 17.48L10.2274 17.7287L10.63 17.48C10.9777 17.264 19.1933 12.1533 20.1503 7.91572C20.3509 7.31184 20.4538 6.68956 20.4538 6.06287C20.4545 3.87728 19.2451 1.86194 17.2926 0.807105ZM18.69 7.52125C18.0328 10.4252 12.6949 14.3758 10.2273 15.9643C7.75955 14.3765 2.41837 10.4231 1.74559 7.44973C1.59462 6.99712 1.51732 6.53041 1.51732 6.0612C1.51732 4.41669 2.42627 2.90423 3.88731 2.11003C4.57115 1.7429 5.3413 1.54877 6.10658 1.54877C7.47694 1.54877 8.76781 2.14418 9.64735 3.18337L10.2287 3.8719L10.809 3.18337C12.1886 1.5545 14.6562 1.08195 16.5643 2.11003C18.0305 2.90351 18.9394 4.41669 18.9394 6.0612C18.9372 6.53113 18.8603 6.99795 18.69 7.52125Z"/>
    </symbol>
    <symbol id="basket" viewBox="0 0 21 20">
        <path fill="none" d="M1.45312 1H3.22158C4.01159 1 4.4066 1 4.70399 1.21453C5.00138 1.42906 5.12624 1.80364 5.37596 2.55279L5.99344 4.40523" stroke-width="1.5" stroke-linecap="round"/>
        <path fill="none" d="M17.3436 15.7561H6.61711C6.45252 15.7561 6.36966 15.7561 6.3061 15.7493C6.14849 15.7317 5.99632 15.6813 5.8594 15.6013C5.72247 15.5213 5.60382 15.4135 5.5111 15.2848C5.41838 15.1562 5.35365 15.0095 5.32108 14.8543C5.28851 14.6991 5.28881 14.5388 5.32198 14.3838C5.34818 14.2833 5.37886 14.1841 5.41392 14.0864C5.47295 13.9116 5.50133 13.8242 5.53424 13.7458C5.69582 13.3588 5.96145 13.0241 6.30166 12.7789C6.64187 12.5337 7.04336 12.3875 7.46161 12.3565C7.5456 12.3508 7.63754 12.3508 7.82143 12.3508H13.9384" stroke-width="1.5" stroke-linecap="round" stroke-linejoin="round"/>
        <path fill="none" d="M13.5751 12.3501H10.1233C8.67038 12.3501 7.94393 12.3501 7.37639 11.9755C6.80772 11.6009 6.52168 10.9335 5.9496 9.59866L5.75777 9.15144C4.83836 7.00614 4.37978 5.93576 4.88376 5.16958C5.39 4.40454 6.55687 4.40454 8.88832 4.40454H14.8815C17.4922 4.40454 18.7964 4.40454 19.289 5.25244C19.7805 6.10035 19.1335 7.23316 17.8384 9.49877L17.5172 10.0629C16.8793 11.1787 16.5603 11.7371 16.0314 12.0436C15.5036 12.3501 14.86 12.3501 13.5751 12.3501Z" stroke-width="1.5" stroke-linecap="round"/>
        <path d="M17.1608 18.5936C17.1608 18.8062 16.9884 18.9787 16.7757 18.9787C16.563 18.9787 16.3906 18.8062 16.3906 18.5936C16.3906 18.3809 16.563 18.2085 16.7757 18.2085C16.9884 18.2085 17.1608 18.3809 17.1608 18.5936Z" stroke-width="1.5"/>
        <path d="M8.0807 18.5936C8.0807 18.8062 7.9083 18.9787 7.69563 18.9787C7.48295 18.9787 7.31055 18.8062 7.31055 18.5936C7.31055 18.3809 7.48295 18.2085 7.69563 18.2085C7.9083 18.2085 8.0807 18.3809 8.0807 18.5936Z" stroke-width="1.5"/>
    </symbol>
    <symbol id="auth" viewBox="0 0 12 19">
        <path fill="none" d="M6.38672 17.7288L9.12983 17.7288C10.1915 17.7288 11.0531 16.3797 11.0531 14.725L11.0531 4.55701C11.0531 2.89895 10.1893 1.55329 9.12983 1.55329L6.43068 1.55329" stroke-width="1.50049" stroke-linecap="round"/>
        <path stroke="none" d="M1.45312 8.46484C1.03878 8.46484 0.702881 8.80074 0.702881 9.21509C0.702881 9.62944 1.03878 9.96533 1.45313 9.96533L1.45312 8.46484ZM8.52488 9.74559C8.81787 9.4526 8.81787 8.97757 8.52488 8.68459L3.75036 3.91006C3.45737 3.61707 2.98234 3.61707 2.68935 3.91006C2.39636 4.20305 2.39636 4.67808 2.68935 4.97107L6.93337 9.21509L2.68935 13.4591C2.39636 13.7521 2.39636 14.2271 2.68935 14.5201C2.98234 14.8131 3.45737 14.8131 3.75036 14.5201L8.52488 9.74559ZM1.45313 9.96533L7.99438 9.96533L7.99438 8.46484L1.45312 8.46484L1.45313 9.96533Z"/>
    </symbol>
    <symbol id="dropdown" viewBox="0 0 9 4">
        <path fill="none" d="M1 0.5L3.849 2.942C4.22361 3.26309 4.77639 3.26309 5.151 2.942L8 0.5" stroke-linecap="round"/>
    </symbol>
    <symbol id="swiper" viewBox="0 0 40 40">
        <path stroke="none" d="M20.5293 24.7611C20.3887 24.9016 20.1981 24.9805 19.9993 24.9805C19.8006 24.9805 19.61 24.9016 19.4693 24.7611L15.2193 20.5111C15.0789 20.3705 15 20.1799 15 19.9811C15 19.7824 15.0789 19.5918 15.2193 19.4511L19.4693 15.2011C19.6116 15.0687 19.7997 14.9966 19.994 15C20.1883 15.0033 20.3737 15.0819 20.5113 15.2191C20.6486 15.3567 20.7271 15.5422 20.7305 15.7365C20.7339 15.9308 20.6617 16.1189 20.5293 16.2611L17.5593 19.2311H24.9993C25.1983 19.2311 25.389 19.3101 25.5297 19.4508C25.6703 19.5915 25.7493 19.7822 25.7493 19.9811C25.7493 20.18 25.6703 20.3708 25.5297 20.5115C25.389 20.6521 25.1983 20.7311 24.9993 20.7311H17.5593L20.5293 23.7011C20.6698 23.8418 20.7487 24.0324 20.7487 24.2311C20.7487 24.4299 20.6698 24.6205 20.5293 24.7611Z"/>
    </symbol>

    <symbol id="icon-od" viewBox="0 0 43 43">
        <path stroke="none" d="M16.1552 21.5946C15.7464 22.3982 16.2105 22.7823 17.2695 23.4385C18.1698 23.9947 19.4136 24.1981 20.2125 24.2794C19.8851 24.5942 21.3855 23.1511 17.0641 27.3078C16.1478 28.186 17.623 29.5952 18.5386 28.7356L21.0174 26.3448C21.9664 27.2577 22.876 28.1327 23.4962 28.7389C24.4125 29.6018 25.887 28.2047 24.9807 27.3111C24.9127 27.2464 21.6216 24.0894 21.8224 24.2828C22.6313 24.2014 23.8564 23.986 24.746 23.4418L24.7453 23.4412C25.8043 22.7816 26.2685 22.3982 25.8657 21.5946C25.6223 21.1384 24.966 20.757 24.0924 21.4165C24.0924 21.4165 22.9127 22.3201 21.0101 22.3201C19.1068 22.3201 17.9278 21.4165 17.9278 21.4165C17.0548 20.7536 16.3959 21.1384 16.1552 21.5946Z"/>
        <path stroke="none" d="M21.0129 21.1029C23.3323 21.1029 25.2262 19.2903 25.2262 17.0589C25.2262 14.8182 23.3323 13.0056 21.0129 13.0056C18.6928 13.0056 16.7988 14.8182 16.7988 17.0589C16.7988 19.2903 18.6928 21.1029 21.0129 21.1029ZM21.0129 15.059C22.1526 15.059 23.0822 15.9532 23.0822 17.0589C23.0822 18.1553 22.1526 19.0496 21.0129 19.0496C19.8732 19.0496 18.9435 18.1553 18.9435 17.0589C18.9429 15.9526 19.8725 15.059 21.0129 15.059Z"/>
    </symbol>
    <symbol id="icon-vk" viewBox="0 0 43 43">
        <path stroke="none" d="M29.8541 25.8784C29.8541 25.8031 29.7784 25.8031 29.7784 25.7277C29.476 25.1248 28.7954 24.3711 27.8879 23.5421C27.4342 23.1652 27.2073 22.8638 27.0561 22.713C26.8292 22.4116 26.8292 22.1855 26.9048 21.884C26.9805 21.6579 27.2829 21.2811 27.8123 20.6028C28.1148 20.2259 28.266 19.9998 28.4929 19.7737C29.6272 18.2664 30.1565 17.2866 30.0053 16.8344L29.9297 16.759C29.8541 16.6837 29.7784 16.6083 29.6272 16.6083C29.4759 16.5329 29.2491 16.5329 29.0222 16.6083H26.1486C26.073 16.6083 26.073 16.6083 25.9218 16.6083C25.8461 16.6083 25.7705 16.6083 25.7705 16.6083H25.6949H25.6193L25.5437 16.6837C25.468 16.759 25.468 16.759 25.468 16.8344C25.1655 17.6634 24.7874 18.3417 24.4093 19.0954C24.1825 19.4722 23.9556 19.8491 23.7288 20.1506C23.5019 20.452 23.3506 20.6781 23.1994 20.8289C23.0482 20.9796 22.8969 21.055 22.8213 21.2057C22.7457 21.2811 22.5944 21.3564 22.5944 21.2811C22.5188 21.2811 22.4432 21.2811 22.4432 21.2057C22.3676 21.1303 22.292 21.055 22.2163 20.9796C22.1407 20.9042 22.1407 20.7535 22.0651 20.6028C22.0651 20.452 22.0651 20.3013 22.0651 20.2259C22.0651 20.1506 22.0651 19.9245 22.0651 19.7737C22.0651 19.5476 22.0651 19.3969 22.0651 19.3215C22.0651 19.0954 22.0651 18.794 22.0651 18.4925C22.0651 18.191 22.0651 17.9649 22.0651 17.8142C22.0651 17.6634 22.0651 17.4373 22.0651 17.2866C22.0651 17.0605 22.0651 16.9098 22.0651 16.8344C22.0651 16.759 21.9895 16.6083 21.9895 16.5329C21.9139 16.4576 21.8382 16.3822 21.7626 16.3068C21.687 16.2315 21.5357 16.2315 21.4601 16.1561C21.082 16.0807 20.6283 16.0054 20.099 16.0054C18.889 16.0054 18.0572 16.0807 17.7547 16.2315C17.6035 16.3068 17.4522 16.3822 17.3766 16.5329C17.2253 16.6837 17.2253 16.759 17.301 16.759C17.6791 16.8344 17.9816 16.9851 18.1328 17.2112L18.2084 17.362C18.284 17.4373 18.284 17.5881 18.3597 17.8142C18.4353 18.0403 18.4353 18.2664 18.4353 18.5678C18.4353 19.02 18.4353 19.4723 18.4353 19.7737C18.4353 20.1506 18.3597 20.3767 18.3597 20.6028C18.3597 20.8289 18.284 20.9796 18.2084 21.055C18.1328 21.2057 18.1328 21.2811 18.0572 21.2811C18.0572 21.2811 18.0572 21.3564 17.9815 21.3564C17.9059 21.3564 17.8303 21.4318 17.6791 21.4318C17.6034 21.4318 17.4522 21.3564 17.3766 21.2811C17.2253 21.2057 17.0741 21.055 16.9985 20.9042C16.8472 20.7535 16.696 20.5274 16.5448 20.2259C16.3935 19.9244 16.1666 19.623 16.0154 19.1708L15.8642 18.8693C15.7885 18.7186 15.6373 18.4171 15.4861 18.0403C15.3348 17.6634 15.1836 17.362 15.0323 16.9851C14.9567 16.8344 14.8811 16.759 14.8055 16.6837H14.7299C14.7299 16.6837 14.6542 16.6083 14.5786 16.6083C14.503 16.6083 14.4274 16.5329 14.3517 16.5329H11.6294C11.3269 16.5329 11.1757 16.6083 11.1 16.6837L11.0244 16.759C11.0244 16.759 11.0244 16.8344 11.0244 16.9098C11.0244 16.9851 11.0244 17.0605 11.1 17.2112C11.4781 18.1156 11.9319 19.0201 12.3856 19.9245C12.8393 20.7535 13.2931 21.5072 13.5955 22.0347C13.9736 22.5623 14.2761 23.0899 14.6542 23.5421C15.0323 23.9943 15.2592 24.2957 15.3348 24.4465C15.4861 24.5972 15.5617 24.6726 15.6373 24.7479L15.8642 24.974C16.0154 25.1248 16.2423 25.3509 16.5448 25.577C16.8472 25.8031 17.2253 26.0292 17.6034 26.2553C17.9815 26.4814 18.4353 26.6321 18.889 26.7829C19.4184 26.9336 19.8721 27.009 20.3258 26.9336H21.4601C21.687 26.9336 21.8382 26.8582 21.9895 26.7075L22.0651 26.6321C22.0651 26.5567 22.1407 26.5568 22.1407 26.4814C22.1407 26.406 22.1407 26.3307 22.1407 26.1799C22.1407 25.8785 22.1407 25.6524 22.2163 25.4263C22.292 25.2001 22.292 25.0494 22.3676 24.8987C22.4432 24.7479 22.5188 24.6726 22.5944 24.5972C22.6701 24.5218 22.7457 24.4465 22.7457 24.4465H22.8213C22.9725 24.3711 23.1994 24.4465 23.3506 24.5972C23.5775 24.7479 23.8044 24.974 23.9556 25.2001C24.1068 25.4262 24.3337 25.6523 24.6362 25.9538C24.9387 26.2553 25.1656 26.4814 25.3168 26.5568L25.5437 26.7075C25.6949 26.7829 25.8461 26.8582 26.073 26.9336C26.2999 27.009 26.4511 27.009 26.6023 27.009L29.1735 26.9336C29.4003 26.9336 29.6272 26.8582 29.7784 26.7829C29.9297 26.7075 30.0053 26.6321 30.0053 26.4814C30.0053 26.406 30.0053 26.2553 30.0053 26.1799C29.854 26.0292 29.8541 25.9538 29.8541 25.8784Z"/>
    </symbol>
    <symbol id="icon-inst" viewBox="0 0 44 43">
        <path stroke="none" d="M23.1641 12.0002C24.2328 12.0031 24.7752 12.0088 25.2436 12.0221L25.4278 12.0287C25.6406 12.0363 25.8506 12.0458 26.1042 12.0572C27.115 12.1047 27.8046 12.2643 28.4097 12.499C29.0367 12.7403 29.5649 13.0671 30.0931 13.5943C30.5761 14.0692 30.9499 14.6436 31.1884 15.2777C31.423 15.8828 31.5826 16.5725 31.6301 17.5842C31.6415 17.8369 31.651 18.0469 31.6586 18.2606L31.6643 18.4449C31.6785 18.9123 31.6842 19.4547 31.6861 20.5234L31.6871 21.2321V22.4766C31.6894 23.1695 31.6821 23.8624 31.6652 24.5552L31.6595 24.7394C31.6519 24.9532 31.6424 25.1631 31.631 25.4158C31.5835 26.4276 31.422 27.1163 31.1884 27.7224C30.9506 28.3568 30.5767 28.9313 30.0931 29.4057C29.618 29.8886 29.0437 30.2624 28.4097 30.5011C27.8046 30.7357 27.115 30.8953 26.1042 30.9428C25.8788 30.9534 25.6533 30.9629 25.4278 30.9713L25.2436 30.977C24.7752 30.9903 24.2328 30.997 23.1641 30.9989L22.4554 30.9998H21.212C20.5187 31.0022 19.8255 30.9949 19.1325 30.978L18.9482 30.9723C18.7227 30.9637 18.4973 30.9539 18.2719 30.9428C17.2611 30.8953 16.5714 30.7357 15.9654 30.5011C15.3314 30.263 14.7572 29.8891 14.283 29.4057C13.7995 28.931 13.4254 28.3565 13.1868 27.7224C12.9521 27.1172 12.7925 26.4276 12.745 25.4158C12.7345 25.1904 12.725 24.965 12.7165 24.7394L12.7118 24.5552C12.6943 23.8624 12.6864 23.1695 12.688 22.4766V20.5234C12.6854 19.8305 12.6924 19.1376 12.7089 18.4449L12.7156 18.2606C12.7232 18.0469 12.7327 17.8369 12.7441 17.5842C12.7916 16.5725 12.9512 15.8838 13.1858 15.2777C13.4244 14.643 13.7992 14.0684 14.284 13.5943C14.7581 13.1112 15.3319 12.7374 15.9654 12.499C16.5714 12.2643 17.2602 12.1047 18.2719 12.0572C18.5245 12.0458 18.7354 12.0363 18.9482 12.0287L19.1325 12.023C19.8252 12.0062 20.5181 11.9989 21.211 12.0012L23.1641 12.0002ZM22.1876 16.7501C20.9278 16.7501 19.7197 17.2506 18.829 18.1413C17.9382 19.0321 17.4378 20.2403 17.4378 21.5C17.4378 22.7598 17.9382 23.9679 18.829 24.8587C19.7197 25.7495 20.9278 26.2499 22.1876 26.2499C23.4473 26.2499 24.6554 25.7495 25.5461 24.8587C26.4369 23.9679 26.9373 22.7598 26.9373 21.5C26.9373 20.2403 26.4369 19.0321 25.5461 18.1413C24.6554 17.2506 23.4473 16.7501 22.1876 16.7501ZM22.1876 18.6501C22.5618 18.65 22.9324 18.7237 23.2782 18.8668C23.624 19.01 23.9382 19.2199 24.2029 19.4845C24.4675 19.7491 24.6775 20.0632 24.8208 20.409C24.9641 20.7547 25.0378 21.1253 25.0379 21.4995C25.038 21.8738 24.9643 22.2444 24.8211 22.5902C24.678 22.936 24.4681 23.2502 24.2035 23.5149C23.9389 23.7796 23.6248 23.9896 23.2791 24.1328C22.9333 24.2761 22.5628 24.3499 22.1885 24.35C21.4327 24.35 20.7078 24.0497 20.1734 23.5152C19.6389 22.9808 19.3387 22.2559 19.3387 21.5C19.3387 20.7442 19.6389 20.0193 20.1734 19.4848C20.7078 18.9503 21.4327 18.6501 22.1885 18.6501M27.1758 15.3252C26.8608 15.3252 26.5588 15.4503 26.3361 15.673C26.1134 15.8957 25.9883 16.1977 25.9883 16.5126C25.9883 16.8276 26.1134 17.1296 26.3361 17.3523C26.5588 17.575 26.8608 17.7001 27.1758 17.7001C27.4907 17.7001 27.7927 17.575 28.0154 17.3523C28.2381 17.1296 28.3632 16.8276 28.3632 16.5126C28.3632 16.1977 28.2381 15.8957 28.0154 15.673C27.7927 15.4503 27.4907 15.3252 27.1758 15.3252Z"/>
    </symbol>
    <symbol id="plus" viewBox="0 0 14 14">
        <path fill="none" d="M1 6.99999H6.7876M13.0039 6.99999H6.7876M6.7876 6.99999V1.4982M6.7876 6.99999V12.5018" stroke-width="1.50049" stroke-linecap="round"/>
    </symbol>
    <symbol id="minus" viewBox="0 0 12 2">
        <path fill="none" d="M1 1H5.823H11.0033" stroke-linecap="round"/>
    </symbol>


    <symbol id="card-favorites" viewBox="0 0 20 18">
        <path d="M10.1466 2.75656C17.289 -3.62771 25.859 8.84118 10.1466 17C-5.56763 8.84061 2.05137 -3.62832 10.1466 2.75656Z"
              stroke-width="1.5"/>
    </symbol>
    <symbol id="play" viewBox="0 0 25 25">
        <path stroke="none" d="M16.6385 13.2285C16.751 13.1424 16.8421 13.032 16.9048 12.9057C16.9674 12.7795 17 12.6407 17 12.5C17 12.3593 16.9674 12.2205 16.9048 12.0943C16.8421 11.968 16.751 11.8576 16.6385 11.7715C15.1817 10.6568 13.555 9.7783 11.8192 9.16871L11.5018 9.05722C10.8953 8.84433 10.2542 9.24993 10.1721 9.86938C9.94264 11.6158 9.94264 13.3842 10.1721 15.1306C10.2547 15.7501 10.8953 16.1557 11.5018 15.9428L11.8192 15.8313C13.555 15.2217 15.1817 14.3432 16.6385 13.2285Z"/>
    </symbol>
    <symbol id="close" viewBox="0 0 14 14">
        <path stroke="none" d="M8.23814 7.00015L13.7435 1.49459C14.0855 1.15283 14.0855 0.598303 13.7435 0.256541C13.4014 -0.0855136 12.8475 -0.0855136 12.5055 0.256541L7.00015 5.7621L1.49453 0.256541C1.15249 -0.0855136 0.59857 -0.0855136 0.25653 0.256541C-0.08551 0.598303 -0.08551 1.15283 0.25653 1.49459L5.76215 7.00015L0.25653 12.5057C-0.08551 12.8475 -0.08551 13.402 0.25653 13.7438C0.42755 13.9145 0.651685 14 0.875529 14C1.09937 14 1.32351 13.9145 1.49453 13.7435L7.00015 8.2379L12.5055 13.7435C12.6765 13.9145 12.9006 14 13.1245 14C13.3483 14 13.5724 13.9145 13.7435 13.7435C14.0855 13.4017 14.0855 12.8472 13.7435 12.5054L8.23814 7.00015Z"/>
    </symbol>
    <symbol width="11" height="8" viewBox="0 0 11 8" fill="none" xmlns="http://www.w3.org/2000/svg">
        <path d="M10.8274 0.179995C10.9379 0.295395 11 0.451827 11 0.614926C11 0.778026 10.9379 0.934457 10.8274 1.04986L4.33629 7.82C4.22564 7.93526 4.07566 8 3.91928 8C3.7629 8 3.61292 7.93526 3.50228 7.82L0.15836 4.33235C0.0541792 4.21561 -0.00255299 4.06129 8.86917e-05 3.90183C0.00272942 3.74237 0.0645361 3.59018 0.17252 3.47726C0.280787 3.36464 0.426701 3.30017 0.579591 3.29742C0.73248 3.29466 0.880438 3.35383 0.99237 3.46249L3.32918 5.89974L3.91928 6.46934C3.91928 6.30611 3.80862 6.58477 3.91928 6.46934C4.02995 6.35392 3.76278 6.46934 3.91928 6.46934C4.07579 6.46934 3.80862 6.35392 3.91928 6.46934C4.02995 6.58477 3.91928 6.30611 3.91928 6.46934L4.50939 5.89974L9.99341 0.179995C10.1041 0.0647378 10.254 0 10.4104 0C10.5668 0 10.7168 0.0647378 10.8274 0.179995Z" fill="white"/>
    </symbol>
    <symbol id="check" viewBox="0 0 11 8">
        <path stroke="none" d="M10.8274 0.179995C10.9379 0.295395 11 0.451827 11 0.614926C11 0.778026 10.9379 0.934457 10.8274 1.04986L4.33629 7.82C4.22564 7.93526 4.07566 8 3.91928 8C3.7629 8 3.61292 7.93526 3.50228 7.82L0.15836 4.33235C0.0541792 4.21561 -0.00255299 4.06129 8.86917e-05 3.90183C0.00272942 3.74237 0.0645361 3.59018 0.17252 3.47726C0.280787 3.36464 0.426701 3.30017 0.579591 3.29742C0.73248 3.29466 0.880438 3.35383 0.99237 3.46249L3.32918 5.89974L3.91928 6.46934C3.91928 6.30611 3.80862 6.58477 3.91928 6.46934C4.02995 6.35392 3.76278 6.46934 3.91928 6.46934C4.07579 6.46934 3.80862 6.35392 3.91928 6.46934C4.02995 6.58477 3.91928 6.30611 3.91928 6.46934L4.50939 5.89974L9.99341 0.179995C10.1041 0.0647378 10.254 0 10.4104 0C10.5668 0 10.7168 0.0647378 10.8274 0.179995Z"/>
    </symbol>
    <symbol id="question" viewBox="0 0 22 22">
        <path d="M10.2793 14.3592C10.2793 14.1059 10.4855 13.9043 10.7218 13.9043C10.9666 13.9043 11.1767 14.1145 11.1767 14.3592C11.1767 14.6 10.9706 14.8142 10.7218 14.8142C10.4815 14.8142 10.2793 14.6087 10.2793 14.3592Z" fill="none"/>
        <path d="M11.8283 10.0951L11.8273 10.0959C11.443 10.3963 11.1944 10.6929 11.0629 11.0505C10.9412 11.3815 10.9407 11.7195 10.9408 12.0218C10.9054 12.0333 10.8349 12.0485 10.709 12.0485C10.6291 12.0485 10.5822 12.0424 10.5569 12.0372C10.5548 12.0301 10.5524 12.0211 10.5499 12.0101C10.5369 11.9521 10.5269 11.8602 10.5269 11.7176C10.5269 11.2622 10.6264 10.9514 10.7467 10.7302C10.8683 10.5067 11.0254 10.3483 11.1829 10.2124C11.2469 10.1582 11.3158 10.1053 11.398 10.0422C11.4327 10.0155 11.4698 9.98706 11.5099 9.95592C11.6363 9.85767 11.781 9.74111 11.9156 9.60741C12.1834 9.34142 12.4617 8.95733 12.4617 8.43102C12.4617 7.97748 12.2537 7.61479 11.9207 7.38429C11.609 7.1685 11.2193 7.08767 10.8455 7.08767C10.4653 7.08767 10.1579 7.15987 9.90537 7.29877C9.65215 7.43803 9.4952 7.6222 9.38694 7.77104C9.3556 7.81414 9.31856 7.86863 9.29055 7.90985C9.2781 7.92817 9.26743 7.94387 9.25983 7.95479C9.22527 8.00443 9.20559 8.02844 9.19205 8.04215C9.19173 8.04248 9.19151 8.04276 9.19135 8.04301C9.18982 8.04277 9.18736 8.04261 9.18358 8.04261C9.11765 8.04261 9.04568 8.01829 8.99983 7.98132C8.97959 7.965 8.96635 7.94798 8.95759 7.93011C8.94923 7.91304 8.93945 7.88415 8.93945 7.83569C8.93945 7.52722 9.39103 6.67383 10.8827 6.67383C12.309 6.67383 13.0243 7.433 13.0243 8.22021C13.0243 8.64914 12.8297 9.04472 12.562 9.3858C12.2959 9.7249 11.9887 9.97035 11.8283 10.0951ZM10.5316 12.0298C10.5317 12.0298 10.533 12.0302 10.5351 12.0314C10.5326 12.0305 10.5315 12.0299 10.5316 12.0298Z" fill="none"/>
    </symbol>
    <symbol id="link-arr" viewBox="0 0 32 32">
        <path stroke="none" d="M29.6643 25.2805C29.1862 25.2802 28.7277 25.0902 28.3896 24.7521C28.0515 24.414 27.8615 23.9555 27.8612 23.4774L27.8612 6.56852L3.29741 31.1323C2.95904 31.4707 2.50012 31.6607 2.02159 31.6607C1.54307 31.6607 1.08414 31.4707 0.745774 31.1323C0.407406 30.7939 0.217315 30.335 0.217314 29.8565C0.217313 29.3779 0.407407 28.919 0.745774 28.5807L25.3095 4.01689L8.40069 4.01689C8.07681 4.02888 7.75569 3.9533 7.47116 3.7981C7.18663 3.64291 6.94922 3.41384 6.78396 3.13503C6.6187 2.85623 6.5317 2.53801 6.53212 2.21391C6.53254 1.8898 6.62037 1.57181 6.78635 1.29344C6.95129 1.01481 7.18826 0.785777 7.47234 0.630417C7.75641 0.475057 8.07711 0.399113 8.40069 0.410572L29.6643 0.410571C30.1425 0.410869 30.6009 0.600938 30.939 0.939031C31.2771 1.27712 31.4672 1.73559 31.4675 2.21373L31.4675 23.4774C31.4672 23.9555 31.2771 24.414 30.939 24.7521C30.6009 25.0902 30.1425 25.2802 29.6643 25.2805Z"/>
    </symbol>
    <symbol id="user" viewBox="0 0 15 18">
        <path stroke="none" d="M7.232 8.47933C8.3969 8.47933 9.40549 8.06153 10.2298 7.23721C11.0539 6.41302 11.4718 5.40457 11.4718 4.23953C11.4718 3.0749 11.054 2.06632 10.2297 1.24186C9.40535 0.417802 8.39677 0 7.232 0C6.06696 0 5.05851 0.417802 4.23432 1.24199C3.41012 2.06618 2.99219 3.07476 2.99219 4.23953C2.99219 5.40457 3.41012 6.41315 4.23432 7.23734C5.05878 8.0614 6.06736 8.47933 7.232 8.47933ZM4.96383 1.97137C5.59624 1.33896 6.3381 1.03155 7.232 1.03155C8.12575 1.03155 8.86775 1.33896 9.5003 1.97137C10.1327 2.60391 10.4403 3.34591 10.4403 4.23953C10.4403 5.13342 10.1327 5.87529 9.5003 6.50783C8.86775 7.14038 8.12575 7.44779 7.232 7.44779C6.33837 7.44779 5.59651 7.14024 4.96383 6.50783C4.33128 5.87542 4.02374 5.13342 4.02374 4.23953C4.02374 3.34591 4.33128 2.60391 4.96383 1.97137Z"/>
        <path stroke="none" d="M14.6505 13.5358C14.6267 13.1928 14.5787 12.8186 14.5079 12.4235C14.4364 12.0254 14.3444 11.6491 14.2343 11.3052C14.1204 10.9497 13.9659 10.5987 13.7745 10.2622C13.5761 9.91306 13.343 9.60901 13.0814 9.35881C12.8078 9.09707 12.4729 8.88662 12.0855 8.73312C11.6996 8.58042 11.2718 8.50306 10.8143 8.50306C10.6346 8.50306 10.4608 8.57679 10.1252 8.7953C9.91863 8.93 9.67702 9.08578 9.40735 9.25809C9.17676 9.40501 8.86438 9.54267 8.47854 9.6673C8.1021 9.78911 7.71989 9.85088 7.34251 9.85088C6.9654 9.85088 6.58319 9.78911 6.20648 9.6673C5.82104 9.5428 5.50853 9.40515 5.27834 9.25822C5.01122 9.08753 4.76948 8.93174 4.55984 8.79516C4.2245 8.57666 4.05072 8.50293 3.87102 8.50293C3.41333 8.50293 2.98573 8.58042 2.59989 8.73325C2.21284 8.88649 1.87776 9.09693 1.60393 9.35895C1.34232 9.60928 1.10917 9.9132 0.910948 10.2622C0.719841 10.5987 0.565129 10.9496 0.451244 11.3053C0.341253 11.6493 0.249258 12.0254 0.177811 12.4235C0.106902 12.8181 0.0589571 13.1924 0.0351863 13.5362C0.0118183 13.8723 0 14.2222 0 14.5756C0 15.4945 0.2921 16.2384 0.868107 16.787C1.437 17.3284 2.18961 17.6029 3.10512 17.6029H11.581C12.4962 17.6029 13.2488 17.3284 13.8179 16.787C14.394 16.2388 14.6861 15.4946 14.6861 14.5755C14.686 14.2208 14.674 13.871 14.6505 13.5358ZM13.1066 16.0396C12.7307 16.3974 12.2317 16.5713 11.5808 16.5713H3.10512C2.45417 16.5713 1.95512 16.3974 1.57935 16.0398C1.2107 15.6888 1.03155 15.2098 1.03155 14.5756C1.03155 14.2458 1.04243 13.9201 1.06418 13.6075C1.0854 13.3007 1.12878 12.9638 1.19311 12.6057C1.25663 12.2521 1.33748 11.9203 1.43364 11.6199C1.5259 11.3318 1.65174 11.0465 1.80779 10.7718C1.95673 10.5099 2.1281 10.2852 2.31719 10.1042C2.49406 9.93482 2.717 9.79622 2.97968 9.69228C3.22263 9.59612 3.49566 9.54347 3.79206 9.53555C3.82818 9.55475 3.89251 9.59142 3.99673 9.65937C4.20879 9.79757 4.45321 9.95523 4.72342 10.1278C5.02801 10.322 5.42043 10.4974 5.88927 10.6487C6.36858 10.8037 6.85742 10.8824 7.34265 10.8824C7.82787 10.8824 8.31685 10.8037 8.79589 10.6489C9.26513 10.4973 9.65742 10.322 9.96241 10.1275C10.2389 9.9508 10.4765 9.7977 10.6886 9.65937C10.7928 9.59155 10.8571 9.55475 10.8932 9.53555C11.1898 9.54347 11.4628 9.59612 11.7059 9.69228C11.9684 9.79622 12.1914 9.93495 12.3682 10.1042C12.5573 10.2851 12.7287 10.5098 12.8776 10.7719C13.0338 11.0465 13.1598 11.3319 13.2519 11.6197C13.3482 11.9206 13.4292 12.2523 13.4926 12.6056C13.5568 12.9643 13.6003 13.3014 13.6215 13.6076V13.6079C13.6434 13.9193 13.6544 14.2449 13.6545 14.5756C13.6544 15.2099 13.4753 15.6888 13.1066 16.0396Z"/>
    </symbol>
    <symbol id="logout" viewBox="0 0 18 19">
        <path fill="none" d="M8.66211 0.602783L4.15956 0.602783C2.41699 0.602783 1.00273 2.02065 1.00273 3.75962L1.00273 14.4459C1.00273 16.1885 2.4206 17.6028 4.15956 17.6028L8.58995 17.6028" stroke-width="1.2" stroke-linecap="round"/>
        <path stroke="none" d="M16.7578 10.15C17.0892 10.15 17.3578 9.88142 17.3578 9.55005C17.3578 9.21868 17.0892 8.95005 16.7578 8.95005L16.7578 10.15ZM5.59671 9.12578C5.36239 9.3601 5.36239 9.74 5.59671 9.97431L9.41508 13.7927C9.6494 14.027 10.0293 14.027 10.2636 13.7927C10.4979 13.5584 10.4979 13.1785 10.2636 12.9442L6.8695 9.55005L10.2636 6.15594C10.4979 5.92162 10.4979 5.54172 10.2636 5.30741C10.0293 5.07309 9.6494 5.07309 9.41508 5.30741L5.59671 9.12578ZM16.7578 8.95005L6.02097 8.95005L6.02097 10.15L16.7578 10.15L16.7578 8.95005Z"/>
    </symbol>
    <symbol id="filter" viewBox="0 0 16 18">
        <path d="M1 4.19914V1.44968C1 1.20985 1.19281 1 1.42335 1H14.5766C14.8114 1 15 1.20985 15 1.4454V4.19486M1 4.19914C1 4.21199 1 4.22484 1.00419 4.24197C1.00419 4.24625 1.00838 4.25482 1.00838 4.2591C1.00838 4.26767 1.01257 4.27195 1.01257 4.28051C1.01257 4.28908 1.01677 4.29336 1.01677 4.30193C1.01677 4.30621 1.02096 4.31478 1.02096 4.31906C1.02515 4.32762 1.02515 4.33619 1.02934 4.34047C1.02934 4.34475 1.03353 4.34904 1.03353 4.3576C1.03772 4.36617 1.03772 4.37045 1.04192 4.37902C1.04611 4.3833 1.04611 4.38758 1.0503 4.39615C1.05449 4.40471 1.05868 4.40899 1.05868 4.41328C1.06287 4.41756 1.06287 4.42612 1.06707 4.43041C1.07126 4.43469 1.07545 4.44325 1.07964 4.44754C1.08383 4.45182 1.08802 4.46039 1.09222 4.46467C1.09641 4.46895 1.1006 4.47323 1.10479 4.4818C1.10898 4.48608 1.11317 4.48608 1.11317 4.49036L5.90419 9.82655V16.5717C5.90419 16.7388 5.99641 16.8887 6.14311 16.9615C6.1976 16.9872 6.25629 17 6.31916 17C6.41976 17 6.51617 16.9657 6.59162 16.8972L9.95329 13.9722C10.0455 13.8908 10.1 13.7709 10.0958 13.6467V9.82655L14.8826 4.48608C14.8868 4.4818 14.8868 4.4818 14.891 4.47752C14.8952 4.47323 14.8994 4.46895 14.9036 4.46039C14.9078 4.4561 14.912 4.45182 14.9162 4.44325C14.9204 4.43469 14.9246 4.43041 14.9287 4.42612C14.9329 4.42184 14.9371 4.41328 14.9371 4.40899C14.9413 4.40471 14.9455 4.39615 14.9497 4.39186C14.9539 4.38758 14.9539 4.3833 14.9581 4.37473C14.9623 4.36617 14.9665 4.36188 14.9665 4.35332C14.9665 4.34904 14.9707 4.34475 14.9707 4.33619C14.9749 4.32762 14.9749 4.32334 14.979 4.31478C14.979 4.31049 14.9832 4.30193 14.9832 4.29764C14.9832 4.28908 14.9874 4.2848 14.9874 4.27623C14.9874 4.26767 14.9916 4.26338 14.9916 4.25482C14.9916 4.25054 14.9958 4.24197 14.9958 4.23769C14.9958 4.22484 15 4.21199 15 4.19486M1 4.19914L15 4.19486" fill="none"/>
    </symbol>

</svg>
