<svg xmlns="http://www.w3.org/2000/svg">
    <symbol id="popular" viewBox="0 0 17 21">
        <path stroke="none" d="M16.0079 9.71024C15.5667 8.7335 14.9253 7.85683 14.1238 7.13508L13.4625 6.53823C13.44 6.51852 13.413 6.50453 13.3838 6.49749C13.3545 6.49046 13.324 6.49059 13.2948 6.49787C13.2657 6.50515 13.2387 6.51937 13.2165 6.53927C13.1942 6.55916 13.1772 6.58414 13.167 6.61199L12.8716 7.44579C12.6875 7.96888 12.3489 8.50313 11.8693 9.02845C11.8375 9.06198 11.8011 9.07092 11.7761 9.07316C11.7511 9.07539 11.7125 9.07092 11.6784 9.03963C11.6466 9.0128 11.6307 8.97257 11.6329 8.93233C11.717 7.58662 11.3079 6.06879 10.4125 4.41684C9.67158 3.04431 8.64204 1.97356 7.35567 1.22694L6.41704 0.683742C6.29431 0.61221 6.13749 0.706096 6.14431 0.846926L6.19431 1.91991C6.2284 2.65312 6.14204 3.30138 5.93749 3.84011C5.68749 4.49955 5.3284 5.11205 4.86931 5.66195C4.54982 6.04412 4.1877 6.38979 3.78977 6.69247C2.83137 7.4171 2.05207 8.34561 1.51023 9.40847C0.969713 10.4806 0.688159 11.661 0.6875 12.8577C0.6875 13.9128 0.898863 14.9343 1.31704 15.8978C1.72083 16.8254 2.30354 17.6673 3.03295 18.3768C3.76932 19.0922 4.62386 19.6555 5.57613 20.0467C6.56249 20.4535 7.60795 20.6592 8.68749 20.6592C9.76704 20.6592 10.8125 20.4535 11.7989 20.0489C12.7488 19.66 13.6126 19.0928 14.342 18.3791C15.0784 17.6638 15.6557 16.8277 16.0579 15.9C16.4755 14.9392 16.6897 13.9048 16.6875 12.8599C16.6875 11.769 16.4602 10.7095 16.0079 9.71024ZM13.2557 17.2949C12.0352 18.4841 10.4148 19.1369 8.68749 19.1369C6.96022 19.1369 5.33977 18.4841 4.11931 17.2949C2.90341 16.1079 2.23295 14.5342 2.23295 12.8599C2.23295 11.8875 2.45568 10.9554 2.89432 10.088C3.32159 9.24081 3.95795 8.48302 4.73068 7.89958C5.22349 7.52894 5.67047 7.1028 6.06249 6.62988C6.63068 5.94808 7.07613 5.18805 7.38522 4.37213C7.51201 4.03557 7.60414 3.68734 7.66022 3.33268C8.20795 3.82893 8.66704 4.42802 9.05113 5.12993C9.81022 6.52928 10.1602 7.7744 10.092 8.83397C10.0757 9.08352 10.1172 9.33346 10.2132 9.56499C10.3093 9.79652 10.4574 10.0036 10.6466 10.1707C10.8105 10.3164 11.0022 10.4285 11.2105 10.5006C11.4189 10.5728 11.6397 10.6035 11.8602 10.591C12.3079 10.5686 12.7193 10.3742 13.0193 10.0456C13.3216 9.71248 13.5829 9.3727 13.8011 9.02621C14.1193 9.42635 14.3852 9.86225 14.5966 10.3317C14.9579 11.132 15.142 11.9836 15.142 12.8599C15.142 14.5342 14.4716 16.1102 13.2557 17.2949Z"/>
    </symbol>
    <symbol id="recommended" viewBox="0 0 17 18">
        <path stroke="none" fill-rule="evenodd" clip-rule="evenodd" d="M9.04685 1.86674C8.92829 1.83031 8.79977 1.83879 8.68747 1.89044C8.63182 1.91525 8.58245 1.95143 8.54278 1.99645C8.5031 2.04148 8.47408 2.09429 8.45773 2.1512L8.06717 3.60039C7.93073 4.10687 7.73243 4.59598 7.47641 5.05748C7.07846 5.77418 6.47703 6.32493 5.91909 6.78797L4.73921 7.7678C4.64895 7.84277 4.57846 7.93731 4.53353 8.04363C4.4886 8.14996 4.47051 8.26503 4.48075 8.3794L5.147 15.8015C5.1632 15.9818 5.24893 16.1497 5.38728 16.2721C5.52564 16.3945 5.70659 16.4626 5.89448 16.4629H9.70899C12.2821 16.4629 14.4507 14.7388 14.8667 12.4227L15.4451 9.19881C15.4639 9.09492 15.4589 8.98832 15.4304 8.8865C15.4019 8.78467 15.3507 8.69007 15.2802 8.6093C15.2098 8.52854 15.1219 8.46358 15.0227 8.41895C14.9235 8.37432 14.8154 8.35112 14.7059 8.35095H10.4548C9.6532 8.35095 9.04357 7.65875 9.17321 6.89702L9.7172 3.70153C9.79172 3.26385 9.77048 2.816 9.65484 2.38668C9.62221 2.27302 9.56026 2.16916 9.47476 2.08475C9.38927 2.00034 9.28299 1.93812 9.16582 1.90388L9.04685 1.86674ZM8.1525 0.822911C8.54929 0.639076 9.00419 0.608815 9.42346 0.738362L9.54243 0.775501C10.18 0.973045 10.6772 1.46296 10.8462 2.08878C11.0046 2.67825 11.0341 3.29301 10.9315 3.89355L10.3876 7.08903C10.3859 7.09846 10.3864 7.10812 10.389 7.11735C10.3916 7.12657 10.3963 7.13513 10.4027 7.14244C10.4091 7.14974 10.4171 7.1556 10.4261 7.15962C10.4351 7.16363 10.4449 7.1657 10.4548 7.16568H14.705C15.9358 7.16568 16.8679 8.234 16.6578 9.4011L16.0794 12.625C15.5559 15.5392 12.8482 17.6482 9.70899 17.6482H5.89448C5.39856 17.6478 4.92081 17.4684 4.5555 17.1454C4.19019 16.8224 3.96386 16.3793 3.92117 15.9035L3.2541 8.48133C3.22698 8.1799 3.27458 7.87659 3.39297 7.59634C3.51137 7.3161 3.69718 7.06693 3.93512 6.86936L5.11664 5.88954C5.65407 5.44388 6.10617 5.01165 6.39006 4.49883C6.60085 4.12009 6.76392 3.71847 6.8758 3.30249L7.26636 1.8541C7.32744 1.63055 7.43835 1.4225 7.59138 1.24442C7.74442 1.06634 7.93589 0.922501 8.1525 0.822911ZM1.27669 7.16647C1.43526 7.15979 1.59037 7.21238 1.70963 7.31324C1.82889 7.41411 1.90307 7.55545 1.91668 7.70774L2.71257 16.5862C2.72605 16.7184 2.7114 16.8519 2.66952 16.9785C2.62765 17.105 2.55941 17.2221 2.46899 17.3224C2.37857 17.4227 2.26787 17.5043 2.14363 17.562C2.0194 17.6198 1.88424 17.6525 1.74642 17.6583C1.60861 17.664 1.47102 17.6427 1.34206 17.5955C1.2131 17.5483 1.09548 17.4763 0.996384 17.3839C0.897288 17.2915 0.818794 17.1806 0.765697 17.058C0.7126 16.9353 0.686014 16.8036 0.687564 16.6707V7.75832C0.687419 7.60542 0.748637 7.45839 0.858424 7.34795C0.968211 7.23751 1.11807 7.17299 1.27669 7.16647Z"/>
    </symbol>
    <symbol id="new" viewBox="0 0 21 13">
        <path stroke="none" d="M20.4017 9.90905L17.4945 6.15917L20.3447 2.48429C20.5006 2.28325 20.5988 2.03961 20.6279 1.78191C20.6569 1.52422 20.6155 1.26316 20.5086 1.02933C20.4003 0.767244 20.2207 0.544769 19.9925 0.389949C19.7642 0.235129 19.4975 0.154894 19.226 0.159359H2.06986C1.89113 0.156381 1.71359 0.190491 1.54738 0.259741C1.38117 0.32899 1.22956 0.432023 1.10119 0.562954C0.972821 0.693885 0.870216 0.850149 0.799235 1.02282C0.728253 1.1955 0.690285 1.38119 0.6875 1.56931L0.6875 10.7565C0.694989 11.1351 0.84462 11.4952 1.10367 11.758C1.36272 12.0209 1.7101 12.165 2.06986 12.159H19.3044C19.5668 12.1636 19.825 12.0891 20.0485 11.9442C20.272 11.7994 20.4514 11.5902 20.5656 11.3415C20.6682 11.1105 20.7072 10.8538 20.6782 10.6006C20.6492 10.3474 20.5535 10.1079 20.4017 9.90905ZM2.11261 10.659V1.65931H19.112L15.6632 6.10667L19.1619 10.659H2.11261Z"/>
    </symbol>
</svg>
