<svg width="209" height="208" viewBox="0 0 209 208" fill="none" xmlns="http://www.w3.org/2000/svg">
<path d="M191.561 112.484L191.628 111.316L199.295 111.761L199.544 107.472L191.877 107.028L191.944 105.866L200.528 106.363L200.144 112.982L191.561 112.484Z" fill="white"/>
<path d="M193.849 125.207C193.216 125.088 192.653 124.88 192.159 124.58C191.67 124.281 191.269 123.913 190.956 123.476C190.642 123.039 190.428 122.543 190.312 121.989C190.199 121.438 190.2 120.853 190.316 120.232C190.432 119.61 190.642 119.064 190.946 118.591C191.254 118.12 191.633 117.737 192.083 117.442C192.532 117.148 193.039 116.95 193.604 116.848C194.172 116.746 194.773 116.755 195.406 116.873C196.039 116.991 196.6 117.2 197.089 117.499C197.583 117.798 197.986 118.167 198.299 118.603C198.616 119.041 198.833 119.535 198.95 120.086C199.067 120.637 199.067 121.223 198.951 121.844C198.835 122.466 198.623 123.012 198.315 123.483C198.007 123.959 197.626 124.343 197.172 124.637C196.722 124.932 196.213 125.129 195.645 125.231C195.081 125.333 194.482 125.325 193.849 125.207ZM194.068 124.033C194.587 124.13 195.066 124.146 195.506 124.082C195.945 124.017 196.33 123.882 196.662 123.675C196.998 123.469 197.276 123.196 197.499 122.855C197.721 122.514 197.875 122.115 197.96 121.659C198.045 121.207 198.045 120.782 197.96 120.384C197.876 119.985 197.715 119.628 197.477 119.311C197.243 118.998 196.932 118.733 196.546 118.514C196.159 118.295 195.707 118.138 195.187 118.041C194.668 117.944 194.189 117.927 193.75 117.992C193.315 118.057 192.929 118.193 192.594 118.398C192.261 118.609 191.984 118.885 191.762 119.226C191.543 119.567 191.392 119.964 191.307 120.417C191.222 120.873 191.22 121.3 191.3 121.697C191.384 122.095 191.544 122.451 191.778 122.763C192.017 123.076 192.328 123.342 192.71 123.56C193.096 123.778 193.549 123.936 194.068 124.033Z" fill="white"/>
<path d="M187.795 133.566L194.225 135.679L195.113 132.977C194.197 132.626 193.401 132.293 192.725 131.978C192.05 131.663 191.472 131.364 190.993 131.08C190.514 130.796 190.122 130.527 189.819 130.271C189.519 130.017 189.286 129.772 189.12 129.536L187.795 133.566ZM186.991 136.011L184.466 135.181C184.367 135.149 184.298 135.09 184.259 135.005C184.219 134.921 184.217 134.825 184.252 134.719L184.467 134.063L186.456 134.717L188.621 128.134L186.962 127.589C186.863 127.556 186.794 127.496 186.756 127.407C186.717 127.323 186.714 127.229 186.747 127.127L186.965 126.465L189.82 127.404L189.547 128.236C189.565 128.373 189.618 128.521 189.704 128.68C189.795 128.84 189.94 129.012 190.141 129.196C190.344 129.385 190.611 129.586 190.94 129.8C191.27 130.013 191.683 130.244 192.178 130.491C192.677 130.743 193.266 131.012 193.946 131.299C194.627 131.586 195.42 131.895 196.326 132.227L194.731 137.077L187.43 134.677L186.991 136.011Z" fill="white"/>
<path d="M181.93 144.84L182.434 143.784L189.366 147.089L191.215 143.211L184.282 139.906L184.783 138.855L192.545 142.555L189.692 148.54L181.93 144.84Z" fill="white"/>
<path d="M183.203 159.24L175.983 154.571L176.615 153.594L181.744 156.911C181.889 157.004 182.036 157.104 182.186 157.211C182.34 157.319 182.496 157.442 182.656 157.579C182.542 157.424 182.44 157.272 182.35 157.123C182.26 156.975 182.188 156.836 182.134 156.705L179.32 150.084C179.274 149.987 179.242 149.881 179.226 149.766C179.21 149.651 179.234 149.545 179.297 149.447L179.766 148.722L186.986 153.39L186.354 154.368L181.22 151.048C181.075 150.955 180.926 150.854 180.773 150.745C180.622 150.638 180.466 150.516 180.303 150.377C180.421 150.534 180.524 150.687 180.614 150.835C180.702 150.987 180.775 151.128 180.835 151.257L183.648 157.877C183.695 157.974 183.727 158.081 183.743 158.196C183.759 158.311 183.735 158.417 183.672 158.515L183.203 159.24Z" fill="white"/>
<path d="M170.642 164.08C170.601 164.129 170.545 164.155 170.475 164.159L169.796 164.192C169.71 163.661 169.742 163.128 169.891 162.596C170.038 162.066 170.34 161.529 170.797 160.983C171.193 160.511 171.635 160.15 172.121 159.901C172.61 159.653 173.117 159.517 173.64 159.491C174.166 159.468 174.699 159.555 175.238 159.751C175.778 159.948 176.296 160.255 176.792 160.672C177.289 161.088 177.678 161.548 177.961 162.052C178.243 162.555 178.415 163.072 178.475 163.604C178.533 164.138 178.478 164.671 178.309 165.203C178.142 165.737 177.859 166.243 177.458 166.721C177.064 167.19 176.642 167.54 176.191 167.773C175.74 168.005 175.271 168.15 174.785 168.207L174.623 167.569C174.608 167.525 174.602 167.479 174.607 167.43C174.611 167.387 174.634 167.341 174.675 167.292C174.722 167.237 174.807 167.194 174.932 167.163C175.061 167.135 175.215 167.087 175.397 167.02C175.579 166.953 175.779 166.848 176 166.703C176.223 166.562 176.453 166.35 176.689 166.068C176.975 165.728 177.176 165.367 177.293 164.985C177.413 164.605 177.447 164.219 177.396 163.826C177.342 163.436 177.202 163.049 176.975 162.666C176.749 162.283 176.433 161.921 176.029 161.582C175.618 161.237 175.203 160.988 174.784 160.835C174.362 160.684 173.954 160.616 173.56 160.631C173.168 160.651 172.797 160.75 172.449 160.928C172.099 161.109 171.789 161.361 171.519 161.682C171.354 161.878 171.217 162.064 171.107 162.238C170.998 162.418 170.913 162.594 170.851 162.767C170.787 162.943 170.744 163.119 170.723 163.294C170.702 163.474 170.696 163.665 170.705 163.866C170.707 163.957 170.686 164.028 170.642 164.08Z" fill="white"/>
<path d="M165.024 171.636L168.401 173.266C168.501 173.315 168.614 173.374 168.739 173.443C168.867 173.515 168.998 173.594 169.134 173.681C168.974 173.387 168.852 173.131 168.769 172.913L167.367 169.442L165.024 171.636ZM161.073 170.964L161.73 170.348C161.806 170.277 161.885 170.239 161.967 170.233C162.049 170.227 162.129 170.243 162.208 170.279L164.214 171.245L167.029 168.607L166.197 166.543C166.165 166.474 166.155 166.395 166.166 166.308C166.178 166.221 166.221 166.142 166.297 166.07L166.95 165.459L170.318 174.085L169.46 174.889L161.073 170.964Z" fill="white"/>
<path d="M158.206 182.717L160.439 181.055L155.889 174.942L156.818 174.251L161.368 180.364L163.606 178.698L164.19 179.482L158.79 183.502L158.206 182.717Z" fill="white"/>
<path d="M148.779 180.708C148.493 180.877 148.268 181.054 148.103 181.24C147.935 181.427 147.821 181.616 147.761 181.805C147.699 181.999 147.687 182.194 147.724 182.391C147.759 182.593 147.835 182.792 147.951 182.988C148.073 183.195 148.212 183.359 148.368 183.481C148.522 183.608 148.697 183.688 148.893 183.721C149.087 183.759 149.303 183.746 149.538 183.681C149.776 183.62 150.038 183.505 150.324 183.336L151.765 182.484L150.215 179.86L148.779 180.708ZM150.794 184.131C150.343 184.398 149.924 184.578 149.538 184.671C149.154 184.768 148.804 184.789 148.488 184.734C148.17 184.684 147.89 184.567 147.645 184.381C147.398 184.198 147.188 183.962 147.017 183.672C146.816 183.331 146.692 182.989 146.647 182.644C146.6 182.305 146.631 181.972 146.741 181.647C146.847 181.324 147.032 181.015 147.295 180.721C147.557 180.426 147.895 180.157 148.309 179.913L150.742 178.475L155.115 185.878L154.118 186.467L152.235 183.28L150.794 184.131Z" fill="white"/>
<path d="M137.552 187.224C137.494 187.25 137.432 187.249 137.367 187.221L136.743 186.954C136.898 186.438 137.16 185.974 137.528 185.56C137.892 185.149 138.399 184.798 139.05 184.509C139.612 184.258 140.167 184.127 140.714 184.116C141.262 184.108 141.777 184.207 142.258 184.414C142.741 184.623 143.182 184.935 143.581 185.348C143.979 185.762 144.31 186.265 144.574 186.857C144.837 187.449 144.986 188.033 145.019 188.609C145.052 189.186 144.98 189.726 144.801 190.23C144.619 190.736 144.336 191.19 143.95 191.594C143.567 192.001 143.09 192.332 142.52 192.585C141.961 192.834 141.428 192.964 140.92 192.975C140.413 192.987 139.929 192.911 139.467 192.749L139.6 192.105C139.606 192.059 139.621 192.015 139.647 191.973C139.67 191.936 139.711 191.905 139.769 191.879C139.835 191.85 139.931 191.849 140.057 191.876C140.184 191.907 140.344 191.932 140.537 191.951C140.729 191.97 140.956 191.964 141.217 191.931C141.48 191.901 141.779 191.812 142.116 191.662C142.521 191.481 142.86 191.245 143.133 190.953C143.407 190.664 143.608 190.332 143.734 189.956C143.856 189.582 143.9 189.173 143.864 188.729C143.829 188.286 143.703 187.822 143.489 187.34C143.271 186.85 143.007 186.445 142.697 186.123C142.384 185.802 142.047 185.563 141.687 185.403C141.325 185.249 140.949 185.176 140.558 185.183C140.164 185.192 139.775 185.282 139.391 185.453C139.157 185.557 138.953 185.664 138.778 185.772C138.601 185.886 138.447 186.007 138.316 186.136C138.181 186.266 138.066 186.405 137.969 186.552C137.871 186.706 137.782 186.874 137.702 187.059C137.664 187.141 137.615 187.196 137.552 187.224Z" fill="white"/>
<path d="M130.116 192.775L131.037 195.687L132.662 195.173C132.978 195.073 133.238 194.953 133.442 194.813C133.645 194.673 133.799 194.515 133.902 194.34C134.008 194.168 134.066 193.982 134.078 193.781C134.087 193.585 134.058 193.378 133.989 193.161C133.917 192.932 133.819 192.736 133.696 192.574C133.571 192.416 133.418 192.297 133.237 192.216C133.052 192.136 132.837 192.097 132.59 192.099C132.34 192.107 132.058 192.161 131.741 192.261L130.116 192.775ZM127.619 188.719L128.723 188.37L129.84 191.899L130.955 191.547C131.058 191.514 131.152 191.474 131.238 191.426C131.321 191.383 131.397 191.325 131.466 191.253C131.536 191.181 131.6 191.091 131.658 190.984C131.718 190.882 131.771 190.756 131.816 190.607L132.796 187.516C132.826 187.372 132.888 187.246 132.984 187.136C133.08 187.03 133.208 186.951 133.369 186.901L134.204 186.637L133.028 190.3C132.905 190.708 132.711 191.031 132.447 191.27C132.794 191.227 133.111 191.232 133.396 191.285C133.681 191.337 133.934 191.429 134.156 191.56C134.375 191.696 134.562 191.87 134.717 192.081C134.872 192.292 134.993 192.535 135.08 192.81C135.191 193.161 135.229 193.499 135.193 193.825C135.154 194.152 135.044 194.455 134.864 194.734C134.681 195.019 134.43 195.272 134.11 195.495C133.788 195.723 133.398 195.909 132.94 196.054L130.212 196.917L127.619 188.719Z" fill="white"/>
<path d="M114.485 199.973L113.231 191.467L114.383 191.297L114.953 195.168L119.541 194.491L118.971 190.621L120.123 190.451L121.376 198.957L120.225 199.127L119.666 195.334L115.077 196.01L115.636 199.803L114.485 199.973Z" fill="white"/>
<path d="M104.047 195.068L105.464 198.539C105.506 198.643 105.55 198.762 105.597 198.897C105.643 199.036 105.688 199.183 105.731 199.338C105.809 199.013 105.89 198.741 105.974 198.524L107.256 195.006L104.047 195.068ZM101.561 191.923L102.461 191.906C102.565 191.904 102.65 191.928 102.715 191.979C102.78 192.03 102.829 192.095 102.863 192.174L103.706 194.234L107.564 194.16L108.327 192.069C108.35 191.996 108.395 191.932 108.462 191.874C108.529 191.817 108.614 191.787 108.718 191.785L109.612 191.768L106.34 200.431L105.165 200.453L101.561 191.923Z" fill="white"/>
<path d="M93.5428 191.244L94.7 191.369L93.7737 199.917L92.6165 199.792L93.5428 191.244Z" fill="white"/>
<path d="M80.8871 197.729L82.6269 189.309L83.1968 189.427C83.2869 189.446 83.3601 189.477 83.4163 189.521C83.4686 189.565 83.5164 189.63 83.5598 189.716L87.1197 197.069C87.1321 196.969 87.146 196.872 87.1616 196.777C87.1771 196.682 87.1933 196.594 87.2103 196.512L88.4499 190.512L89.4488 190.719L87.709 199.139L87.1214 199.017C87.0705 199.007 87.0282 198.994 86.9946 198.979C86.9601 198.968 86.9308 198.951 86.9066 198.93C86.8817 198.913 86.8583 198.887 86.8365 198.854C86.814 198.825 86.7911 198.788 86.7678 198.742L83.2067 191.396C83.1935 191.499 83.1811 191.599 83.1695 191.694C83.1532 191.793 83.1361 191.885 83.1183 191.972L81.886 197.936L80.8871 197.729Z" fill="white"/>
<path d="M72.0437 193.627C72.0966 193.582 72.149 193.55 72.2007 193.534C72.2475 193.52 72.2994 193.522 72.3564 193.541C72.421 193.562 72.4863 193.619 72.5525 193.713C72.6187 193.806 72.7058 193.912 72.8138 194.032C72.9167 194.154 73.0507 194.278 73.2157 194.404C73.3768 194.529 73.5885 194.634 73.8507 194.72C74.0977 194.801 74.3275 194.839 74.5399 194.833C74.7474 194.83 74.9344 194.792 75.1011 194.721C75.264 194.648 75.4033 194.544 75.5191 194.41C75.6337 194.279 75.7203 194.124 75.779 193.946C75.854 193.718 75.8613 193.51 75.8011 193.321C75.7358 193.136 75.6295 192.96 75.482 192.793C75.3308 192.626 75.1524 192.464 74.9468 192.308C74.7362 192.155 74.5231 191.996 74.3073 191.832C74.0878 191.668 73.8797 191.494 73.6828 191.311C73.481 191.131 73.3151 190.932 73.1851 190.712C73.0514 190.491 72.9675 190.247 72.9335 189.979C72.8957 189.709 72.9324 189.406 73.0436 189.068C73.161 188.71 73.3323 188.394 73.5576 188.119C73.7816 187.847 74.0495 187.634 74.3613 187.48C74.6693 187.324 75.0162 187.236 75.4019 187.215C75.7838 187.194 76.1914 187.254 76.6246 187.396C77.1566 187.571 77.6079 187.825 77.9787 188.157C78.3482 188.493 78.6331 188.875 78.8335 189.303L78.3419 189.723C78.2978 189.755 78.2504 189.777 78.1999 189.79C78.1443 189.805 78.0899 189.804 78.0367 189.787C77.9873 189.771 77.939 189.732 77.892 189.67C77.8399 189.61 77.7839 189.537 77.7241 189.45C77.6643 189.363 77.595 189.267 77.5161 189.161C77.4372 189.055 77.3432 188.95 77.234 188.847C77.121 188.743 76.9877 188.642 76.8343 188.545C76.6796 188.452 76.4977 188.371 76.2887 188.303C76.0265 188.217 75.7809 188.176 75.552 188.181C75.3231 188.185 75.1171 188.229 74.934 188.312C74.7459 188.398 74.5839 188.519 74.4479 188.677C74.3119 188.834 74.2071 189.025 74.1334 189.249C74.0522 189.496 74.043 189.716 74.1058 189.909C74.1635 190.105 74.2661 190.286 74.4136 190.453C74.561 190.619 74.7406 190.777 74.9525 190.927C75.1631 191.08 75.3775 191.235 75.5957 191.391C75.8127 191.55 76.0221 191.72 76.224 191.9C76.4259 192.08 76.5911 192.282 76.7198 192.506C76.8485 192.729 76.9299 192.981 76.9639 193.262C76.9929 193.545 76.9481 193.867 76.8295 194.228C76.7345 194.517 76.5876 194.778 76.3887 195.011C76.186 195.244 75.944 195.429 75.6625 195.568C75.3772 195.706 75.0581 195.787 74.7053 195.81C74.3487 195.831 73.9671 195.775 73.5605 195.642C73.1045 195.492 72.714 195.284 72.3891 195.017C72.0603 194.749 71.7984 194.431 71.6034 194.064L72.0437 193.627Z" fill="white"/>
<path d="M63.223 190.387L65.7748 191.5L68.8215 184.515L69.883 184.978L66.8362 191.963L69.3935 193.078L69.0024 193.975L62.832 191.283L63.223 190.387Z" fill="white"/>
<path d="M57.4452 182.277L56.9103 185.988C56.8943 186.098 56.8722 186.224 56.844 186.364C56.8138 186.507 56.778 186.657 56.7365 186.813C56.9684 186.571 57.1755 186.378 57.358 186.233L60.2444 183.848L57.4452 182.277ZM56.8938 178.307L57.6787 178.748C57.7693 178.799 57.8299 178.862 57.8602 178.939C57.8906 179.016 57.9001 179.097 57.8889 179.182L57.5739 181.386L60.9381 183.274L62.6554 181.858C62.7115 181.807 62.783 181.773 62.8697 181.758C62.9564 181.742 63.0433 181.759 63.1305 181.808L63.9154 182.248L56.7089 188.063L55.6834 187.488L56.8938 178.307Z" fill="white"/>
<path d="M47.1526 176.399L49.0841 173.724C49.617 173.723 50.1285 173.804 50.6188 173.966C51.1034 174.128 51.5825 174.38 52.056 174.722C52.6171 175.127 53.061 175.578 53.3877 176.075C53.7121 176.576 53.9225 177.098 54.0188 177.641C54.1096 178.185 54.0829 178.738 53.9387 179.3C53.7946 179.862 53.5328 180.405 53.1536 180.931C52.7696 181.463 52.3369 181.888 51.8554 182.206C51.3707 182.523 50.8619 182.725 50.3291 182.814C49.7939 182.906 49.2437 182.879 48.6785 182.733C48.1133 182.586 47.5583 182.316 47.0135 181.923C46.7378 181.724 46.4968 181.518 46.2904 181.305C46.0818 181.095 45.905 180.878 45.7601 180.655C45.6129 180.436 45.4931 180.209 45.4008 179.974C45.3062 179.743 45.2334 179.506 45.1826 179.262L45.7592 179.027C45.8482 178.992 45.9337 178.99 46.0159 179.02C46.0924 179.05 46.1537 179.119 46.1997 179.226C46.2447 179.328 46.2941 179.448 46.3479 179.585C46.4016 179.722 46.4803 179.873 46.5841 180.037C46.6824 180.201 46.8152 180.376 46.9826 180.561C47.1467 180.744 47.3634 180.932 47.6326 181.127C48.0251 181.41 48.427 181.601 48.8385 181.701C49.2477 181.804 49.6507 181.816 50.0478 181.738C50.4425 181.663 50.8227 181.498 51.1886 181.244C51.552 180.993 51.886 180.657 52.1903 180.236C52.5064 179.798 52.728 179.361 52.8553 178.925C52.977 178.49 53.0105 178.067 52.9558 177.658C52.8955 177.249 52.7456 176.862 52.5061 176.497C52.2666 176.132 51.9409 175.801 51.529 175.503C51.2047 175.269 50.8919 175.098 50.5906 174.989C50.2838 174.881 49.9636 174.805 49.6299 174.761L48.5237 176.294L49.6086 177.077C49.6702 177.121 49.7076 177.176 49.7208 177.239C49.7307 177.301 49.7169 177.357 49.6795 177.409L49.2932 177.944L47.1526 176.399Z" fill="white"/>
<path d="M42.0831 172.405C41.8346 172.178 41.5887 172.009 41.3455 171.896C41.0966 171.783 40.8588 171.723 40.632 171.717C40.3995 171.711 40.1807 171.755 39.9757 171.85C39.7706 171.945 39.5833 172.085 39.4137 172.272C39.0692 172.65 38.9337 173.049 39.0073 173.467C39.0809 173.886 39.3662 174.321 39.8633 174.773L40.8042 175.629L42.9885 173.228L42.0831 172.405ZM42.1287 166.452L42.8921 167.146C43.0489 167.289 43.1091 167.455 43.0728 167.643L42.6566 171.418C42.6423 171.534 42.6512 171.634 42.6835 171.718C42.7101 171.801 42.7841 171.899 42.9054 172.009L43.5578 172.602L45.9723 169.948L46.8288 170.728L41.043 177.088L39.2455 175.452C38.8431 175.086 38.5331 174.729 38.3156 174.379C38.0953 174.033 37.9605 173.697 37.9111 173.371C37.8588 173.042 37.8863 172.726 37.9938 172.424C38.0986 172.124 38.2734 171.84 38.5184 171.571C38.7229 171.346 38.9495 171.168 39.1982 171.037C39.4469 170.907 39.7106 170.825 39.9894 170.792C40.2625 170.759 40.5465 170.777 40.8413 170.845C41.1333 170.91 41.4276 171.027 41.7243 171.194C41.6714 171.032 41.6588 170.856 41.6866 170.665L42.1287 166.452Z" fill="white"/>
<path d="M34.4359 162.746L32.7204 166.08C32.6693 166.179 32.6076 166.29 32.5353 166.413C32.4599 166.539 32.3773 166.669 32.2874 166.802C32.5852 166.65 32.8441 166.535 33.064 166.457L36.57 165.144L34.4359 162.746ZM35.2089 158.813L35.8072 159.485C35.8763 159.563 35.9128 159.643 35.9165 159.725C35.9202 159.808 35.9028 159.887 35.8643 159.965L34.848 161.945L37.4129 164.827L39.4982 164.048C39.5679 164.018 39.6463 164.009 39.7334 164.023C39.8204 164.037 39.8972 164.081 39.9636 164.155L40.562 164.828L31.8536 167.976L31.0718 167.097L35.2089 158.813Z" fill="white"/>
<path d="M21.4643 154.073L28.5976 149.272L29.167 150.119L23.9253 153.646C23.8556 153.693 23.7799 153.741 23.698 153.792C23.6139 153.839 23.5281 153.887 23.4407 153.936L29.5489 153.384C29.7496 153.359 29.9024 153.425 30.0074 153.581L30.1012 153.721C30.2061 153.877 30.2096 154.043 30.1117 154.22L27.3131 159.734C27.4756 159.595 27.6315 159.476 27.7809 159.375L33.0226 155.848L33.592 156.694L26.4587 161.495L25.9797 160.783C25.9217 160.696 25.8853 160.625 25.8706 160.567C25.8559 160.509 25.8723 160.433 25.9196 160.339L28.6519 154.92C28.7048 154.827 28.7621 154.733 28.8238 154.638C28.8833 154.54 28.9466 154.445 29.0139 154.351C28.902 154.378 28.7906 154.403 28.6797 154.424C28.5656 154.448 28.4542 154.465 28.3455 154.476L22.332 155.007C22.2289 155.019 22.1534 155.007 22.1055 154.972C22.0554 154.933 22.0014 154.871 21.9433 154.784L21.4643 154.073Z" fill="white"/>
<path d="M21.9536 144.284C21.8419 144.338 21.726 144.37 21.606 144.378C21.4843 144.384 21.37 144.368 21.2632 144.33C21.1547 144.289 21.0563 144.232 20.9679 144.159C20.8778 144.083 20.8068 143.991 20.7547 143.883C20.701 143.771 20.6714 143.654 20.6661 143.532C20.6608 143.411 20.6768 143.296 20.7142 143.19C20.7516 143.083 20.8103 142.983 20.8904 142.892C20.9705 142.8 21.0665 142.727 21.1782 142.673C21.2863 142.621 21.3995 142.593 21.5176 142.59C21.6357 142.586 21.75 142.602 21.8604 142.638C21.9671 142.675 22.0664 142.734 22.1583 142.814C22.2465 142.896 22.3175 142.993 22.3713 143.105C22.4233 143.213 22.4529 143.325 22.4601 143.441C22.4619 143.556 22.445 143.668 22.4094 143.779C22.3684 143.887 22.3096 143.987 22.2331 144.077C22.1549 144.163 22.0617 144.232 21.9536 144.284Z" fill="white"/>
<path d="M19.5827 128.529L19.9523 129.64L12.6654 132.065L14.0224 136.141L21.3092 133.716L21.6769 134.82L13.519 137.536L11.4249 131.245L19.5827 128.529Z" fill="white"/>
<path d="M12.7719 117.522C13.404 117.399 14.0046 117.386 14.5737 117.483C15.1388 117.58 15.6473 117.775 16.0992 118.066C16.5512 118.357 16.9332 118.739 17.2454 119.212C17.5529 119.682 17.767 120.227 17.8878 120.847C18.0085 121.468 18.0146 122.053 17.9059 122.604C17.7932 123.156 17.582 123.651 17.2723 124.091C16.9625 124.53 16.5641 124.901 16.0769 125.204C15.5859 125.507 15.0243 125.72 14.3922 125.843C13.76 125.967 13.1614 125.979 12.5963 125.881C12.0273 125.784 11.5168 125.59 11.0648 125.299C10.609 125.009 10.2253 124.629 9.91393 124.16C9.60254 123.691 9.38645 123.146 9.26566 122.526C9.14488 121.906 9.14081 121.32 9.25345 120.768C9.36533 120.212 9.57811 119.714 9.89179 119.274C10.2015 118.835 10.6019 118.464 11.093 118.16C11.5801 117.858 12.1398 117.645 12.7719 117.522ZM13.0001 118.694C12.4818 118.795 12.0303 118.956 11.6456 119.177C11.2608 119.399 10.9524 119.667 10.7201 119.981C10.484 120.296 10.3252 120.653 10.244 121.052C10.1627 121.451 10.1664 121.878 10.2551 122.333C10.343 122.785 10.4994 123.18 10.7244 123.52C10.9494 123.859 11.2308 124.132 11.5687 124.339C11.9018 124.543 12.2883 124.676 12.728 124.737C13.1678 124.798 13.6468 124.778 14.1651 124.677C14.6834 124.576 15.1349 124.415 15.5196 124.194C15.9004 123.973 16.2089 123.705 16.4451 123.39C16.6766 123.072 16.8329 122.713 16.9142 122.314C16.9915 121.916 16.9863 121.491 16.8983 121.04C16.8097 120.584 16.6548 120.187 16.4337 119.847C16.2088 119.507 15.9297 119.236 15.5965 119.032C15.2595 118.828 14.873 118.696 14.4372 118.634C13.9974 118.573 13.5184 118.593 13.0001 118.694Z" fill="white"/>
<path d="M15.3133 107.366L8.5566 107.758L8.72111 110.597C9.70225 110.588 10.5647 110.606 11.3086 110.651C12.0524 110.696 12.6994 110.763 13.2494 110.851C13.7994 110.94 14.2624 111.047 14.6384 111.174C15.0103 111.3 15.3171 111.443 15.5586 111.601L15.3133 107.366ZM15.1644 104.797L17.8179 104.643C17.9218 104.637 18.0076 104.666 18.0754 104.73C18.1432 104.794 18.1804 104.882 18.1869 104.994L18.2268 105.683L16.1363 105.804L16.5371 112.722L18.2802 112.621C18.384 112.615 18.47 112.646 18.538 112.715C18.6059 112.779 18.6429 112.865 18.6492 112.973L18.6894 113.668L15.6885 113.841L15.6378 112.967C15.5707 112.847 15.4677 112.728 15.3287 112.612C15.1858 112.496 14.9873 112.39 14.7332 112.292C14.4749 112.191 14.1532 112.101 13.7681 112.023C13.3829 111.946 12.9145 111.883 12.3628 111.834C11.8069 111.782 11.1598 111.748 10.4215 111.731C9.68329 111.713 8.83205 111.716 7.86782 111.74L7.57246 106.643L15.2456 106.198L15.1644 104.797Z" fill="white"/>
<path d="M16.6288 94.5148L16.5476 95.6819L8.88616 95.1491L8.58808 99.4347L16.2496 99.9676L16.1688 101.129L7.59153 100.532L8.05155 93.9182L16.6288 94.5148Z" fill="white"/>
<path d="M10.1071 81.7235L18.5403 83.3989L18.3135 84.5406L12.3226 83.3504C12.1539 83.3169 11.9801 83.2782 11.8011 83.2345C11.6183 83.1901 11.4276 83.1338 11.2291 83.0658C11.3924 83.1676 11.5431 83.271 11.6813 83.3759C11.8195 83.4808 11.9377 83.5839 12.0359 83.6849L17.094 88.8006C17.1733 88.8735 17.2417 88.9605 17.2991 89.0616C17.3565 89.1627 17.3739 89.2701 17.3513 89.3839L17.1829 90.2314L8.74972 88.556L8.97654 87.4143L14.9733 88.6056C15.142 88.6392 15.3178 88.6782 15.5007 88.7226C15.6796 88.7663 15.8703 88.8226 16.0727 88.8913C15.9055 88.7888 15.7528 88.685 15.6146 88.5801C15.4772 88.4712 15.357 88.3678 15.2541 88.2699L10.196 83.1542C10.1167 83.0814 10.0483 82.9944 9.99095 82.8933C9.93355 82.7921 9.91616 82.6847 9.93876 82.5709L10.1071 81.7235Z" fill="white"/>
<path d="M20.0755 72.4041C20.0959 72.3434 20.1384 72.2987 20.203 72.2698L20.8225 71.9911C21.0967 72.455 21.2613 72.9621 21.3164 73.5125C21.3727 74.0592 21.2872 74.6698 21.0598 75.3445C20.863 75.9283 20.5837 76.4251 20.2218 76.8349C19.8561 77.2435 19.4345 77.5552 18.9569 77.7699C18.4755 77.9833 17.9476 78.0966 17.3733 78.1099C16.799 78.1231 16.2048 78.0262 15.5908 77.8192C14.9767 77.6122 14.4464 77.3258 13.9999 76.96C13.5533 76.5942 13.205 76.175 12.9549 75.7024C12.706 75.2259 12.5636 74.7093 12.5275 74.1526C12.4876 73.5947 12.5674 73.02 12.7667 72.4287C12.9622 71.8488 13.2275 71.3684 13.5628 70.9875C13.898 70.6066 14.2817 70.3012 14.7138 70.0712L15.0971 70.6056C15.1274 70.6412 15.1494 70.6823 15.1631 70.7292C15.1744 70.771 15.1698 70.8222 15.1493 70.8828C15.1263 70.9511 15.0622 71.0223 14.957 71.0966C14.8479 71.1696 14.7211 71.2703 14.5765 71.3989C14.4318 71.5274 14.2833 71.6989 14.1307 71.9135C13.9744 72.1267 13.8375 72.4077 13.72 72.7564C13.5781 73.1771 13.5224 73.5868 13.5526 73.9853C13.5791 74.3826 13.6879 74.7549 13.879 75.1021C14.0714 75.4455 14.3429 75.7545 14.6937 76.0289C15.0444 76.3033 15.4699 76.5248 15.9702 76.6935C16.4782 76.8647 16.9554 76.9454 17.4019 76.9355C17.8498 76.9218 18.2542 76.8365 18.6152 76.6796C18.9738 76.5177 19.2825 76.2904 19.5416 75.9978C19.8019 75.7014 19.9991 75.3542 20.1333 74.9562C20.215 74.7137 20.2752 74.4912 20.3139 74.289C20.35 74.0817 20.3652 73.8863 20.3595 73.7028C20.3551 73.5156 20.331 73.3366 20.2873 73.1656C20.2411 72.9897 20.1772 72.8098 20.0956 72.6261C20.0605 72.5425 20.0537 72.4685 20.0755 72.4041Z" fill="white"/>
<path d="M22.4679 63.4794L18.7294 63.1928C18.6183 63.1842 18.4919 63.1704 18.3502 63.1516C18.2049 63.1311 18.0532 63.1053 17.8952 63.0743C18.1515 63.2896 18.3582 63.4834 18.5153 63.6558L21.0866 66.377L22.4679 63.4794ZM26.3923 62.6649L26.005 63.4773C25.9603 63.5712 25.9007 63.6358 25.8262 63.6712C25.7517 63.7066 25.6715 63.7216 25.5855 63.716L23.3655 63.5484L21.7054 67.031L23.2334 68.6501C23.288 68.7027 23.326 68.7718 23.3473 68.8572C23.3686 68.9427 23.3569 69.0324 23.3121 69.1263L22.9274 69.9333L16.6456 63.13L17.1517 62.0685L26.3923 62.6649Z" fill="white"/>
<path d="M24.8249 50.5822L23.3477 52.942L29.8065 56.9852L29.1921 57.9667L22.7332 53.9235L21.2528 56.2884L20.4239 55.7694L23.9959 50.0633L24.8249 50.5822Z" fill="white"/>
<path d="M34.2883 49.0688C34.4932 48.8077 34.6387 48.5608 34.7246 48.3282C34.8129 48.0925 34.8509 47.8757 34.8384 47.6777C34.8253 47.4742 34.7657 47.2877 34.6598 47.1181C34.5532 46.9429 34.4103 46.785 34.2309 46.6442C34.0421 46.496 33.8531 46.3935 33.6639 46.3365C33.474 46.274 33.2818 46.263 33.0873 46.3035C32.8921 46.3384 32.6964 46.429 32.5004 46.5751C32.3012 46.7188 32.0991 46.9212 31.8942 47.1824L30.8607 48.4993L33.2585 50.381L34.2883 49.0688ZM31.1673 46.612C31.4908 46.1998 31.8154 45.88 32.1413 45.6527C32.464 45.4229 32.7825 45.2762 33.0967 45.2127C33.4103 45.1435 33.7146 45.151 34.0097 45.235C34.3072 45.316 34.5881 45.4601 34.8524 45.6676C35.1639 45.912 35.4036 46.1865 35.5714 46.4911C35.7385 46.79 35.8299 47.1109 35.8456 47.4537C35.8637 47.7934 35.804 48.1482 35.6662 48.518C35.5285 48.8879 35.3115 49.2617 35.0152 49.6393L33.2705 51.8624L26.5066 46.5544L27.2215 45.6434L30.1338 47.9289L31.1673 46.612Z" fill="white"/>
<path d="M42.3479 38.904C42.3928 38.8584 42.4506 38.8368 42.5214 38.8391L43.2004 38.8596C43.2439 39.3967 43.1699 39.9248 42.9785 40.4438C42.7899 40.9599 42.4457 41.4716 41.946 41.9787C41.5136 42.4174 41.045 42.7418 40.5402 42.952C40.0326 43.1593 39.5171 43.255 38.9937 43.239C38.4674 43.2202 37.9432 43.0911 37.421 42.8516C36.8989 42.6122 36.407 42.265 35.9455 41.8101C35.484 41.3553 35.1325 40.8657 34.8911 40.3413C34.6497 39.817 34.52 39.2876 34.5019 38.7531C34.4867 38.2158 34.5847 37.689 34.7959 37.1727C35.0043 36.6535 35.3275 36.1718 35.7655 35.7273C36.1951 35.2915 36.644 34.9756 37.1121 34.7799C37.5802 34.5842 38.0588 34.4774 38.548 34.4597L38.6588 35.1081C38.6705 35.1533 38.6722 35.1999 38.6641 35.2481C38.6559 35.2905 38.6293 35.3346 38.5844 35.3802C38.5339 35.4314 38.445 35.4674 38.3179 35.4882C38.1879 35.5061 38.0298 35.5412 37.8435 35.5934C37.6572 35.6457 37.4485 35.7349 37.2175 35.861C36.9836 35.9844 36.7375 36.1771 36.4792 36.4392C36.1676 36.7554 35.9381 37.0993 35.7909 37.4709C35.6409 37.8397 35.5757 38.222 35.5956 38.6179C35.6182 39.0109 35.7272 39.4075 35.9224 39.8077C36.1177 40.208 36.4033 40.5934 36.7794 40.964C37.1612 41.3403 37.5549 41.6217 37.9608 41.8082C38.3694 41.9919 38.7704 42.0923 39.1637 42.1092C39.5569 42.1205 39.934 42.0513 40.295 41.9016C40.6587 41.749 40.988 41.5232 41.2828 41.224C41.4625 41.0417 41.614 40.8681 41.7373 40.7031C41.8605 40.5325 41.9597 40.3635 42.0348 40.1961C42.1128 40.0258 42.1695 39.8543 42.205 39.6815C42.2405 39.503 42.2618 39.3133 42.2688 39.1125C42.2738 39.0219 42.3002 38.9524 42.3479 38.904Z" fill="white"/>
<path d="M47.2325 31.003L45.3123 28.6282L43.9872 29.6996C43.7291 29.9084 43.5309 30.1149 43.3926 30.3193C43.2544 30.5237 43.1689 30.7265 43.1362 30.9278C43.101 31.1261 43.1145 31.3209 43.1767 31.5124C43.2396 31.6982 43.3426 31.8798 43.486 32.057C43.6369 32.2437 43.7992 32.3903 43.9728 32.4968C44.1469 32.5977 44.3331 32.653 44.5312 32.6626C44.7324 32.6696 44.9473 32.627 45.1761 32.5346C45.4055 32.4366 45.6493 32.2832 45.9074 32.0744L47.2325 31.003ZM51.0378 33.8675L50.1373 34.5956L47.8097 31.7169L46.8999 32.4525C46.8159 32.5204 46.7429 32.5923 46.6808 32.6682C46.6193 32.7385 46.5695 32.82 46.5312 32.9126C46.493 33.0053 46.466 33.112 46.4504 33.2326C46.4323 33.3501 46.4292 33.4863 46.4413 33.6412L46.6577 36.8767C46.6822 37.0215 46.6702 37.1624 46.6215 37.2995C46.5704 37.4334 46.4795 37.5532 46.3488 37.6588L45.6677 38.2096L45.4256 34.3699C45.3909 33.9453 45.453 33.5736 45.6119 33.2548C45.3041 33.4213 45.008 33.5322 44.7234 33.5874C44.4388 33.6426 44.1693 33.6496 43.9148 33.6085C43.6609 33.5617 43.4234 33.4683 43.2021 33.3282C42.9809 33.1882 42.7797 33.0062 42.5986 32.7823C42.3673 32.4961 42.2086 32.1949 42.1226 31.8786C42.0397 31.5598 42.0312 31.2375 42.0969 30.9117C42.1633 30.5803 42.3047 30.2525 42.521 29.9284C42.7379 29.5987 43.033 29.2829 43.4063 28.9811L45.6318 27.1816L51.0378 33.8675Z" fill="white"/>
<path d="M58.7654 18.7489L63.0565 26.1995L62.0478 26.7804L60.0954 23.3905L56.0763 25.7052L58.0287 29.0952L57.0201 29.6761L52.729 22.2254L53.7377 21.6445L55.6511 24.9669L59.6702 22.6522L57.7567 19.3298L58.7654 18.7489Z" fill="white"/>
<path d="M70.6657 19.2464L68.0799 16.5312C68.0032 16.4505 67.9185 16.3557 67.8258 16.2469C67.7316 16.1344 67.6361 16.0137 67.5395 15.8849C67.5858 16.2164 67.6097 16.4987 67.6111 16.7319L67.7001 20.4748L70.6657 19.2464ZM74.1267 21.2679L73.2952 21.6123C73.1991 21.6521 73.1116 21.6602 73.0325 21.6367C72.9535 21.6131 72.8839 21.5705 72.8237 21.5088L71.2865 19.8985L67.7221 21.3748L67.7737 23.6005C67.7791 23.6762 67.7611 23.7529 67.7197 23.8307C67.6783 23.9084 67.6096 23.9672 67.5135 24.007L66.6875 24.3491L66.5738 15.0899L67.6603 14.6399L74.1267 21.2679Z" fill="white"/>
<path d="M81.5542 19.0419L80.4308 19.3464L78.1819 11.0477L79.3053 10.7432L81.5542 19.0419Z" fill="white"/>
<path d="M90.5157 8.42855L91.9972 16.898L91.4239 16.9982C91.3332 17.0141 91.2537 17.0118 91.1851 16.9913C91.1205 16.9701 91.0521 16.9272 90.9799 16.8627L84.9637 11.3367C84.9888 11.4338 85.0116 11.5293 85.0321 11.6232C85.0526 11.7171 85.0701 11.8054 85.0845 11.8881L86.1401 17.9225L85.1354 18.0983L83.6538 9.62885L84.2449 9.52547C84.2961 9.51651 84.3401 9.51287 84.377 9.51454C84.4131 9.51228 84.4464 9.51662 84.4767 9.52755C84.5063 9.53455 84.5374 9.54943 84.5698 9.57218C84.6015 9.591 84.6366 9.61735 84.675 9.65124L90.6901 15.1713C90.6643 15.0703 90.6392 14.9732 90.6148 14.88C90.5936 14.7822 90.5754 14.6899 90.5603 14.6032L89.5109 8.60431L90.5157 8.42855Z" fill="white"/>
<path d="M100.664 8.92027C100.632 8.98225 100.594 9.03049 100.552 9.06498C100.514 9.09525 100.465 9.11212 100.405 9.11559C100.337 9.11952 100.255 9.09021 100.159 9.02764C100.064 8.96508 99.9436 8.89791 99.7992 8.82614C99.6586 8.75015 99.4884 8.68388 99.2888 8.62733C99.0932 8.57055 98.8576 8.55014 98.5821 8.56611C98.3225 8.58115 98.095 8.63039 97.8995 8.71384C97.7078 8.79307 97.5475 8.89651 97.4187 9.02418C97.2938 9.15161 97.2022 9.29916 97.1438 9.46682C97.0852 9.63048 97.0613 9.80616 97.0722 9.99384C97.0861 10.2334 97.1555 10.4298 97.2806 10.5828C97.4094 10.7316 97.5729 10.8563 97.7711 10.957C97.9732 11.0575 98.1985 11.1426 98.447 11.2124C98.6992 11.2779 98.9556 11.3472 99.2163 11.4202C99.4809 11.493 99.7383 11.5783 99.9884 11.676C100.242 11.7694 100.47 11.8945 100.671 12.0511C100.877 12.2075 101.044 12.4041 101.174 12.641C101.308 12.8776 101.385 13.1737 101.406 13.5291C101.428 13.9044 101.384 14.2616 101.276 14.6004C101.167 14.9353 100.996 15.2317 100.762 15.4896C100.533 15.7473 100.242 15.9564 99.8911 16.117C99.5438 16.2774 99.1425 16.3708 98.6873 16.3971C98.1282 16.4295 97.6153 16.3591 97.1485 16.1858C96.6814 16.0085 96.2762 15.7575 95.9329 15.4329L96.2364 14.8623C96.2658 14.8166 96.3016 14.7784 96.3439 14.7479C96.39 14.7132 96.441 14.6942 96.4969 14.691C96.5488 14.688 96.608 14.7066 96.6744 14.7468C96.7446 14.7828 96.8235 14.8303 96.9111 14.8894C96.9986 14.9484 97.0985 15.0127 97.2107 15.0823C97.323 15.152 97.4488 15.2148 97.5883 15.2708C97.7317 15.3266 97.8926 15.3714 98.0709 15.4051C98.2489 15.4349 98.4477 15.4434 98.6673 15.4307C98.9429 15.4147 99.1863 15.3625 99.3975 15.2742C99.6087 15.1858 99.7843 15.0695 99.9242 14.9251C100.068 14.7766 100.174 14.6041 100.243 14.4078C100.312 14.2115 100.339 13.9956 100.325 13.76C100.31 13.5004 100.238 13.2922 100.109 13.1354C99.9835 12.9744 99.8216 12.8436 99.6235 12.7429C99.4253 12.6422 99.2002 12.561 98.9483 12.4995C98.696 12.434 98.4398 12.3687 98.1796 12.3036C97.9192 12.2346 97.6621 12.1533 97.4082 12.0599C97.1544 11.9664 96.9267 11.8393 96.7251 11.6787C96.5234 11.5181 96.3553 11.3135 96.2207 11.0649C96.0899 10.812 96.0134 10.4959 95.9915 10.1166C95.9739 9.81307 96.0148 9.51621 96.1141 9.22597C96.2175 8.93551 96.3747 8.67398 96.5856 8.44139C96.8004 8.20857 97.0678 8.01678 97.3876 7.86603C97.7114 7.71505 98.087 7.62718 98.5143 7.60242C98.9935 7.57466 99.4331 7.62531 99.8333 7.75438C100.237 7.88322 100.598 8.08272 100.914 8.35288L100.664 8.92027Z" fill="white"/>
<path d="M109.848 8.66363L107.065 8.56695L106.801 16.1824L105.644 16.1421L105.908 8.52673L103.12 8.42984L103.154 7.45243L109.882 7.68622L109.848 8.66363Z" fill="white"/>
<path d="M118.359 14.0453L117.491 10.3975C117.465 10.2891 117.44 10.1645 117.415 10.0239C117.39 9.87921 117.368 9.72691 117.349 9.56695C117.223 9.87672 117.101 10.1327 116.985 10.3349L115.178 13.6137L118.359 14.0453ZM120.331 17.5341L119.44 17.4132C119.337 17.3992 119.257 17.3621 119.2 17.302C119.144 17.2419 119.105 17.17 119.084 17.0864L118.567 14.9212L114.744 14.4026L113.668 16.3516C113.634 16.4198 113.58 16.477 113.505 16.5233C113.43 16.5697 113.343 16.5861 113.244 16.5727L112.353 16.4517L116.915 8.39392L118.08 8.55201L120.331 17.5341Z" fill="white"/>
<path d="M130.242 15.7198L129.428 18.9177C128.932 19.1134 128.426 19.2261 127.911 19.2558C127.401 19.2826 126.863 19.224 126.297 19.0798C125.626 18.9089 125.048 18.6522 124.561 18.3095C124.076 17.9629 123.688 17.5547 123.4 17.0848C123.115 16.612 122.937 16.0878 122.865 15.5122C122.793 14.9366 122.837 14.3348 122.997 13.7069C123.159 13.0712 123.405 12.5169 123.736 12.0439C124.071 11.572 124.47 11.1969 124.933 10.9186C125.397 10.6364 125.919 10.4597 126.499 10.3886C127.078 10.3175 127.693 10.3648 128.345 10.5307C128.674 10.6147 128.974 10.7179 129.244 10.8404C129.515 10.959 129.759 11.0954 129.976 11.2496C130.193 11.4 130.388 11.5673 130.56 11.7514C130.733 11.9317 130.887 12.1259 131.024 12.3341L130.574 12.7643C130.504 12.829 130.425 12.8626 130.338 12.8651C130.256 12.8647 130.173 12.8231 130.091 12.7403C130.012 12.6623 129.922 12.5693 129.822 12.4612C129.721 12.353 129.593 12.2419 129.436 12.1276C129.284 12.0105 129.097 11.8967 128.873 11.7861C128.653 11.6764 128.383 11.5806 128.061 11.4987C127.592 11.3792 127.148 11.3486 126.728 11.4068C126.31 11.4612 125.93 11.5978 125.59 11.8165C125.25 12.0313 124.957 12.324 124.71 12.6944C124.464 13.061 124.277 13.4962 124.148 14.0002C124.015 14.5234 123.969 15.0112 124.011 15.4635C124.057 15.9129 124.181 16.318 124.382 16.6788C124.588 17.0368 124.87 17.3417 125.226 17.5936C125.583 17.8455 126.008 18.0341 126.5 18.1595C126.888 18.2583 127.242 18.303 127.562 18.2938C127.887 18.2817 128.213 18.2346 128.539 18.1526L129.006 16.3211L127.709 15.9908C127.635 15.9721 127.581 15.9354 127.545 15.881C127.513 15.8274 127.505 15.7697 127.521 15.7077L127.684 15.0681L130.242 15.7198Z" fill="white"/>
<path d="M136.29 17.4949C136.604 17.6141 136.895 17.6817 137.163 17.6978C137.436 17.7115 137.679 17.6797 137.892 17.6023C138.11 17.5227 138.298 17.4012 138.454 17.238C138.61 17.0747 138.733 16.8753 138.822 16.6397C139.004 16.161 138.984 15.7405 138.762 15.3782C138.54 15.0159 138.115 14.7156 137.487 14.4771L136.297 14.0258L135.146 17.0606L136.29 17.4949ZM138.43 23.0497L137.465 22.6836C137.267 22.6083 137.15 22.4763 137.115 22.2875L136.118 18.6234C136.089 18.5096 136.044 18.4197 135.983 18.3539C135.928 18.2858 135.823 18.2227 135.67 18.1645L134.845 17.8516L133.572 21.2061L132.49 20.7952L135.54 12.7566L137.812 13.6189C138.321 13.8119 138.74 14.031 139.071 14.2762C139.403 14.5177 139.652 14.7811 139.817 15.0664C139.986 15.3531 140.076 15.6568 140.087 15.9776C140.1 16.2946 140.041 16.6232 139.912 16.9635C139.804 17.2478 139.659 17.4963 139.475 17.709C139.292 17.9218 139.076 18.0946 138.829 18.2275C138.587 18.3581 138.316 18.4458 138.017 18.4905C137.721 18.5366 137.405 18.5363 137.068 18.4895C137.176 18.6206 137.253 18.7801 137.297 18.968L138.43 23.0497Z" fill="white"/>
<path d="M147.118 23.736L147.501 20.0062C147.513 19.8953 147.53 19.7694 147.552 19.6282C147.577 19.4835 147.606 19.3325 147.641 19.1753C147.42 19.426 147.221 19.6276 147.044 19.7802L144.257 22.2799L147.118 23.736ZM147.83 27.6802L147.028 27.272C146.935 27.2248 146.872 27.1635 146.839 27.0882C146.805 27.0128 146.793 26.9322 146.8 26.8464L147.025 24.6315L143.587 22.8815L141.929 24.3669C141.875 24.4202 141.805 24.4564 141.719 24.4755C141.633 24.4945 141.545 24.4814 141.456 24.436L140.654 24.0278L147.618 17.9247L148.666 18.4582L147.83 27.6802Z" fill="white"/>
<path d="M162.204 26.9274L157.326 34.0076L156.486 33.4289L160.071 28.2262C160.119 28.157 160.171 28.0841 160.229 28.0073C160.29 27.9328 160.352 27.8566 160.416 27.7788L154.935 30.5309C154.757 30.6269 154.59 30.6216 154.435 30.5149L154.297 30.4196C154.142 30.3129 154.078 30.1594 154.104 29.959L154.688 23.8034C154.587 23.9916 154.486 24.1598 154.384 24.308L150.799 29.5106L149.959 28.9319L154.838 21.8518L155.544 22.3386C155.63 22.3976 155.69 22.4512 155.725 22.4994C155.76 22.5477 155.772 22.6244 155.763 22.7297L155.206 28.7726C155.191 28.8788 155.172 28.9873 155.149 29.0979C155.13 29.2108 155.106 29.323 155.078 29.4346C155.172 29.3684 155.267 29.3049 155.362 29.2443C155.459 29.1803 155.557 29.1235 155.654 29.074L161.054 26.3756C161.146 26.3271 161.221 26.3105 161.278 26.3258C161.339 26.3433 161.412 26.3816 161.498 26.4406L162.204 26.9274Z" fill="white"/>
<path d="M165.468 36.2841C165.552 36.1933 165.648 36.1219 165.757 36.0698C165.868 36.0205 165.981 35.9938 166.094 35.9896C166.21 35.9883 166.322 36.0054 166.431 36.0411C166.543 36.0795 166.643 36.1395 166.73 36.2212C166.821 36.3057 166.891 36.4036 166.941 36.515C166.99 36.6264 167.017 36.7387 167.021 36.8517C167.025 36.9648 167.006 37.0787 166.965 37.1934C166.924 37.3081 166.861 37.4108 166.777 37.5017C166.695 37.5895 166.6 37.6567 166.491 37.7031C166.383 37.7495 166.27 37.7762 166.155 37.7832C166.042 37.7874 165.928 37.7689 165.813 37.7277C165.701 37.6837 165.6 37.6195 165.509 37.535C165.421 37.4533 165.352 37.3596 165.303 37.2538C165.26 37.1478 165.235 37.037 165.228 36.9212C165.226 36.8052 165.245 36.6913 165.283 36.5795C165.324 36.4705 165.386 36.372 165.468 36.2841Z" fill="white"/>
<path d="M173.636 50.2701L172.888 49.3711L178.789 44.4559L176.039 41.155L170.138 46.0702L169.393 45.1759L176 39.673L180.243 44.7673L173.636 50.2701Z" fill="white"/>
<path d="M184.119 58.1625C183.575 58.5082 183.021 58.7399 182.456 58.8577C181.894 58.9733 181.35 58.9783 180.823 58.8728C180.296 58.7672 179.8 58.5513 179.337 58.2252C178.879 57.9003 178.48 57.4712 178.141 56.938C177.802 56.4048 177.582 55.8619 177.482 55.3094C177.385 54.7547 177.4 54.2163 177.528 53.6942C177.655 53.172 177.891 52.681 178.233 52.2212C178.579 51.7592 179.024 51.3553 179.567 51.0096C180.111 50.6639 180.663 50.4332 181.225 50.3176C181.79 50.1998 182.336 50.1937 182.863 50.2993C183.394 50.4027 183.89 50.6158 184.351 50.9386C184.812 51.2614 185.213 51.6894 185.552 52.2226C185.891 52.7558 186.109 53.2998 186.206 53.8544C186.305 54.4125 186.289 54.9536 186.158 55.4779C186.031 56.0001 185.794 56.4921 185.448 56.9541C185.105 57.414 184.662 57.8168 184.119 58.1625ZM183.478 57.1551C183.923 56.8717 184.284 56.5565 184.561 56.2095C184.838 55.8626 185.028 55.5004 185.129 55.1231C185.234 54.7436 185.251 54.3534 185.181 53.9524C185.11 53.5514 184.951 53.1552 184.702 52.7637C184.455 52.3756 184.164 52.0648 183.831 51.8313C183.497 51.5978 183.136 51.4464 182.745 51.3771C182.361 51.3089 181.953 51.3268 181.521 51.4308C181.089 51.5348 180.651 51.7285 180.205 52.0119C179.76 52.2954 179.398 52.6106 179.121 52.9575C178.848 53.3023 178.659 53.6645 178.554 54.044C178.455 54.4247 178.44 54.8155 178.511 55.2165C178.584 55.6153 178.744 56.0088 178.991 56.3969C179.24 56.7884 179.53 57.1019 179.86 57.3376C180.194 57.571 180.553 57.7218 180.937 57.79C181.325 57.856 181.734 57.838 182.162 57.7362C182.594 57.6323 183.032 57.4385 183.478 57.1551Z" fill="white"/>
<path d="M185.405 68.3916L191.546 65.5475L190.351 62.9668C189.442 63.3351 188.633 63.6347 187.924 63.8659C187.216 64.097 186.589 64.2724 186.045 64.3921C185.501 64.5118 185.031 64.5818 184.635 64.6022C184.243 64.6208 183.905 64.6009 183.622 64.5423L185.405 68.3916ZM186.486 70.7273L184.074 71.8442C183.98 71.8879 183.89 71.8924 183.803 71.8576C183.716 71.8228 183.649 71.7545 183.602 71.6529L183.312 71.0268L185.212 70.1468L182.3 63.8584L180.716 64.5921C180.622 64.6358 180.53 64.6384 180.442 64.6C180.355 64.5652 180.289 64.4988 180.244 64.4008L179.951 63.7692L182.679 62.506L183.047 63.3009C183.154 63.3882 183.293 63.4604 183.465 63.5175C183.64 63.5728 183.864 63.5992 184.136 63.5967C184.414 63.596 184.746 63.5612 185.133 63.4923C185.52 63.4233 185.978 63.31 186.509 63.1523C187.045 62.9966 187.66 62.7913 188.353 62.5365C189.046 62.2816 189.837 61.9662 190.725 61.5901L192.871 66.2234L185.896 69.4533L186.486 70.7273Z" fill="white"/>
<path d="M188.821 80.6139L188.468 79.4983L195.791 77.1828L194.495 73.0867L187.173 75.4022L186.822 74.2924L195.02 71.7001L197.019 78.0216L188.821 80.6139Z" fill="white"/>
<path d="M199.541 89.9202L191.083 91.4665L190.874 90.3215L196.882 89.223C197.051 89.1921 197.227 89.164 197.409 89.1388C197.596 89.1128 197.794 89.0949 198.003 89.0851C197.814 89.0506 197.636 89.0099 197.469 88.9632C197.302 88.9165 197.154 88.8643 197.025 88.8064L190.439 85.9117C190.339 85.8731 190.243 85.8174 190.153 85.7445C190.062 85.6716 190.006 85.5781 189.985 85.464L189.83 84.6141L198.288 83.0678L198.497 84.2128L192.483 85.3124C192.314 85.3433 192.136 85.3718 191.95 85.3977C191.767 85.4229 191.569 85.4408 191.356 85.4514C191.549 85.4852 191.729 85.5255 191.896 85.5722C192.064 85.6228 192.214 85.6747 192.345 85.7279L198.931 88.6227C199.032 88.6612 199.128 88.7169 199.218 88.7898C199.309 88.8627 199.364 88.9562 199.385 89.0703L199.541 89.9202Z" fill="white"/>
<path d="M193.714 102.188C193.718 102.252 193.695 102.309 193.645 102.36L193.173 102.848C192.747 102.518 192.406 102.108 192.151 101.617C191.896 101.13 191.75 100.531 191.711 99.8204C191.678 99.2053 191.754 98.6404 191.938 98.1257C192.127 97.6108 192.403 97.1652 192.767 96.789C193.136 96.4126 193.584 96.1119 194.113 95.887C194.641 95.6622 195.229 95.5322 195.876 95.4973C196.523 95.4623 197.122 95.532 197.672 95.7066C198.222 95.8811 198.701 96.1417 199.108 96.4882C199.516 96.8387 199.839 97.2658 200.079 97.7696C200.322 98.2732 200.461 98.8366 200.495 99.4596C200.528 100.071 200.459 100.615 200.289 101.093C200.118 101.571 199.875 101.997 199.559 102.37L199.005 102.016C198.963 101.994 198.928 101.964 198.898 101.925C198.872 101.891 198.857 101.842 198.854 101.778C198.85 101.706 198.883 101.616 198.953 101.508C199.027 101.4 199.108 101.259 199.195 101.086C199.282 100.913 199.356 100.699 199.418 100.443C199.485 100.187 199.508 99.8755 199.488 99.5081C199.464 99.0647 199.364 98.6635 199.189 98.3045C199.017 97.9452 198.778 97.6397 198.472 97.3878C198.166 97.14 197.8 96.9535 197.372 96.8284C196.945 96.7033 196.467 96.655 195.94 96.6835C195.405 96.7125 194.932 96.8142 194.521 96.9886C194.11 97.1671 193.766 97.396 193.488 97.6754C193.215 97.9585 193.012 98.2839 192.88 98.6516C192.748 99.0233 192.693 99.4188 192.716 99.8382C192.73 100.094 192.756 100.323 192.795 100.525C192.838 100.731 192.896 100.918 192.97 101.086C193.043 101.259 193.132 101.416 193.236 101.559C193.344 101.705 193.47 101.848 193.613 101.989C193.677 102.054 193.711 102.12 193.714 102.188Z" fill="white"/>
</svg>
