<svg width="180" height="173" viewBox="0 0 180 173" fill="none" xmlns="http://www.w3.org/2000/svg">
<path d="M166.801 90.9155C166.779 91.2917 166.803 91.6181 166.873 91.895C166.944 92.1719 167.051 92.4009 167.195 92.582C167.343 92.7679 167.522 92.9078 167.73 93.0017C167.943 93.0959 168.178 93.1504 168.436 93.1654C168.939 93.1946 169.346 93.0385 169.657 92.6974C169.972 92.3565 170.151 91.828 170.192 91.1121L170.314 89.005L166.923 88.8085L166.801 90.9155ZM174.576 89.2519L171.252 89.0593L171.151 90.7994C171.13 91.1709 171.152 91.495 171.218 91.7716C171.283 92.0528 171.384 92.2859 171.518 92.471C171.653 92.6607 171.82 92.8045 172.019 92.9024C172.222 93.0006 172.446 93.0567 172.691 93.0709C173.266 93.1043 173.695 92.9564 173.978 92.6272C174.265 92.2983 174.43 91.7714 174.472 91.0463L174.576 89.2519ZM175.512 91.1066C175.477 91.7047 175.389 92.2156 175.246 92.6393C175.103 93.0675 174.915 93.4135 174.681 93.6773C174.447 93.9456 174.168 94.1363 173.843 94.2493C173.523 94.3626 173.166 94.4078 172.771 94.385C172.531 94.3711 172.302 94.3192 172.085 94.2293C171.872 94.1442 171.674 94.0213 171.492 93.8608C171.311 93.7002 171.15 93.4999 171.009 93.2599C170.873 93.0247 170.766 92.7502 170.688 92.4366C170.511 93.1447 170.224 93.6668 169.827 94.003C169.434 94.344 168.934 94.4969 168.327 94.4617C167.915 94.4378 167.543 94.339 167.212 94.1652C166.881 93.996 166.602 93.757 166.374 93.4483C166.146 93.1441 165.977 92.7751 165.865 92.3413C165.759 91.9077 165.721 91.4191 165.753 90.8753L165.952 87.436L175.692 88.0003L175.512 91.1066Z" fill="#A6A8A7"/>
<path d="M167.81 99.8315C167.886 99.2781 167.922 98.8007 167.917 98.3992C167.915 98.003 167.88 97.6722 167.81 97.407C167.74 97.1463 167.638 96.947 167.505 96.8092C167.371 96.6758 167.21 96.593 167.022 96.5609C166.843 96.5303 166.684 96.533 166.544 96.569C166.405 96.6049 166.284 96.6649 166.182 96.7488C166.084 96.8379 166.003 96.9461 165.94 97.0735C165.881 97.206 165.837 97.3506 165.811 97.5072C165.775 97.7175 165.762 97.9133 165.772 98.0947C165.787 98.2768 165.822 98.4508 165.877 98.6167C165.93 98.7871 166.001 98.9512 166.089 99.109C166.177 99.2713 166.281 99.4318 166.401 99.5905L167.81 99.8315ZM171.248 96.4477C171.546 96.8854 171.748 97.3366 171.853 97.8012C171.957 98.2658 171.965 98.762 171.874 99.29C171.809 99.6703 171.689 99.9974 171.513 100.271C171.337 100.545 171.12 100.764 170.862 100.927C170.604 101.09 170.307 101.196 169.972 101.244C169.637 101.293 169.279 101.285 168.899 101.219L164.55 100.476L164.641 99.9458C164.661 99.8294 164.694 99.743 164.74 99.6865C164.791 99.6307 164.876 99.5945 164.994 99.5779L165.661 99.5538C165.526 99.3465 165.408 99.1468 165.308 98.9546C165.211 98.7632 165.135 98.5659 165.077 98.3627C165.024 98.1602 164.994 97.9478 164.986 97.7254C164.973 97.5067 164.988 97.2676 165.033 97.0081C165.078 96.7441 165.156 96.5019 165.267 96.2815C165.383 96.0619 165.53 95.8774 165.707 95.7282C165.884 95.5834 166.093 95.4787 166.334 95.4141C166.579 95.3547 166.856 95.3513 167.165 95.4041C167.433 95.45 167.678 95.5678 167.899 95.7575C168.124 95.948 168.305 96.2253 168.44 96.5892C168.576 96.9532 168.659 97.4117 168.689 97.9648C168.723 98.5186 168.683 99.1841 168.568 99.9611L169.099 100.052C169.627 100.142 170.044 100.096 170.352 99.9138C170.664 99.7323 170.857 99.4223 170.932 98.9838C170.982 98.6885 170.987 98.4337 170.945 98.2194C170.907 98.0103 170.854 97.8239 170.785 97.6602C170.72 97.5017 170.659 97.3623 170.601 97.2419C170.547 97.1268 170.529 97.0177 170.547 96.9148C170.56 96.8343 170.592 96.7684 170.643 96.7171C170.697 96.6666 170.759 96.6266 170.829 96.597L171.248 96.4477Z" fill="#A6A8A7"/>
<path d="M167.954 113.979L161.378 111.899L164.176 103.051L170.752 105.131L170.385 106.293L164.685 104.49L163.837 107.171L169.537 108.974L169.169 110.136L163.47 108.333L162.622 111.014L168.322 112.817L167.954 113.979Z" fill="#A6A8A7"/>
<path d="M164.547 120.108C164.643 120.451 164.672 120.821 164.633 121.216C164.591 121.615 164.449 122.045 164.205 122.507C164.01 122.876 163.793 123.177 163.552 123.409C163.315 123.643 163.073 123.816 162.825 123.926C162.575 124.04 162.328 124.095 162.084 124.09C161.843 124.09 161.62 124.037 161.415 123.929C161.294 123.865 161.179 123.778 161.067 123.668C160.954 123.562 160.86 123.433 160.786 123.281C160.713 123.129 160.661 122.956 160.63 122.76C160.6 122.565 160.608 122.345 160.654 122.103C160.332 122.431 159.984 122.637 159.611 122.723C159.235 122.812 158.861 122.758 158.488 122.561C158.207 122.412 157.986 122.214 157.825 121.965C157.668 121.717 157.566 121.443 157.52 121.142C157.478 120.842 157.491 120.526 157.559 120.192C157.625 119.863 157.741 119.541 157.906 119.228C158.01 119.032 158.134 118.84 158.278 118.655C158.42 118.473 158.58 118.306 158.758 118.154C158.94 118.003 159.135 117.873 159.342 117.761C159.548 117.654 159.768 117.578 160.002 117.532L160.235 118.04C160.278 118.124 160.276 118.21 160.229 118.299C160.191 118.371 160.119 118.43 160.012 118.477C159.907 118.529 159.785 118.596 159.645 118.676C159.505 118.756 159.358 118.865 159.202 119.004C159.049 119.149 158.906 119.348 158.772 119.601C158.656 119.821 158.578 120.032 158.539 120.232C158.502 120.438 158.5 120.627 158.533 120.798C158.565 120.97 158.631 121.122 158.73 121.257C158.828 121.391 158.956 121.499 159.112 121.582C159.413 121.741 159.723 121.742 160.041 121.587C160.357 121.435 160.65 121.105 160.919 120.595L161.284 119.903L161.995 120.278L161.629 120.97C161.513 121.191 161.43 121.401 161.381 121.601C161.336 121.803 161.32 121.988 161.335 122.154C161.35 122.321 161.396 122.466 161.475 122.59C161.557 122.716 161.665 122.813 161.797 122.883C161.918 122.947 162.047 122.979 162.185 122.98C162.321 122.985 162.459 122.953 162.598 122.883C162.736 122.817 162.872 122.714 163.007 122.575C163.142 122.436 163.268 122.256 163.384 122.035C163.511 121.794 163.595 121.577 163.636 121.383C163.675 121.193 163.697 121.025 163.702 120.878C163.705 120.736 163.702 120.617 163.692 120.519C163.682 120.421 163.69 120.346 163.718 120.294C163.746 120.242 163.779 120.203 163.818 120.178C163.855 120.156 163.916 120.142 164.002 120.136L164.547 120.108Z" fill="#A6A8A7"/>
<path d="M156.205 128.368C156.498 127.893 156.723 127.47 156.881 127.101C157.039 126.738 157.14 126.421 157.184 126.15C157.224 125.883 157.212 125.66 157.146 125.48C157.077 125.304 156.964 125.163 156.805 125.058C156.653 124.958 156.506 124.896 156.364 124.872C156.222 124.849 156.087 124.855 155.96 124.89C155.834 124.932 155.717 124.999 155.607 125.09C155.499 125.187 155.402 125.302 155.314 125.434C155.196 125.612 155.105 125.786 155.042 125.956C154.982 126.129 154.943 126.302 154.926 126.476C154.907 126.654 154.905 126.832 154.922 127.012C154.937 127.196 154.967 127.385 155.013 127.579L156.205 128.368ZM160.716 126.661C160.812 127.182 160.814 127.676 160.723 128.143C160.631 128.61 160.437 129.067 160.141 129.514C159.928 129.835 159.686 130.086 159.415 130.266C159.143 130.445 158.857 130.557 158.555 130.602C158.253 130.647 157.939 130.624 157.612 130.534C157.286 130.443 156.962 130.291 156.64 130.078L152.962 127.641L153.259 127.193C153.324 127.095 153.389 127.029 153.455 126.996C153.524 126.966 153.616 126.967 153.731 126.999L154.351 127.246C154.311 127.002 154.284 126.772 154.269 126.555C154.259 126.341 154.268 126.13 154.298 125.921C154.331 125.714 154.389 125.508 154.471 125.301C154.548 125.096 154.658 124.883 154.804 124.664C154.952 124.44 155.121 124.25 155.312 124.094C155.506 123.939 155.715 123.83 155.938 123.765C156.158 123.704 156.391 123.693 156.638 123.731C156.886 123.775 157.141 123.884 157.402 124.057C157.629 124.208 157.805 124.414 157.931 124.677C158.06 124.942 158.113 125.269 158.09 125.656C158.068 126.044 157.958 126.497 157.762 127.015C157.57 127.536 157.264 128.128 156.846 128.793L157.294 129.09C157.741 129.386 158.142 129.512 158.497 129.47C158.855 129.429 159.157 129.224 159.403 128.853C159.568 128.603 159.675 128.372 159.724 128.159C159.774 127.953 159.8 127.761 159.803 127.583C159.808 127.412 159.808 127.259 159.804 127.126C159.801 126.999 159.828 126.892 159.886 126.805C159.931 126.737 159.987 126.689 160.054 126.663C160.124 126.639 160.197 126.627 160.272 126.628L160.716 126.661Z" fill="#A6A8A7"/>
<path d="M153.811 137.245C153.848 137.357 153.859 137.474 153.842 137.595C153.825 137.716 153.78 137.823 153.705 137.914L153.108 138.648L152.201 135.6C152.14 135.409 152.104 135.234 152.094 135.073C152.088 134.916 152.116 134.752 152.179 134.581C151.996 134.712 151.808 134.796 151.614 134.832C151.425 134.871 151.217 134.874 150.991 134.842L147.636 134.445L148.169 133.79C148.306 133.621 148.441 133.514 148.571 133.468C148.702 133.423 148.848 133.41 149.008 133.429L151.518 133.743C151.927 133.802 152.266 133.665 152.536 133.335L153.004 132.759L150.597 130.798L151.367 129.853L156.72 134.214L155.95 135.159L153.638 133.275L153.225 133.782C152.996 134.063 152.936 134.381 153.046 134.734L153.811 137.245Z" fill="#A6A8A7"/>
<path d="M146.562 139.946C146.944 139.539 147.249 139.17 147.477 138.839C147.705 138.515 147.867 138.224 147.963 137.968C148.056 137.714 148.088 137.493 148.06 137.303C148.027 137.117 147.944 136.957 147.809 136.822C147.681 136.693 147.549 136.604 147.414 136.552C147.28 136.501 147.146 136.48 147.015 136.49C146.883 136.506 146.755 136.547 146.63 136.615C146.505 136.689 146.386 136.782 146.273 136.894C146.123 137.045 145.999 137.197 145.903 137.351C145.81 137.509 145.737 137.671 145.686 137.838C145.632 138.008 145.595 138.183 145.575 138.362C145.553 138.545 145.545 138.736 145.551 138.935L146.562 139.946ZM151.324 139.171C151.314 139.701 151.218 140.185 151.035 140.625C150.852 141.065 150.571 141.474 150.192 141.853C149.92 142.126 149.632 142.323 149.331 142.445C149.029 142.567 148.726 142.62 148.421 142.604C148.116 142.588 147.812 142.503 147.511 142.349C147.209 142.195 146.922 141.981 146.649 141.708L143.529 138.589L143.91 138.208C143.993 138.125 144.07 138.074 144.141 138.054C144.215 138.038 144.304 138.057 144.41 138.112L144.969 138.478C144.978 138.231 144.998 138 145.027 137.785C145.059 137.573 145.11 137.367 145.181 137.168C145.254 136.973 145.352 136.782 145.474 136.596C145.59 136.409 145.741 136.223 145.927 136.037C146.116 135.848 146.32 135.695 146.538 135.58C146.76 135.467 146.986 135.402 147.217 135.382C147.445 135.366 147.676 135.402 147.91 135.488C148.145 135.581 148.373 135.739 148.594 135.96C148.787 136.153 148.918 136.39 148.989 136.673C149.063 136.958 149.05 137.289 148.95 137.664C148.851 138.04 148.653 138.462 148.358 138.93C148.066 139.402 147.649 139.922 147.106 140.49L147.487 140.871C147.865 141.249 148.233 141.453 148.589 141.482C148.949 141.514 149.286 141.373 149.6 141.058C149.812 140.847 149.963 140.641 150.053 140.442C150.143 140.25 150.207 140.067 150.245 139.893C150.284 139.726 150.314 139.577 150.337 139.446C150.359 139.32 150.407 139.221 150.481 139.147C150.539 139.089 150.603 139.054 150.674 139.041C150.748 139.032 150.821 139.035 150.895 139.051L151.324 139.171Z" fill="#A6A8A7"/>
<path d="M145.784 144.958C145.739 145.312 145.623 145.663 145.433 146.012C145.241 146.364 144.943 146.705 144.539 147.037C144.216 147.302 143.899 147.494 143.587 147.615C143.278 147.74 142.988 147.805 142.717 147.81C142.442 147.819 142.193 147.773 141.971 147.674C141.747 147.581 141.563 147.445 141.416 147.266C141.329 147.161 141.256 147.036 141.196 146.891C141.133 146.75 141.096 146.594 141.087 146.426C141.078 146.257 141.097 146.077 141.145 145.885C141.193 145.693 141.285 145.494 141.422 145.288C140.998 145.466 140.597 145.521 140.22 145.455C139.839 145.392 139.515 145.197 139.247 144.871C139.046 144.625 138.919 144.356 138.867 144.064C138.818 143.775 138.831 143.483 138.905 143.187C138.982 142.895 139.117 142.608 139.309 142.327C139.498 142.049 139.729 141.798 140.003 141.573C140.174 141.432 140.363 141.304 140.568 141.189C140.769 141.076 140.981 140.984 141.204 140.913C141.43 140.845 141.661 140.8 141.895 140.778C142.126 140.758 142.358 140.773 142.592 140.822L142.61 141.38C142.617 141.474 142.581 141.553 142.504 141.616C142.441 141.668 142.351 141.695 142.235 141.696C142.118 141.704 141.98 141.718 141.82 141.738C141.66 141.757 141.481 141.801 141.284 141.869C141.087 141.943 140.878 142.071 140.656 142.252C140.464 142.41 140.31 142.574 140.197 142.744C140.083 142.92 140.008 143.093 139.972 143.263C139.935 143.434 139.937 143.6 139.976 143.762C140.015 143.924 140.09 144.073 140.202 144.21C140.418 144.473 140.703 144.595 141.057 144.575C141.407 144.558 141.804 144.366 142.25 144.001L142.855 143.504L143.365 144.125L142.76 144.622C142.567 144.78 142.409 144.942 142.286 145.107C142.166 145.276 142.081 145.44 142.03 145.599C141.978 145.759 141.965 145.911 141.99 146.055C142.017 146.203 142.078 146.335 142.173 146.45C142.26 146.556 142.366 146.636 142.493 146.69C142.616 146.747 142.756 146.771 142.912 146.76C143.064 146.753 143.23 146.711 143.408 146.635C143.586 146.559 143.772 146.442 143.965 146.283C144.176 146.111 144.337 145.943 144.45 145.78C144.559 145.62 144.645 145.473 144.706 145.341C144.764 145.211 144.807 145.099 144.836 145.005C144.865 144.911 144.902 144.845 144.947 144.808C144.993 144.771 145.039 144.748 145.085 144.739C145.127 144.734 145.189 144.745 145.27 144.772L145.784 144.958Z" fill="#A6A8A7"/>
<path d="M135.247 153.62L131.459 147.856L132.478 147.187L134.25 149.884L137.015 148.067L135.243 145.37L136.262 144.7L140.049 150.464L139.031 151.134L137.52 148.835L134.755 150.652L136.265 152.951L135.247 153.62Z" fill="#A6A8A7"/>
<path d="M127.112 153.745C127.602 153.477 128.007 153.222 128.327 152.979C128.645 152.743 128.89 152.518 129.062 152.304C129.23 152.092 129.329 151.892 129.361 151.703C129.389 151.516 129.36 151.338 129.274 151.167C129.192 151.005 129.096 150.879 128.984 150.788C128.872 150.697 128.752 150.635 128.624 150.603C128.494 150.577 128.359 150.577 128.219 150.602C128.077 150.633 127.935 150.684 127.793 150.755C127.602 150.851 127.437 150.958 127.298 151.074C127.16 151.194 127.041 151.325 126.94 151.468C126.835 151.612 126.745 151.767 126.67 151.931C126.592 152.098 126.524 152.277 126.468 152.468L127.112 153.745ZM131.877 154.499C131.702 154.999 131.459 155.429 131.147 155.789C130.836 156.149 130.441 156.45 129.963 156.691C129.619 156.865 129.284 156.963 128.959 156.984C128.635 157.006 128.33 156.961 128.045 156.85C127.761 156.74 127.499 156.564 127.261 156.323C127.023 156.082 126.817 155.79 126.643 155.445L124.656 151.506L125.137 151.264C125.242 151.211 125.331 151.186 125.404 151.19C125.479 151.198 125.559 151.244 125.642 151.329L126.058 151.851C126.145 151.62 126.235 151.406 126.33 151.211C126.427 151.02 126.54 150.841 126.669 150.674C126.8 150.511 126.953 150.36 127.127 150.222C127.295 150.081 127.497 149.952 127.732 149.833C127.971 149.712 128.212 149.631 128.456 149.59C128.701 149.553 128.937 149.561 129.162 149.615C129.384 149.671 129.592 149.777 129.787 149.932C129.981 150.094 130.148 150.315 130.289 150.594C130.412 150.838 130.462 151.104 130.441 151.395C130.422 151.689 130.306 151.999 130.094 152.325C129.882 152.65 129.563 152.989 129.136 153.342C128.71 153.699 128.151 154.062 127.459 154.432L127.701 154.912C127.942 155.39 128.227 155.699 128.556 155.838C128.888 155.981 129.252 155.952 129.649 155.752C129.917 155.617 130.124 155.469 130.272 155.308C130.418 155.153 130.536 155 130.627 154.847C130.715 154.7 130.791 154.568 130.854 154.45C130.914 154.338 130.991 154.259 131.084 154.212C131.157 154.175 131.229 154.162 131.3 154.172C131.373 154.186 131.442 154.212 131.508 154.25L131.877 154.499Z" fill="#A6A8A7"/>
<path d="M117.06 161.442C117.031 161.557 116.976 161.66 116.897 161.753C116.818 161.846 116.722 161.911 116.61 161.948L115.711 162.244L116.591 159.188C116.642 158.994 116.707 158.827 116.785 158.687C116.864 158.551 116.977 158.428 117.122 158.318C116.897 158.33 116.693 158.299 116.511 158.225C116.331 158.155 116.154 158.046 115.981 157.898L113.369 155.753L114.171 155.49C114.378 155.422 114.549 155.404 114.684 155.436C114.819 155.468 114.949 155.535 115.073 155.638L117.017 157.256C117.33 157.526 117.689 157.594 118.095 157.461L118.8 157.229L117.83 154.28L118.988 153.899L121.144 160.458L119.986 160.838L119.055 158.005L118.434 158.209C118.089 158.323 117.868 158.558 117.77 158.915L117.06 161.442Z" fill="#A6A8A7"/>
<path d="M108.225 163.994L110.003 154.432C110.022 154.335 110.057 154.252 110.107 154.185C110.153 154.119 110.237 154.072 110.361 154.044L111.238 153.845L110.614 156.793L114.825 162.499L113.803 162.73C113.701 162.753 113.615 162.745 113.545 162.705C113.472 162.67 113.418 162.624 113.382 162.567L110.622 158.739C110.509 158.569 110.405 158.388 110.311 158.195C110.296 158.417 110.274 158.629 110.245 158.831L109.457 163.457C109.447 163.533 109.416 163.601 109.364 163.659C109.308 163.723 109.241 163.764 109.161 163.782L108.225 163.994Z" fill="#A6A8A7"/>
<path d="M100.239 158.094L101.394 157.946C101.493 157.933 101.575 157.948 101.64 157.99C101.701 158.037 101.754 158.09 101.798 158.149L103.863 160.609C103.872 160.544 103.885 160.479 103.899 160.413C103.91 160.352 103.93 160.294 103.959 160.24L105.255 157.706C105.292 157.638 105.334 157.573 105.382 157.512C105.425 157.456 105.491 157.422 105.581 157.411L106.655 157.274L104.707 161.092L107.435 164.127L106.28 164.275C106.181 164.287 106.107 164.281 106.058 164.255C106.009 164.229 105.963 164.189 105.919 164.135L103.91 161.784C103.89 161.919 103.85 162.052 103.789 162.184L102.593 164.533C102.561 164.601 102.524 164.656 102.484 164.698C102.44 164.745 102.384 164.773 102.316 164.781L101.209 164.923L103.094 161.36L100.239 158.094Z" fill="#A6A8A7"/>
<path d="M93.5656 165.217L93.4059 158.322L94.6242 158.294L94.699 161.52L98.007 161.444L97.9323 158.217L99.1506 158.189L99.3104 165.084L98.092 165.112L98.0283 162.363L94.7203 162.439L94.784 165.189L93.5656 165.217Z" fill="#A6A8A7"/>
<path d="M85.3568 162.007C85.3308 162.287 85.3478 162.547 85.4077 162.785C85.4627 163.027 85.5593 163.239 85.6975 163.42C85.8307 163.606 86.0015 163.754 86.2101 163.864C86.4182 163.979 86.6601 164.05 86.9358 164.075C87.5143 164.129 87.9888 164.002 88.3592 163.694C88.7247 163.391 88.9758 162.945 89.1125 162.356L85.3568 162.007ZM84.6795 158.696C84.8454 158.529 85.0386 158.388 85.2591 158.272C85.4791 158.16 85.7129 158.072 85.9604 158.008C86.2034 157.944 86.4533 157.904 86.7102 157.887C86.9675 157.865 87.2204 157.866 87.469 157.889C87.9435 157.933 88.3746 158.052 88.7622 158.248C89.1448 158.448 89.4687 158.715 89.7339 159.049C89.9943 159.388 90.1846 159.793 90.3049 160.265C90.4252 160.736 90.4579 161.268 90.403 161.86C90.3585 162.339 90.2447 162.78 90.0615 163.182C89.8737 163.584 89.628 163.924 89.3242 164.201C89.0199 164.483 88.661 164.691 88.2473 164.826C87.8333 164.965 87.3777 165.012 86.8805 164.966C86.4692 164.928 86.0961 164.822 85.7611 164.65C85.4212 164.482 85.1368 164.255 84.908 163.969C84.6743 163.687 84.503 163.348 84.394 162.95C84.2846 162.557 84.2526 162.117 84.2979 161.629C84.3155 161.439 84.3476 161.314 84.3942 161.255C84.4407 161.195 84.5205 161.171 84.6335 161.181L89.223 161.607C89.2498 161.172 89.226 160.789 89.1519 160.459C89.0732 160.128 88.949 159.845 88.7793 159.61C88.6092 159.38 88.3981 159.199 88.146 159.066C87.8936 158.938 87.6046 158.859 87.2792 158.828C86.9764 158.8 86.7134 158.81 86.4902 158.858C86.262 158.909 86.065 158.969 85.8993 159.035C85.7336 159.102 85.5956 159.164 85.4853 159.223C85.3702 159.285 85.2741 159.312 85.1973 159.305C85.0979 159.296 85.0246 159.25 84.9775 159.169L84.6795 158.696Z" fill="#A6A8A7"/>
<path d="M56.5934 148.951C56.2697 148.758 55.9689 148.629 55.6908 148.564C55.4127 148.499 55.16 148.488 54.9329 148.533C54.6995 148.578 54.4931 148.672 54.3137 148.814C54.132 148.959 53.975 149.143 53.8426 149.365C53.5847 149.798 53.5355 150.231 53.6949 150.664C53.8519 151.101 54.2385 151.503 54.8546 151.87L56.6679 152.95L58.4067 150.031L56.5934 148.951ZM54.4831 156.618L56.187 153.757L54.6896 152.865C54.3699 152.675 54.0721 152.545 53.7963 152.476C53.5167 152.404 53.2636 152.386 53.0372 152.42C52.8069 152.452 52.6024 152.533 52.4238 152.665C52.2428 152.8 52.0896 152.973 51.9642 153.183C51.6692 153.678 51.6025 154.127 51.7641 154.53C51.9234 154.937 52.315 155.326 52.9389 155.698L54.4831 156.618ZM52.4058 156.593C51.8911 156.286 51.4787 155.972 51.1686 155.649C50.8547 155.325 50.6345 154.998 50.5082 154.67C50.3779 154.338 50.3375 154.003 50.3871 153.662C50.4343 153.326 50.5589 152.988 50.761 152.649C50.8841 152.442 51.0358 152.263 51.2159 152.111C51.3898 151.961 51.5898 151.843 51.8161 151.756C52.0423 151.669 52.2944 151.618 52.5722 151.604C52.8439 151.591 53.1367 151.623 53.4506 151.699C52.9042 151.215 52.5733 150.72 52.4581 150.212C52.3366 149.707 52.4315 149.193 52.7428 148.67C52.9542 148.315 53.2133 148.031 53.5201 147.818C53.823 147.602 54.1639 147.464 54.5428 147.405C54.9178 147.343 55.3234 147.362 55.7597 147.464C56.1936 147.569 56.6445 147.761 57.1125 148.04L60.0722 149.803L55.0789 158.185L52.4058 156.593Z" fill="#A6A8A7"/>
<path d="M48.1999 145.687C48.6551 146.011 49.0617 146.264 49.4199 146.445C49.7717 146.627 50.0813 146.749 50.3487 146.81C50.6124 146.868 50.8362 146.87 51.02 146.816C51.2001 146.759 51.3479 146.655 51.4634 146.504C51.5734 146.359 51.6448 146.217 51.6776 146.076C51.7104 145.936 51.7132 145.801 51.686 145.672C51.6525 145.544 51.5939 145.422 51.5103 145.307C51.4203 145.193 51.3122 145.088 51.1858 144.991C51.0161 144.862 50.8484 144.76 50.6828 144.685C50.5145 144.614 50.3442 144.564 50.1719 144.536C49.996 144.505 49.8177 144.492 49.637 144.497C49.4527 144.499 49.2624 144.517 49.0661 144.55L48.1999 145.687ZM49.607 150.301C49.0809 150.363 48.5877 150.333 48.1274 150.21C47.6671 150.088 47.2239 149.865 46.7978 149.54C46.4909 149.307 46.2567 149.048 46.0954 148.766C45.934 148.483 45.8408 148.19 45.8158 147.885C45.7908 147.581 45.8344 147.269 45.9466 146.949C46.0587 146.63 46.2317 146.317 46.4654 146.01L49.1382 142.499L49.5661 142.825C49.66 142.897 49.7213 142.966 49.7498 143.034C49.7756 143.105 49.7686 143.196 49.7287 143.309L49.4411 143.911C49.6873 143.887 49.9189 143.876 50.1359 143.875C50.3501 143.879 50.5605 143.902 50.7672 143.945C50.9711 143.992 51.1735 144.064 51.3743 144.159C51.5743 144.249 51.779 144.373 51.9885 144.533C52.2015 144.695 52.3799 144.877 52.5237 145.077C52.6648 145.282 52.7603 145.497 52.8104 145.724C52.8569 145.947 52.8529 146.181 52.7985 146.425C52.7377 146.669 52.6124 146.916 52.4227 147.166C52.2577 147.382 52.04 147.544 51.7696 147.652C51.4965 147.764 51.1672 147.795 50.7817 147.747C50.3962 147.699 49.9515 147.56 49.4475 147.33C48.9408 147.104 48.3695 146.761 47.7338 146.299L47.408 146.727C47.0835 147.153 46.9308 147.545 46.95 147.902C46.9665 148.262 47.1516 148.577 47.5055 148.847C47.7439 149.028 47.9677 149.15 48.1769 149.213C48.3798 149.276 48.5697 149.315 48.7466 149.33C48.9172 149.346 49.0692 149.356 49.2026 149.36C49.3296 149.366 49.4347 149.4 49.5177 149.463C49.5827 149.513 49.6263 149.572 49.6485 149.64C49.668 149.712 49.6747 149.785 49.6687 149.861L49.607 150.301Z" fill="#A6A8A7"/>
<path d="M35.6184 139.297L40.4952 134.42L47.0571 140.982L42.1802 145.859L41.3185 144.997L45.5454 140.77L43.5571 138.782L39.3302 143.009L38.4684 142.147L42.6954 137.92L40.7071 135.932L36.4801 140.159L35.6184 139.297Z" fill="#A6A8A7"/>
<path d="M31.7644 133.452C31.4155 133.38 31.0747 133.235 30.742 133.019C30.4066 132.798 30.0901 132.474 29.7924 132.045C29.5542 131.702 29.3874 131.37 29.2919 131.05C29.1927 130.732 29.1512 130.437 29.1675 130.166C29.1812 129.892 29.2464 129.647 29.3632 129.434C29.4737 129.219 29.6241 129.045 29.8142 128.913C29.9261 128.836 30.0564 128.773 30.2054 128.725C30.3517 128.673 30.5093 128.649 30.6781 128.653C30.8469 128.658 31.025 128.691 31.2126 128.755C31.4001 128.818 31.591 128.926 31.7853 129.078C31.6423 128.641 31.6189 128.238 31.7151 127.867C31.8088 127.492 32.0289 127.185 32.3757 126.944C32.6366 126.763 32.9148 126.658 33.2102 126.63C33.5018 126.604 33.7921 126.64 34.081 126.738C34.3662 126.838 34.6411 126.995 34.9058 127.209C35.1679 127.42 35.4 127.67 35.6019 127.961C35.7288 128.144 35.8414 128.342 35.9399 128.555C36.0358 128.765 36.1105 128.984 36.1639 129.212C36.2136 129.443 36.24 129.676 36.2432 129.911C36.2439 130.143 36.2105 130.373 36.143 130.603L35.5854 130.575C35.4909 130.575 35.4152 130.533 35.3583 130.451C35.3117 130.384 35.2923 130.293 35.3002 130.177C35.3017 130.059 35.2991 129.92 35.2923 129.759C35.2854 129.598 35.2562 129.417 35.2045 129.215C35.1465 129.012 35.036 128.793 34.8729 128.559C34.7305 128.354 34.5794 128.188 34.4196 128.061C34.2535 127.933 34.0869 127.844 33.9197 127.795C33.7526 127.745 33.5868 127.733 33.4223 127.759C33.2579 127.785 33.1029 127.848 32.9575 127.949C32.6779 128.143 32.5339 128.417 32.5255 128.771C32.5145 129.121 32.6734 129.533 33.0022 130.007L33.4488 130.65L32.7889 131.108L32.3423 130.465C32.1999 130.26 32.0513 130.09 31.8964 129.954C31.7377 129.821 31.581 129.723 31.4262 129.659C31.2713 129.595 31.121 129.57 30.9752 129.582C30.8257 129.598 30.6894 129.648 30.5663 129.734C30.4545 129.811 30.3664 129.911 30.3019 130.033C30.2349 130.152 30.2004 130.289 30.1983 130.445C30.1937 130.598 30.222 130.766 30.2834 130.95C30.3448 131.134 30.4467 131.328 30.5891 131.533C30.7445 131.757 30.8989 131.932 31.0523 132.057C31.2032 132.179 31.3423 132.276 31.4696 132.348C31.5943 132.416 31.7023 132.468 31.7936 132.504C31.885 132.54 31.9475 132.582 31.9811 132.631C32.0148 132.679 32.0339 132.727 32.0386 132.773C32.0407 132.816 32.0248 132.877 31.991 132.955L31.7644 133.452Z" fill="#A6A8A7"/>
<path d="M28.2759 122.26C28.5632 122.739 28.8346 123.134 29.0901 123.443C29.3394 123.751 29.5743 123.987 29.7948 124.15C30.0132 124.309 30.2174 124.4 30.4074 124.424C30.5952 124.445 30.7724 124.408 30.939 124.316C31.0976 124.227 31.2201 124.125 31.3065 124.01C31.3928 123.894 31.4494 123.772 31.4762 123.643C31.4968 123.512 31.4919 123.377 31.4613 123.238C31.4247 123.097 31.3677 122.958 31.2904 122.819C31.1867 122.633 31.074 122.472 30.9522 122.337C30.8264 122.204 30.6904 122.091 30.5439 121.995C30.3953 121.896 30.2372 121.813 30.0696 121.745C29.8998 121.673 29.7184 121.613 29.5252 121.565L28.2759 122.26ZM27.7164 127.052C27.2098 126.897 26.7701 126.672 26.3973 126.375C26.0246 126.079 25.708 125.697 25.4476 125.229C25.26 124.892 25.1489 124.561 25.1143 124.238C25.0797 123.914 25.1119 123.608 25.2108 123.319C25.3098 123.03 25.4748 122.762 25.7056 122.514C25.9364 122.266 26.2204 122.048 26.5576 121.861L30.4128 119.715L30.6743 120.185C30.7317 120.289 30.7599 120.377 30.7591 120.45C30.7543 120.525 30.7112 120.606 30.6297 120.693L30.1247 121.13C30.3598 121.207 30.5767 121.289 30.7756 121.376C30.9705 121.465 31.154 121.57 31.326 121.693C31.4941 121.817 31.6509 121.964 31.7965 122.132C31.9439 122.294 32.0816 122.49 32.2096 122.72C32.3398 122.954 32.4305 123.192 32.4819 123.434C32.5292 123.678 32.5305 123.913 32.4856 124.141C32.4386 124.364 32.3413 124.577 32.1938 124.778C32.0401 124.978 31.8264 125.154 31.5527 125.307C31.3147 125.439 31.0502 125.5 30.7593 125.491C30.4643 125.484 30.1499 125.381 29.8161 125.182C29.4822 124.983 29.1304 124.678 28.7607 124.266C28.387 123.855 28.0013 123.312 27.6036 122.634L27.1336 122.896C26.6656 123.156 26.3689 123.454 26.2434 123.789C26.1141 124.125 26.1575 124.488 26.3738 124.877C26.5195 125.139 26.6757 125.34 26.8424 125.481C27.003 125.62 27.1613 125.732 27.3175 125.817C27.4674 125.899 27.6026 125.97 27.723 126.027C27.8372 126.083 27.9197 126.157 27.9705 126.248C28.0102 126.319 28.0265 126.391 28.0195 126.462C28.0086 126.536 27.9853 126.606 27.9496 126.673L27.7164 127.052Z" fill="#A6A8A7"/>
<path d="M21.5081 116.059C21.3912 116.04 21.2829 115.996 21.1832 115.925C21.0834 115.854 21.0102 115.765 20.9634 115.657L20.5883 114.788L23.7108 115.39C23.9082 115.423 24.0803 115.473 24.2271 115.538C24.3697 115.605 24.5023 115.706 24.6248 115.841C24.5926 115.617 24.6052 115.412 24.6625 115.224C24.7156 115.038 24.8084 114.852 24.9408 114.666L26.8419 111.872L27.1765 112.647C27.2629 112.847 27.2961 113.016 27.2762 113.153C27.2564 113.29 27.201 113.425 27.1102 113.559L25.6729 115.64C25.4325 115.976 25.3968 116.34 25.5659 116.732L25.8601 117.413L28.7104 116.183L29.1935 117.301L22.8554 120.038L22.3723 118.919L25.11 117.737L24.8509 117.137C24.707 116.804 24.4529 116.605 24.0885 116.539L21.5081 116.059Z" fill="#A6A8A7"/>
<path d="M22.4734 108.46C22.659 108.987 22.846 109.428 23.0343 109.782C23.2169 110.134 23.4 110.412 23.5834 110.615C23.7655 110.815 23.9472 110.945 24.1286 111.007C24.3086 111.064 24.4895 111.064 24.6712 111.007C24.8443 110.952 24.9847 110.877 25.0925 110.781C25.2002 110.685 25.2801 110.576 25.3322 110.455C25.3786 110.331 25.4008 110.198 25.3987 110.056C25.3909 109.91 25.363 109.762 25.3151 109.611C25.2508 109.407 25.1725 109.227 25.0802 109.071C24.9835 108.916 24.873 108.777 24.7486 108.655C24.6228 108.528 24.4846 108.414 24.3339 108.314C24.1819 108.21 24.0162 108.115 23.8366 108.029L22.4734 108.46ZM20.9662 113.042C20.5007 112.79 20.115 112.481 19.8092 112.116C19.5033 111.751 19.2697 111.313 19.1082 110.802C18.9918 110.434 18.9491 110.089 18.98 109.765C19.0108 109.441 19.1037 109.147 19.2585 108.884C19.4133 108.621 19.6286 108.391 19.9044 108.194C20.1802 107.997 20.502 107.841 20.8698 107.725L25.0764 106.394L25.2386 106.907C25.2741 107.02 25.2842 107.112 25.2687 107.183C25.249 107.256 25.1904 107.327 25.0932 107.396L24.511 107.723C24.7259 107.845 24.9221 107.969 25.0996 108.094C25.2728 108.22 25.4314 108.36 25.5754 108.514C25.7151 108.67 25.8395 108.845 25.9484 109.039C26.0604 109.227 26.156 109.447 26.2354 109.698C26.3161 109.954 26.3575 110.205 26.3594 110.452C26.357 110.7 26.311 110.931 26.2216 111.145C26.1308 111.355 25.9929 111.543 25.808 111.711C25.6174 111.876 25.3728 112.006 25.0742 112.1C24.8145 112.183 24.5431 112.19 24.2599 112.122C23.9724 112.056 23.6849 111.892 23.3976 111.631C23.1102 111.37 22.8267 111 22.547 110.522C22.263 110.045 21.9939 109.435 21.7399 108.692L21.227 108.854C20.7163 109.016 20.3661 109.248 20.1762 109.551C19.982 109.855 19.952 110.219 20.0861 110.643C20.1764 110.929 20.2891 111.157 20.4243 111.329C20.5537 111.497 20.6865 111.638 20.8225 111.753C20.9529 111.864 21.0713 111.96 21.1777 112.04C21.2784 112.118 21.3445 112.206 21.376 112.306C21.4006 112.384 21.4023 112.457 21.3812 112.526C21.3557 112.596 21.3188 112.66 21.2705 112.718L20.9662 113.042Z" fill="#A6A8A7"/>
<path d="M18.3599 105.376C18.0675 105.172 17.8108 104.906 17.5897 104.576C17.3677 104.242 17.2039 103.819 17.0983 103.308C17.0138 102.899 16.9905 102.528 17.0284 102.196C17.0619 101.865 17.1393 101.578 17.2606 101.335C17.381 101.087 17.5369 100.888 17.7282 100.738C17.9141 100.583 18.1205 100.483 18.3472 100.436C18.4805 100.408 18.6251 100.402 18.781 100.416C18.936 100.425 19.0902 100.465 19.2438 100.536C19.3973 100.606 19.548 100.707 19.6957 100.839C19.8434 100.97 19.9767 101.144 20.0956 101.361C20.1354 100.903 20.2723 100.522 20.5063 100.219C20.7393 99.9115 21.0625 99.7149 21.4759 99.6295C21.7871 99.5652 22.084 99.578 22.3668 99.6679C22.6451 99.7587 22.898 99.9057 23.1254 100.109C23.3483 100.313 23.5395 100.566 23.699 100.867C23.8576 101.163 23.9727 101.484 24.0443 101.831C24.0893 102.049 24.1152 102.275 24.1221 102.51C24.128 102.741 24.1107 102.971 24.0704 103.202C24.0256 103.434 23.9584 103.659 23.869 103.876C23.7787 104.09 23.6576 104.289 23.5056 104.473L23.0033 104.229C22.9168 104.191 22.8634 104.124 22.8431 104.026C22.8266 103.946 22.8447 103.854 22.8975 103.75C22.9449 103.643 22.997 103.514 23.0539 103.364C23.1108 103.213 23.1551 103.034 23.1867 102.829C23.213 102.619 23.1972 102.375 23.1393 102.095C23.0888 101.85 23.0149 101.638 22.9176 101.459C22.815 101.276 22.6966 101.129 22.5623 101.018C22.4281 100.907 22.2803 100.831 22.1189 100.79C21.9575 100.749 21.7901 100.746 21.6168 100.782C21.2834 100.851 21.0434 101.047 20.8968 101.369C20.7493 101.687 20.7338 102.128 20.8505 102.693L21.0089 103.459L20.2221 103.622L20.0637 102.855C20.0132 102.611 19.9433 102.396 19.854 102.21C19.7602 102.026 19.6546 101.874 19.5373 101.754C19.4199 101.635 19.2916 101.552 19.1525 101.507C19.0089 101.462 18.8637 101.455 18.717 101.486C18.5837 101.513 18.4634 101.571 18.3563 101.658C18.2482 101.74 18.1626 101.853 18.0994 101.996C18.0353 102.134 17.9954 102.3 17.9797 102.493C17.964 102.686 17.9814 102.905 18.0319 103.15C18.087 103.416 18.1606 103.638 18.2525 103.813C18.3435 103.985 18.4334 104.128 18.5223 104.244C18.6102 104.356 18.6891 104.446 18.759 104.515C18.8289 104.584 18.8698 104.648 18.8817 104.705C18.8937 104.763 18.8926 104.814 18.8787 104.859C18.8638 104.899 18.8254 104.949 18.7635 105.008L18.3599 105.376Z" fill="#A6A8A7"/>
<path d="M15.4082 88.3376L22.2965 87.9917L22.3576 89.2089L19.1345 89.3707L19.3004 92.6755L22.5235 92.5136L22.5846 93.7308L15.6964 94.0766L15.6353 92.8595L18.3824 92.7215L18.2165 89.4168L15.4693 89.5547L15.4082 88.3376Z" fill="#A6A8A7"/>
<path d="M19.4098 80.9072C19.3913 81.4655 19.4054 81.944 19.452 82.3428C19.4943 82.7368 19.5639 83.0621 19.6608 83.3186C19.758 83.5706 19.8798 83.7583 20.0264 83.8816C20.1732 84.0005 20.3418 84.0661 20.532 84.0786C20.7132 84.0905 20.8714 84.0713 21.0066 84.0211C21.1418 83.9708 21.2557 83.8987 21.3483 83.8047C21.4367 83.7059 21.5057 83.5899 21.5554 83.4567C21.6008 83.3187 21.6288 83.1704 21.6392 83.0119C21.6532 82.799 21.6456 82.6029 21.6164 82.4236C21.5827 82.244 21.5302 82.0745 21.4588 81.9151C21.3876 81.7513 21.3001 81.5954 21.1961 81.4476C21.0924 81.2952 20.9725 81.1463 20.8365 81.0009L19.4098 80.9072ZM16.3406 84.6289C15.9987 84.2244 15.7516 83.7965 15.5993 83.3452C15.447 82.894 15.3884 82.4012 15.4235 81.8667C15.4488 81.4817 15.5346 81.144 15.6811 80.8534C15.8276 80.5628 16.0207 80.323 16.2605 80.1341C16.5004 79.9451 16.7845 79.8091 17.1129 79.7261C17.4414 79.643 17.7981 79.6141 18.183 79.6394L22.5854 79.9286L22.5502 80.4653C22.5424 80.583 22.5184 80.6724 22.478 80.7335C22.433 80.7942 22.3528 80.839 22.2372 80.8678L21.576 80.9608C21.7317 81.153 21.8696 81.3394 21.9896 81.5202C22.1051 81.7006 22.2019 81.8889 22.28 82.0851C22.3536 82.281 22.4059 82.4891 22.4369 82.7095C22.4727 82.9256 22.482 83.165 22.4648 83.4277C22.4472 83.6949 22.3945 83.9439 22.3065 84.1747C22.2141 84.4052 22.0873 84.6038 21.9262 84.7706C21.7655 84.9329 21.5684 85.0587 21.3351 85.148C21.0976 85.2325 20.8226 85.2644 20.5101 85.2439C20.2383 85.2261 19.9828 85.1342 19.7435 84.9684C19.4997 84.8023 19.2914 84.5452 19.1187 84.1973C18.9459 83.8493 18.8161 83.4019 18.7292 82.8549C18.6378 82.3076 18.6088 81.6415 18.6421 80.8568L18.1054 80.8215C17.5709 80.7864 17.1603 80.8755 16.8733 81.0886C16.5819 81.3014 16.4216 81.6298 16.3924 82.0737C16.3728 82.3726 16.3948 82.6265 16.4584 82.8353C16.5178 83.0394 16.5901 83.2193 16.6754 83.375C16.7565 83.5259 16.8319 83.6582 16.9018 83.7719C16.9674 83.8809 16.9968 83.9874 16.99 84.0916C16.9846 84.1731 16.9596 84.242 16.915 84.2982C16.8658 84.3541 16.8082 84.4003 16.7421 84.4369L16.3406 84.6289Z" fill="#A6A8A7"/>
<path d="M17.8084 68.5438C17.7241 68.4607 17.6619 68.3614 17.6216 68.246C17.5814 68.1306 17.5737 68.0152 17.5984 67.8999L17.797 66.9745L19.9909 69.2767C20.1322 69.4185 20.2438 69.5584 20.3255 69.6967C20.4028 69.834 20.4522 69.9931 20.4737 70.1742C20.5771 69.9735 20.7067 69.8133 20.8624 69.6935C21.0136 69.5728 21.197 69.4752 21.4126 69.4008L24.5818 68.2286L24.4047 69.054C24.359 69.267 24.2883 69.4236 24.1925 69.5238C24.0967 69.6239 23.9732 69.7019 23.822 69.7576L21.4437 70.6191C21.0527 70.7534 20.8125 71.0291 20.723 71.4462L20.5673 72.1719L23.6028 72.8232L23.3471 74.0148L16.5971 72.5663L16.8528 71.3748L19.7685 72.0004L19.9056 71.3614C19.9818 71.0063 19.8904 70.6966 19.6315 70.4321L17.8084 68.5438Z" fill="#A6A8A7"/>
<path d="M20.0299 59.6923L27.3871 66.0532C27.4613 66.1196 27.5148 66.1912 27.5476 66.2682C27.5817 66.3409 27.5796 66.4378 27.5413 66.559L27.2704 67.4159L25.0405 65.3898L17.9895 66.1449L18.3056 65.1452C18.3371 65.0457 18.3877 64.976 18.4574 64.9361C18.5241 64.8906 18.5912 64.8666 18.6587 64.8641L23.3566 64.4146C23.5603 64.4028 23.7692 64.4046 23.9833 64.4199C23.7991 64.295 23.627 64.1692 23.4671 64.0425L19.8719 61.0276C19.8108 60.9797 19.7682 60.9186 19.7441 60.8444C19.717 60.7644 19.7158 60.6855 19.7405 60.6076L20.0299 59.6923Z" fill="#A6A8A7"/>
<path d="M29.225 55.584L28.7675 56.6546C28.7283 56.7464 28.6741 56.8097 28.605 56.8443C28.5335 56.873 28.4614 56.8915 28.3887 56.9L25.2209 57.4342C25.2722 57.4759 25.3226 57.5196 25.3722 57.5655C25.4193 57.6053 25.4587 57.6518 25.4903 57.7048L27.0188 60.1054C27.0594 60.1721 27.094 60.2412 27.1227 60.3127C27.149 60.3782 27.1443 60.4527 27.1086 60.5362L26.6832 61.5317L24.3775 57.9178L20.3786 58.7336L20.8361 57.663C20.8754 57.5712 20.9185 57.5107 20.9656 57.4814C21.0126 57.4522 21.0704 57.4324 21.139 57.4222L24.1842 56.8801C24.0775 56.795 23.9829 56.6928 23.9005 56.5737L22.4804 54.3527C22.438 54.2902 22.4091 54.2309 22.3935 54.1749C22.3756 54.1129 22.38 54.0506 22.4067 53.988L22.8455 52.9613L24.9633 56.3912L29.225 55.584Z" fill="#A6A8A7"/>
<path d="M26.4951 46.1579L32.5094 49.5337L31.9129 50.5965L29.0987 49.0169L27.4791 51.9023L30.2933 53.4819L29.6968 54.5447L23.6825 51.1689L24.279 50.1061L26.6776 51.4524L28.2972 48.567L25.8986 47.2207L26.4951 46.1579Z" fill="#A6A8A7"/>
<path d="M33.0879 41.1747C32.8592 41.0108 32.6269 40.8946 32.3911 40.8263C32.1543 40.7516 31.9227 40.728 31.6963 40.7557C31.4689 40.777 31.2548 40.8498 31.0541 40.9741C30.8498 41.0957 30.667 41.269 30.5057 41.4941C30.1674 41.9664 30.0375 42.4401 30.116 42.9151C30.1935 43.3837 30.452 43.8257 30.8915 44.241L33.0879 41.1747ZM36.288 42.2609C36.3483 42.4884 36.3731 42.7266 36.3622 42.9757C36.3476 43.222 36.3053 43.4681 36.2354 43.7139C36.168 43.956 36.077 44.1923 35.9622 44.4227C35.851 44.6558 35.7228 44.8738 35.5774 45.0767C35.2999 45.4642 34.9789 45.7759 34.6145 46.0118C34.2491 46.2413 33.855 46.3862 33.4323 46.4463C33.0085 46.5001 32.5627 46.4599 32.0949 46.3258C31.627 46.1916 31.1514 45.9515 30.668 45.6052C30.2769 45.325 29.9539 45.0043 29.699 44.6431C29.4467 44.2781 29.2776 43.8946 29.1916 43.4924C29.1019 43.0876 29.1033 42.6726 29.1957 42.2474C29.2843 41.8196 29.4741 41.4028 29.7648 40.9969C30.0053 40.6611 30.2846 40.3921 30.6025 40.1899C30.9193 39.9814 31.2588 39.8505 31.6208 39.7971C31.9818 39.7375 32.3614 39.7609 32.7596 39.8675C33.1542 39.9714 33.5507 40.1662 33.9492 40.4516C34.1042 40.5626 34.1956 40.6532 34.2235 40.7235C34.2514 40.7937 34.2323 40.8749 34.1662 40.9671L31.4821 44.7143C31.8442 44.957 32.1867 45.1297 32.5095 45.2325C32.8349 45.3316 33.1417 45.3671 33.4298 45.339C33.7143 45.3083 33.9774 45.2176 34.2193 45.067C34.4574 44.9138 34.6717 44.7043 34.862 44.4387C35.0391 44.1914 35.1634 43.9594 35.2349 43.7427C35.3054 43.5196 35.3537 43.3196 35.3798 43.1429C35.4059 42.9662 35.4216 42.8156 35.4271 42.6911C35.4315 42.5602 35.4561 42.4634 35.5011 42.4007C35.5592 42.3195 35.6355 42.2792 35.73 42.2799L36.288 42.2609Z" fill="#A6A8A7"/>
<path d="M61.8016 21.1988C62.1392 21.0317 62.4109 20.8491 62.6167 20.651C62.8225 20.4528 62.9685 20.2464 63.0546 20.0315C63.1427 19.8106 63.1761 19.5865 63.1547 19.359C63.1312 19.1275 63.0621 18.8958 62.9473 18.664C62.7238 18.2125 62.3869 17.9361 61.9367 17.8348C61.4844 17.7295 60.9369 17.8359 60.2942 18.1541L58.4027 19.0905L59.9101 22.1353L61.8016 21.1988ZM56.5087 15.2648L57.9859 18.2485L59.5479 17.4752C59.8815 17.3101 60.1521 17.1305 60.36 16.9364C60.5718 16.7404 60.7249 16.538 60.8191 16.3293C60.9174 16.1186 60.9598 15.9026 60.9465 15.6812C60.9311 15.4559 60.8691 15.2333 60.7603 15.0137C60.5046 14.4971 60.1637 14.1973 59.7378 14.1145C59.3098 14.0275 58.7704 14.1451 58.1196 14.4673L56.5087 15.2648ZM57.6574 13.5338C58.1944 13.268 58.6822 13.0923 59.121 13.0067C59.5639 12.9192 59.9577 12.9116 60.3025 12.984C60.6514 13.0544 60.9553 13.2028 61.2142 13.4291C61.4711 13.6514 61.6872 13.9395 61.8624 14.2934C61.9691 14.509 62.0372 14.7335 62.0668 14.9671C62.0984 15.1946 62.0893 15.427 62.0397 15.6643C61.99 15.9016 61.8957 16.1407 61.7567 16.3817C61.6198 16.6166 61.4341 16.8453 61.1998 17.0677C61.9029 16.8715 62.4987 16.8627 62.9872 17.0412C63.4778 17.2137 63.858 17.5724 64.1279 18.1175C64.3111 18.4877 64.4091 18.8596 64.4218 19.2331C64.4386 19.6046 64.3692 19.9657 64.2135 20.3162C64.062 20.6648 63.8252 20.9947 63.5032 21.3061C63.1793 21.6133 62.7732 21.8878 62.2851 22.1294L59.1976 23.6579L54.869 14.9143L57.6574 13.5338Z" fill="#A6A8A7"/>
<path d="M68.9197 15.9459C68.401 16.1532 67.9684 16.3582 67.6219 16.5611C67.2781 16.7581 67.0082 16.9525 66.8121 17.1442C66.6203 17.3344 66.4974 17.5214 66.4433 17.7051C66.3935 17.8873 66.401 18.0681 66.466 18.2473C66.5279 18.418 66.609 18.5551 66.7093 18.6588C66.8096 18.7624 66.9214 18.8378 67.0447 18.8848C67.1707 18.9261 67.3046 18.9427 67.4466 18.9347C67.5912 18.9209 67.7382 18.8869 67.8876 18.8328C68.0882 18.7601 68.2647 18.6744 68.4172 18.5757C68.5682 18.4727 68.7023 18.3565 68.8195 18.2271C68.941 18.0962 69.0486 17.9534 69.1422 17.7988C69.2401 17.6426 69.3283 17.473 69.4069 17.2901L68.9197 15.9459ZM64.2787 14.6298C64.5118 14.1542 64.8045 13.7561 65.1565 13.4354C65.5086 13.1146 65.9364 12.863 66.44 12.6805C66.8027 12.5491 67.1465 12.4921 67.4715 12.5095C67.7964 12.5269 68.0936 12.6075 68.3629 12.7512C68.6323 12.895 68.871 13.1006 69.0789 13.368C69.2869 13.6354 69.4566 13.9505 69.588 14.3132L71.0913 18.4611L70.5856 18.6443C70.4747 18.6845 70.3832 18.6984 70.311 18.6859C70.2374 18.6692 70.1641 18.6136 70.0913 18.5193L69.7406 17.9512C69.6271 18.171 69.5118 18.3721 69.3945 18.5546C69.2756 18.7329 69.142 18.8972 68.9937 19.0475C68.8439 19.1935 68.6743 19.325 68.4849 19.4419C68.3014 19.5615 68.0858 19.6662 67.8383 19.7559C67.5866 19.8471 67.3373 19.8988 67.0907 19.911C66.8425 19.9189 66.6097 19.8826 66.3922 19.802C66.179 19.72 65.9847 19.5901 65.8092 19.4123C65.6364 19.2287 65.4967 18.9896 65.39 18.6952C65.2972 18.4392 65.2787 18.1683 65.3344 17.8825C65.3886 17.5925 65.5404 17.2985 65.7897 17.0006C66.039 16.7026 66.3966 16.404 66.8627 16.1048C67.3272 15.8013 67.9255 15.5072 68.6575 15.2225L68.4743 14.7169C68.2918 14.2133 68.0453 13.873 67.7349 13.6958C67.4229 13.5144 67.0578 13.4994 66.6396 13.651C66.358 13.7531 66.1343 13.8752 65.9685 14.0173C65.8055 14.1537 65.6698 14.2921 65.5615 14.4328C65.4559 14.5676 65.365 14.6899 65.2889 14.7995C65.2155 14.9034 65.1297 14.9731 65.0315 15.0087C64.9547 15.0365 64.8816 15.0413 64.8122 15.023C64.7413 15.0004 64.6758 14.9662 64.6157 14.9204L64.2787 14.6298Z" fill="#A6A8A7"/>
<path d="M81.5713 8.7129L82.9926 15.4618L73.9119 17.3742L72.4906 10.6253L73.6831 10.3742L74.915 16.2237L77.6666 15.6442L76.4347 9.79468L77.6272 9.54353L78.8591 15.393L81.6107 14.8135L80.3787 8.96406L81.5713 8.7129Z" fill="#A6A8A7"/>
<path d="M88.4775 8.66037C88.7286 8.40739 89.0355 8.20037 89.3984 8.03931C89.7658 7.8781 90.2103 7.78944 90.7321 7.77333C91.1494 7.76044 91.5185 7.80126 91.8393 7.8958C92.16 7.9858 92.4295 8.11144 92.6479 8.27271C92.8709 8.43385 93.0402 8.62162 93.1558 8.83602C93.2758 9.04575 93.3394 9.2663 93.3465 9.49767C93.3507 9.63378 93.3324 9.77739 93.2917 9.9285C93.2555 10.0795 93.1896 10.2246 93.094 10.3637C92.9984 10.5029 92.873 10.634 92.7179 10.7568C92.5627 10.8797 92.3683 10.981 92.1346 11.0609C92.5788 11.1789 92.9301 11.3792 93.1886 11.6619C93.4516 11.9444 93.5896 12.2966 93.6027 12.7185C93.6125 13.0361 93.5488 13.3264 93.4116 13.5895C93.2743 13.848 93.0859 14.0718 92.8465 14.2609C92.607 14.4454 92.3254 14.5903 92.0017 14.6957C91.6825 14.8009 91.346 14.859 90.9921 14.8699C90.7698 14.8767 90.5423 14.8633 90.3097 14.8297C90.0816 14.7958 89.8573 14.7392 89.6369 14.6597C89.4163 14.5757 89.2065 14.4709 89.0073 14.3454C88.8127 14.2197 88.6377 14.0662 88.4822 13.8848L88.8088 13.4319C88.8609 13.3531 88.9368 13.3122 89.0366 13.3091C89.1183 13.3066 89.2056 13.3402 89.2986 13.41C89.396 13.4751 89.514 13.5487 89.6528 13.6307C89.7916 13.7126 89.9596 13.7869 90.1569 13.8535C90.3587 13.9154 90.6024 13.9419 90.8883 13.9331C91.1378 13.9254 91.3592 13.889 91.5524 13.824C91.7501 13.7543 91.9153 13.6629 92.048 13.5499C92.1808 13.4368 92.2811 13.3043 92.3491 13.1523C92.4171 13.0003 92.4483 12.8359 92.4428 12.659C92.4323 12.3187 92.2809 12.0486 91.9887 11.8488C91.701 11.6488 91.269 11.5577 90.6928 11.5755L89.9102 11.5996L89.8854 10.7966L90.668 10.7724C90.9175 10.7647 91.1414 10.7329 91.3394 10.6768C91.5374 10.6162 91.7053 10.5383 91.8431 10.4433C91.9809 10.3482 92.0842 10.236 92.1528 10.1067C92.2214 9.97291 92.2533 9.83115 92.2487 9.68144C92.2445 9.54533 92.2087 9.41702 92.1414 9.29648C92.0787 9.17581 91.9824 9.07207 91.8526 8.98526C91.7273 8.89831 91.5708 8.83048 91.3831 8.78179C91.1954 8.73309 90.9768 8.71259 90.7273 8.7203C90.455 8.72871 90.2245 8.76308 90.0356 8.8234C89.8513 8.88359 89.6944 8.94747 89.5647 9.01505C89.4397 9.08249 89.3372 9.14469 89.2572 9.20165C89.1772 9.25862 89.1077 9.28801 89.0487 9.28983C88.9898 9.29165 88.9395 9.28185 88.898 9.26043C88.861 9.23887 88.8187 9.19249 88.7711 9.12131L88.4775 8.66037Z" fill="#A6A8A7"/>
<path d="M99.7196 11.8157C99.1614 11.795 98.6828 11.8072 98.2838 11.8523C97.8897 11.8931 97.5642 11.9615 97.3072 12.0574C97.0549 12.1536 96.8667 12.2747 96.7428 12.4208C96.6234 12.5672 96.5571 12.7355 96.5439 12.9256C96.5313 13.1068 96.5499 13.265 96.5996 13.4004C96.6493 13.5358 96.721 13.65 96.8146 13.743C96.9131 13.8317 97.0289 13.9012 97.1619 13.9514C97.2997 13.9974 97.4479 14.0259 97.6064 14.0369C97.8192 14.0517 98.0153 14.0449 98.1947 14.0164C98.3745 13.9834 98.5441 13.9315 98.7038 13.8607C98.8679 13.7902 99.0241 13.7033 99.1724 13.5998C99.3251 13.4967 99.4745 13.3774 99.6204 13.242L99.7196 11.8157ZM96.0098 8.73213C96.4156 8.39181 96.8445 8.14637 97.2963 7.9958C97.7481 7.84523 98.2411 7.78852 98.7754 7.82568C99.1603 7.85245 99.4978 7.93962 99.7878 8.08719C100.078 8.23476 100.317 8.42883 100.505 8.66941C100.693 8.90998 100.828 9.19463 100.91 9.52336C100.991 9.8521 101.019 10.2089 100.992 10.5938L100.686 14.995L100.149 14.9577C100.032 14.9495 99.9424 14.9251 99.8815 14.8845C99.821 14.8393 99.7765 14.7589 99.7482 14.6431L99.6577 13.9817C99.4649 14.1366 99.2779 14.2737 99.0967 14.3931C98.9158 14.5079 98.7271 14.604 98.5307 14.6813C98.3345 14.7541 98.1262 14.8056 97.9057 14.8358C97.6894 14.8708 97.45 14.8791 97.1873 14.8609C96.9202 14.8423 96.6714 14.7886 96.441 14.6998C96.2109 14.6064 96.0127 14.4789 95.8465 14.3172C95.6848 14.1558 95.5598 13.9583 95.4714 13.7246C95.3879 13.4868 95.3569 13.2116 95.3787 12.8992C95.3976 12.6275 95.4904 12.3723 95.6571 12.1337C95.8242 11.8905 96.082 11.6832 96.4307 11.5118C96.7793 11.3404 97.2272 11.2123 97.7746 11.1276C98.3222 11.0383 98.9884 11.0118 99.773 11.0482L99.8103 10.5116C99.8475 9.97728 99.76 9.56626 99.548 9.27851C99.3363 8.98624 99.0085 8.82468 98.5648 8.79381C98.2659 8.77303 98.012 8.79404 97.8028 8.85684C97.5986 8.91543 97.4184 8.98708 97.2624 9.07177C97.1112 9.15225 96.9786 9.2272 96.8645 9.29662C96.7554 9.36183 96.6487 9.39081 96.5446 9.38356C96.4631 9.3779 96.3943 9.35264 96.3383 9.30779C96.2825 9.25842 96.2365 9.20062 96.2002 9.13439L96.0098 8.73213Z" fill="#A6A8A7"/>
<path d="M109.17 9.59161C109.25 9.50419 109.347 9.43818 109.46 9.39358C109.574 9.34897 109.689 9.33683 109.805 9.35717L110.738 9.52024L108.521 11.8004C108.385 11.9471 108.249 12.0639 108.114 12.1509C107.98 12.2334 107.823 12.2888 107.643 12.3172C107.847 12.4129 108.012 12.5362 108.138 12.6872C108.264 12.8338 108.369 13.0133 108.451 13.2259L109.744 16.348L108.912 16.2026C108.697 16.165 108.538 16.1003 108.435 16.0085C108.331 15.9166 108.248 15.7962 108.187 15.6472L107.235 13.3035C107.086 12.918 106.801 12.6885 106.381 12.6149L105.65 12.4871L105.115 15.5453L103.914 15.3353L105.104 8.53479L106.305 8.74478L105.791 11.6823L106.435 11.7949C106.792 11.8575 107.098 11.7543 107.353 11.4855L109.17 9.59161Z" fill="#A6A8A7"/>
<path d="M114.707 14.4775C114.165 14.3448 113.693 14.2604 113.293 14.2242C112.899 14.1848 112.567 14.1862 112.296 14.2284C112.029 14.2718 111.82 14.3525 111.67 14.4707C111.523 14.59 111.424 14.7415 111.373 14.9251C111.324 15.1 111.311 15.2588 111.332 15.4014C111.353 15.5441 111.401 15.6703 111.474 15.7803C111.552 15.887 111.652 15.9784 111.772 16.0543C111.898 16.1271 112.037 16.1849 112.19 16.2276C112.395 16.285 112.589 16.3178 112.77 16.326C112.953 16.3299 113.13 16.3132 113.3 16.276C113.475 16.2401 113.646 16.1863 113.812 16.1149C113.982 16.0446 114.153 15.9579 114.323 15.8546L114.707 14.4775ZM111.694 10.71C112.16 10.4584 112.63 10.3043 113.103 10.2478C113.576 10.1913 114.07 10.2351 114.586 10.3791C114.958 10.4828 115.271 10.6362 115.525 10.8391C115.779 11.0421 115.974 11.2803 116.11 11.5538C116.246 11.8273 116.321 12.1333 116.334 12.4718C116.348 12.8103 116.303 13.1653 116.2 13.5369L115.013 17.7863L114.495 17.6417C114.382 17.61 114.299 17.5681 114.248 17.516C114.198 17.4596 114.17 17.3718 114.166 17.2528L114.21 16.5866C113.99 16.6996 113.78 16.7962 113.578 16.8766C113.378 16.9527 113.174 17.0088 112.966 17.045C112.759 17.0768 112.544 17.0852 112.322 17.0704C112.103 17.0611 111.867 17.0211 111.614 16.9503C111.356 16.8783 111.123 16.7756 110.915 16.6422C110.708 16.5044 110.54 16.3396 110.41 16.1477C110.284 15.9571 110.201 15.7384 110.162 15.4918C110.128 15.242 110.153 14.9662 110.237 14.6646C110.31 14.4023 110.453 14.171 110.664 13.9708C110.877 13.7663 111.171 13.6152 111.547 13.5175C111.923 13.4198 112.387 13.3846 112.941 13.4118C113.495 13.4346 114.153 13.5428 114.914 13.7364L115.059 13.2184C115.203 12.7025 115.2 12.2823 115.05 11.9578C114.902 11.6288 114.613 11.4046 114.185 11.285C113.896 11.2044 113.643 11.1739 113.426 11.1933C113.214 11.2095 113.023 11.2434 112.853 11.2949C112.689 11.3433 112.544 11.39 112.418 11.4351C112.298 11.4769 112.188 11.4838 112.087 11.4558C112.008 11.4338 111.946 11.3952 111.9 11.34C111.856 11.2804 111.822 11.2145 111.8 11.1423L111.694 10.71Z" fill="#A6A8A7"/>
<path d="M119.55 12.7016C119.88 12.5679 120.244 12.4985 120.641 12.4934C121.042 12.4899 121.485 12.5835 121.971 12.7742C122.36 12.9268 122.683 13.1097 122.941 13.3229C123.2 13.5319 123.398 13.7536 123.536 13.9878C123.677 14.2238 123.759 14.463 123.78 14.7056C123.808 14.9457 123.78 15.1734 123.695 15.3889C123.645 15.5157 123.572 15.6405 123.475 15.7634C123.382 15.8879 123.265 15.9953 123.122 16.0855C122.979 16.1758 122.812 16.2469 122.621 16.2987C122.43 16.3505 122.212 16.3671 121.966 16.3485C122.327 16.6319 122.571 16.9544 122.698 17.316C122.828 17.6792 122.816 18.0573 122.662 18.4503C122.546 18.7461 122.373 18.9878 122.143 19.1756C121.915 19.3592 121.654 19.4907 121.36 19.5702C121.067 19.6454 120.751 19.6677 120.412 19.637C120.077 19.6081 119.745 19.5289 119.415 19.3996C119.208 19.3183 119.004 19.2164 118.804 19.0938C118.607 18.9729 118.424 18.8325 118.252 18.6726C118.083 18.5085 117.931 18.3295 117.797 18.1357C117.668 17.9435 117.568 17.7335 117.496 17.5055L117.975 17.2179C118.054 17.166 118.14 17.1583 118.232 17.1947C118.309 17.2246 118.376 17.2899 118.434 17.3906C118.497 17.4888 118.577 17.603 118.672 17.733C118.767 17.863 118.893 17.9975 119.048 18.1364C119.209 18.2727 119.422 18.3931 119.689 18.4976C119.921 18.5888 120.139 18.6425 120.342 18.6589C120.551 18.6727 120.739 18.6538 120.906 18.6021C121.072 18.5505 121.217 18.4682 121.339 18.3553C121.461 18.2424 121.555 18.1035 121.619 17.9387C121.744 17.6219 121.711 17.314 121.521 17.0152C121.335 16.718 120.974 16.4641 120.438 16.2536L119.709 15.9675L120.002 15.2197L120.731 15.5057C120.963 15.5969 121.182 15.6557 121.386 15.6822C121.592 15.7045 121.777 15.699 121.941 15.6659C122.105 15.6328 122.244 15.5704 122.358 15.4786C122.474 15.3826 122.559 15.2649 122.614 15.1254C122.663 14.9987 122.681 14.8667 122.667 14.7294C122.657 14.5937 122.609 14.4604 122.524 14.3295C122.443 14.2002 122.326 14.0763 122.172 13.9576C122.019 13.8389 121.826 13.7339 121.594 13.6427C121.34 13.5433 121.115 13.4841 120.918 13.4651C120.724 13.4478 120.555 13.4447 120.409 13.4558C120.268 13.4685 120.149 13.4853 120.053 13.5062C119.957 13.527 119.882 13.5267 119.827 13.5051C119.772 13.4836 119.729 13.4548 119.7 13.4187C119.674 13.3843 119.654 13.325 119.638 13.2408L119.55 12.7016Z" fill="#A6A8A7"/>
<path d="M135.656 19.6397L132.17 25.5908L131.119 24.9748L132.75 22.1902L129.895 20.5177L128.264 23.3023L127.212 22.6863L130.698 16.7352L131.75 17.3512L130.359 19.7246L133.214 21.3971L134.605 19.0237L135.656 19.6397Z" fill="#A6A8A7"/>
<path d="M139.121 26.6466C138.662 26.3278 138.253 26.0797 137.893 25.9022C137.539 25.7237 137.228 25.6055 136.96 25.5475C136.696 25.4921 136.472 25.4925 136.289 25.5486C136.109 25.6073 135.963 25.7131 135.849 25.8661C135.74 26.0117 135.671 26.155 135.639 26.2958C135.608 26.4366 135.607 26.5714 135.635 26.7002C135.67 26.8281 135.73 26.9491 135.815 27.0631C135.906 27.1763 136.016 27.2803 136.143 27.3751C136.314 27.5025 136.483 27.6026 136.649 27.6756C136.818 27.7448 136.989 27.7928 137.162 27.8194C137.338 27.8487 137.517 27.8599 137.697 27.8528C137.881 27.8485 138.072 27.8288 138.267 27.7936L139.121 26.6466ZM137.664 22.0481C138.189 21.9808 138.683 22.0057 139.144 22.123C139.606 22.2402 140.051 22.4587 140.481 22.7785C140.79 23.0089 141.027 23.2645 141.192 23.5453C141.356 23.8261 141.453 24.1185 141.481 24.4225C141.509 24.7265 141.469 25.039 141.361 25.3598C141.252 25.6807 141.082 25.9958 140.852 26.3053L138.218 29.8445L137.786 29.5233C137.692 29.4529 137.63 29.3841 137.6 29.317C137.574 29.2463 137.58 29.1546 137.618 29.0419L137.899 28.4363C137.654 28.4626 137.422 28.477 137.205 28.4797C136.991 28.4786 136.78 28.4576 136.573 28.4166C136.369 28.372 136.166 28.3028 135.964 28.2091C135.763 28.1218 135.557 27.9996 135.345 27.8424C135.131 27.6825 134.95 27.5029 134.804 27.3038C134.661 27.1009 134.563 26.8866 134.51 26.6607C134.462 26.4376 134.463 26.2038 134.515 25.9595C134.573 25.7141 134.695 25.4659 134.882 25.2146C135.045 24.9962 135.261 24.8315 135.53 24.7207C135.802 24.6062 136.131 24.571 136.517 24.615C136.903 24.6589 137.349 24.793 137.856 25.0172C138.365 25.2378 138.94 25.5752 139.58 26.0295L139.902 25.598C140.221 25.1683 140.37 24.7752 140.347 24.4185C140.326 24.0582 140.138 23.7452 139.781 23.4796C139.541 23.3008 139.315 23.1813 139.106 23.1212C138.902 23.0603 138.712 23.0233 138.535 23.0103C138.364 22.9964 138.212 22.9879 138.078 22.9847C137.951 22.9807 137.846 22.9475 137.762 22.8851C137.696 22.8364 137.652 22.778 137.629 22.71C137.609 22.6383 137.602 22.5648 137.607 22.4894L137.664 22.0481Z" fill="#A6A8A7"/>
<path d="M150.735 32.3545C150.851 32.3292 150.968 32.3313 151.086 32.3606C151.205 32.3899 151.306 32.4464 151.389 32.5302L152.056 33.2018L148.929 33.7826C148.733 33.8236 148.555 33.8406 148.395 33.8336C148.237 33.8234 148.077 33.7779 147.914 33.6971C148.025 33.8933 148.089 34.0893 148.104 34.2851C148.123 34.4778 148.104 34.6847 148.049 34.906L147.3 38.201L146.706 37.6019C146.552 37.4473 146.46 37.3025 146.428 37.1676C146.396 37.0327 146.399 36.8867 146.434 36.7295L147.011 34.2667C147.112 33.8659 147.013 33.5141 146.712 33.2113L146.189 32.6846L143.986 34.8719L143.127 34.0071L148.027 29.1431L148.885 30.008L146.769 32.109L147.229 32.5728C147.485 32.8305 147.795 32.9231 148.158 32.8506L150.735 32.3545Z" fill="#A6A8A7"/>
<path d="M157.021 39.1386L147.676 41.8319C147.58 41.8579 147.491 41.8637 147.408 41.8491C147.329 41.838 147.249 41.7834 147.168 41.6851L146.598 40.9904L149.513 40.2277L152.728 33.9072L153.393 34.7177C153.459 34.7984 153.49 34.8789 153.485 34.959C153.487 35.0398 153.471 35.1091 153.436 35.167L151.249 39.349C151.147 39.526 151.032 39.7001 150.902 39.8711C151.107 39.7849 151.307 39.7094 151.5 39.6446L155.989 38.2774C156.062 38.2524 156.136 38.25 156.212 38.2704C156.294 38.2913 156.36 38.3334 156.412 38.3965L157.021 39.1386Z" fill="#A6A8A7"/>
<path d="M155.154 48.6135L154.501 47.65C154.445 47.5673 154.421 47.4876 154.429 47.4107C154.443 47.3351 154.467 47.2644 154.499 47.1987L155.761 44.2446C155.699 44.2652 155.635 44.284 155.569 44.3009C155.51 44.319 155.45 44.327 155.388 44.325L152.542 44.3137C152.464 44.3118 152.387 44.3036 152.312 44.2891C152.242 44.2758 152.182 44.2316 152.131 44.1565L151.524 43.2606L155.81 43.2736L157.285 39.468L157.938 40.4316C157.994 40.5142 158.022 40.5832 158.021 40.6386C158.02 40.694 158.006 40.7533 157.977 40.8165L156.788 43.6718C156.917 43.6279 157.054 43.6036 157.199 43.5986L159.835 43.604C159.911 43.6022 159.976 43.6098 160.032 43.627C160.094 43.6454 160.144 43.6828 160.182 43.7391L160.809 44.6632L156.778 44.5915L155.154 48.6135Z" fill="#A6A8A7"/>
<path d="M164.554 51.3766L158.467 54.6183L157.894 53.5426L160.743 52.0258L159.187 49.1052L156.339 50.622L155.766 49.5463L161.854 46.3046L162.426 47.3803L159.999 48.6731L161.554 51.5938L163.982 50.3009L164.554 51.3766Z" fill="#A6A8A7"/>
<path d="M165.392 60.1166C165.654 60.0138 165.878 59.8821 166.064 59.7215C166.255 59.5635 166.401 59.3819 166.501 59.1769C166.607 58.9745 166.662 58.7553 166.667 58.5193C166.676 58.2817 166.63 58.034 166.529 57.7762C166.317 57.2354 165.99 56.8687 165.549 56.6762C165.113 56.4862 164.602 56.4626 164.014 56.6055L165.392 60.1166ZM162.74 62.2107C162.516 62.1376 162.303 62.0287 162.1 61.8841C161.901 61.7378 161.717 61.5685 161.549 61.376C161.383 61.1878 161.234 60.9829 161.103 60.7612C160.968 60.5412 160.855 60.315 160.764 60.0826C160.59 59.6389 160.503 59.2 160.503 58.766C160.509 58.3345 160.602 57.925 160.782 57.5376C160.967 57.1528 161.243 56.8006 161.61 56.481C161.977 56.1614 162.438 55.893 162.991 55.6758C163.439 55.5 163.884 55.4035 164.326 55.3862C164.769 55.373 165.183 55.4398 165.567 55.5865C165.956 55.7314 166.303 55.9583 166.61 56.2672C166.92 56.5743 167.167 56.9603 167.349 57.4251C167.5 57.8096 167.574 58.1902 167.571 58.5669C167.573 58.9462 167.498 59.3023 167.346 59.6351C167.2 59.9704 166.974 60.2762 166.667 60.5523C166.366 60.8268 165.987 61.0536 165.53 61.2327C165.353 61.3023 165.227 61.3297 165.153 61.3149C165.079 61.3001 165.021 61.2399 164.98 61.1343L163.296 56.8435C162.895 57.0154 162.564 57.2087 162.302 57.4236C162.042 57.6428 161.845 57.8809 161.712 58.1379C161.583 58.3933 161.516 58.6634 161.511 58.9483C161.51 59.2315 161.569 59.5252 161.688 59.8294C161.799 60.1125 161.926 60.343 162.069 60.521C162.218 60.7015 162.36 60.8508 162.494 60.9688C162.628 61.0868 162.746 61.182 162.847 61.2543C162.955 61.3292 163.022 61.4025 163.051 61.4744C163.087 61.5673 163.079 61.6533 163.027 61.7321L162.74 62.2107Z" fill="#A6A8A7"/>
<circle cx="44.1997" cy="27.9517" r="2" fill="#AEAEAE"/>
<circle cx="169.818" cy="76.1001" r="2" fill="#AEAEAE"/>
<circle cx="70.7061" cy="158.972" r="2" fill="#AEAEAE"/>
</svg>
