<svg width="164" height="161" viewBox="0 0 164 161" fill="none" xmlns="http://www.w3.org/2000/svg">
<g clip-path="url(#clip0_359_10768)">
<path d="M153.559 85.2954C153.537 85.6715 153.561 85.998 153.632 86.2749C153.702 86.5518 153.809 86.7808 153.953 86.9619C154.102 87.1478 154.28 87.2877 154.488 87.3816C154.701 87.4758 154.937 87.5303 155.195 87.5453C155.698 87.5744 156.105 87.4184 156.415 87.0773C156.731 86.7363 156.909 86.2079 156.951 85.492L157.073 83.3849L153.681 83.1884L153.559 85.2954ZM161.334 83.6318L158.011 83.4392L157.91 85.1793C157.888 85.5508 157.91 85.8749 157.976 86.1515C158.042 86.4327 158.142 86.6658 158.277 86.8509C158.411 87.0406 158.578 87.1844 158.777 87.2823C158.98 87.3804 159.204 87.4366 159.449 87.4508C160.025 87.4841 160.454 87.3362 160.736 87.0071C161.024 86.6782 161.188 86.1512 161.23 85.4262L161.334 83.6318ZM162.27 85.4865C162.236 86.0846 162.147 86.5955 162.004 87.0192C161.861 87.4473 161.673 87.7933 161.439 88.0572C161.206 88.3255 160.926 88.5162 160.602 88.6292C160.281 88.7425 159.924 88.7877 159.53 88.7649C159.29 88.751 159.061 88.6991 158.843 88.6092C158.63 88.5241 158.432 88.4012 158.251 88.2407C158.069 88.0801 157.908 87.8798 157.767 87.6398C157.631 87.4046 157.524 87.1301 157.447 86.8165C157.269 87.5245 156.982 88.0467 156.585 88.3829C156.193 88.7238 155.693 88.8767 155.086 88.8416C154.673 88.8177 154.302 88.7188 153.971 88.5451C153.639 88.3759 153.36 88.1369 153.132 87.8282C152.905 87.524 152.735 87.155 152.624 86.7212C152.517 86.2876 152.479 85.7989 152.511 85.2552L152.71 81.8159L162.45 82.3802L162.27 85.4865Z" fill="#A6A8A7"/>
<path d="M154.568 94.2109C154.645 93.6575 154.68 93.1801 154.675 92.7786C154.674 92.3823 154.638 92.0516 154.568 91.7864C154.498 91.5257 154.396 91.3264 154.263 91.1886C154.129 91.0552 153.969 90.9724 153.781 90.9403C153.602 90.9097 153.442 90.9124 153.303 90.9484C153.163 90.9843 153.042 91.0443 152.94 91.1282C152.842 91.2173 152.762 91.3255 152.698 91.4529C152.639 91.5854 152.596 91.73 152.569 91.8866C152.533 92.0969 152.52 92.2927 152.531 92.4741C152.546 92.6562 152.58 92.8302 152.635 92.9961C152.689 93.1665 152.76 93.3306 152.848 93.4884C152.935 93.6507 153.039 93.8112 153.159 93.9699L154.568 94.2109ZM158.007 90.8271C158.305 91.2648 158.506 91.716 158.611 92.1806C158.716 92.6452 158.723 93.1414 158.633 93.6694C158.568 94.0497 158.447 94.3767 158.271 94.6506C158.096 94.9245 157.879 95.143 157.621 95.306C157.362 95.4691 157.066 95.575 156.731 95.6235C156.395 95.6721 156.038 95.6639 155.657 95.5989L151.308 94.8553L151.399 94.3252C151.419 94.2088 151.452 94.1224 151.499 94.0659C151.55 94.0101 151.634 93.9739 151.752 93.9573L152.419 93.9332C152.284 93.7259 152.167 93.5262 152.066 93.334C151.97 93.1426 151.893 92.9453 151.836 92.742C151.783 92.5396 151.752 92.3272 151.744 92.1048C151.731 91.8861 151.747 91.647 151.791 91.3875C151.836 91.1235 151.914 90.8813 152.026 90.6609C152.141 90.4413 152.288 90.2568 152.466 90.1076C152.642 89.9628 152.851 89.8581 153.093 89.7935C153.338 89.734 153.614 89.7307 153.923 89.7835C154.192 89.8294 154.436 89.9472 154.657 90.1369C154.882 90.3274 155.063 90.6046 155.199 90.9686C155.334 91.3326 155.417 91.7911 155.447 92.3442C155.481 92.898 155.441 93.5635 155.327 94.3405L155.857 94.4312C156.385 94.5214 156.803 94.4754 157.11 94.2932C157.422 94.1116 157.615 93.8017 157.69 93.3632C157.741 93.0679 157.745 92.8131 157.704 92.5988C157.666 92.3897 157.612 92.2033 157.544 92.0396C157.479 91.8811 157.417 91.7417 157.36 91.6213C157.306 91.5062 157.287 91.3971 157.305 91.2942C157.319 91.2137 157.351 91.1478 157.401 91.0965C157.456 91.046 157.518 91.006 157.587 90.9764L158.007 90.8271Z" fill="#A6A8A7"/>
<path d="M154.712 108.358L148.136 106.279L150.934 97.4306L157.51 99.5101L157.143 100.672L151.443 98.8697L150.595 101.551L156.295 103.353L155.928 104.515L150.228 102.713L149.38 105.394L155.08 107.196L154.712 108.358Z" fill="#A6A8A7"/>
<path d="M151.306 114.488C151.402 114.831 151.43 115.2 151.391 115.595C151.35 115.994 151.207 116.425 150.964 116.886C150.769 117.255 150.551 117.556 150.31 117.788C150.074 118.023 149.831 118.195 149.583 118.305C149.333 118.42 149.086 118.474 148.843 118.469C148.601 118.47 148.378 118.416 148.173 118.308C148.053 118.244 147.937 118.158 147.826 118.048C147.712 117.942 147.619 117.813 147.545 117.661C147.471 117.509 147.419 117.335 147.389 117.14C147.359 116.944 147.366 116.725 147.412 116.482C147.09 116.81 146.743 117.017 146.369 117.102C145.994 117.191 145.619 117.137 145.246 116.94C144.965 116.792 144.744 116.593 144.583 116.344C144.426 116.097 144.324 115.823 144.278 115.521C144.236 115.222 144.249 114.905 144.317 114.572C144.384 114.242 144.499 113.921 144.664 113.608C144.768 113.411 144.892 113.22 145.036 113.034C145.178 112.853 145.338 112.686 145.516 112.533C145.698 112.383 145.893 112.252 146.101 112.141C146.306 112.034 146.526 111.957 146.761 111.912L146.993 112.419C147.036 112.504 147.034 112.59 146.987 112.678C146.949 112.75 146.877 112.81 146.77 112.856C146.666 112.909 146.543 112.975 146.403 113.055C146.264 113.135 146.116 113.245 145.961 113.383C145.807 113.528 145.664 113.727 145.53 113.98C145.414 114.201 145.336 114.411 145.297 114.611C145.26 114.818 145.258 115.007 145.291 115.178C145.324 115.349 145.389 115.502 145.488 115.636C145.586 115.77 145.714 115.878 145.871 115.961C146.172 116.12 146.481 116.122 146.799 115.966C147.115 115.815 147.408 115.484 147.677 114.974L148.042 114.282L148.753 114.657L148.387 115.349C148.271 115.57 148.188 115.781 148.139 115.98C148.094 116.182 148.079 116.367 148.093 116.534C148.108 116.701 148.155 116.846 148.233 116.969C148.316 117.095 148.423 117.193 148.556 117.263C148.676 117.326 148.805 117.358 148.943 117.359C149.079 117.365 149.217 117.332 149.357 117.262C149.494 117.196 149.63 117.093 149.765 116.954C149.9 116.815 150.026 116.635 150.143 116.414C150.27 116.173 150.354 115.956 150.395 115.762C150.433 115.572 150.455 115.404 150.46 115.258C150.464 115.116 150.46 114.996 150.45 114.898C150.44 114.801 150.449 114.726 150.476 114.673C150.504 114.621 150.537 114.582 150.576 114.557C150.613 114.535 150.675 114.522 150.76 114.515L151.306 114.488Z" fill="#A6A8A7"/>
<path d="M142.963 122.747C143.256 122.272 143.481 121.85 143.639 121.48C143.798 121.117 143.899 120.8 143.942 120.529C143.983 120.262 143.97 120.039 143.904 119.859C143.836 119.683 143.722 119.543 143.563 119.437C143.412 119.337 143.265 119.275 143.122 119.252C142.98 119.228 142.845 119.234 142.718 119.27C142.593 119.312 142.475 119.378 142.366 119.469C142.258 119.566 142.16 119.681 142.072 119.814C141.954 119.992 141.864 120.166 141.8 120.336C141.74 120.508 141.702 120.682 141.684 120.855C141.665 121.033 141.664 121.212 141.68 121.392C141.695 121.575 141.725 121.764 141.771 121.958L142.963 122.747ZM147.475 121.04C147.571 121.561 147.573 122.055 147.481 122.522C147.389 122.99 147.195 123.447 146.9 123.893C146.687 124.215 146.444 124.465 146.173 124.645C145.902 124.825 145.615 124.937 145.313 124.982C145.011 125.027 144.697 125.004 144.371 124.913C144.044 124.822 143.72 124.67 143.399 124.457L139.72 122.021L140.017 121.572C140.083 121.474 140.148 121.408 140.213 121.375C140.282 121.345 140.374 121.346 140.489 121.378L141.109 121.626C141.069 121.382 141.042 121.151 141.028 120.935C141.017 120.721 141.026 120.509 141.056 120.3C141.089 120.094 141.147 119.887 141.23 119.68C141.306 119.475 141.417 119.262 141.562 119.043C141.71 118.82 141.879 118.63 142.07 118.473C142.265 118.319 142.473 118.209 142.696 118.144C142.916 118.083 143.15 118.072 143.396 118.11C143.645 118.155 143.899 118.264 144.16 118.437C144.387 118.587 144.564 118.794 144.689 119.056C144.818 119.321 144.871 119.648 144.849 120.036C144.826 120.424 144.717 120.876 144.52 121.394C144.328 121.915 144.023 122.508 143.604 123.172L144.053 123.469C144.499 123.765 144.9 123.892 145.255 123.849C145.614 123.809 145.916 123.603 146.161 123.233C146.327 122.983 146.434 122.751 146.482 122.539C146.532 122.332 146.558 122.14 146.562 121.962C146.566 121.791 146.566 121.639 146.562 121.505C146.559 121.378 146.587 121.271 146.644 121.184C146.689 121.116 146.745 121.069 146.812 121.042C146.882 121.018 146.955 121.006 147.031 121.007L147.475 121.04Z" fill="#A6A8A7"/>
<path d="M140.569 131.624C140.607 131.737 140.617 131.853 140.6 131.975C140.584 132.096 140.538 132.202 140.464 132.293L139.866 133.027L138.959 129.979C138.898 129.789 138.862 129.613 138.852 129.453C138.846 129.295 138.874 129.131 138.937 128.96C138.754 129.092 138.566 129.176 138.373 129.211C138.183 129.25 137.975 129.254 137.749 129.222L134.394 128.824L134.927 128.17C135.065 128.001 135.199 127.894 135.33 127.848C135.461 127.802 135.606 127.789 135.766 127.808L138.276 128.123C138.685 128.181 139.025 128.045 139.294 127.714L139.763 127.139L137.356 125.178L138.125 124.233L143.478 128.593L142.708 129.538L140.396 127.655L139.983 128.161C139.754 128.443 139.695 128.76 139.805 129.114L140.569 131.624Z" fill="#A6A8A7"/>
<path d="M133.321 134.326C133.703 133.918 134.007 133.549 134.235 133.218C134.463 132.894 134.625 132.604 134.722 132.347C134.815 132.093 134.847 131.872 134.818 131.683C134.786 131.496 134.702 131.336 134.568 131.201C134.439 131.073 134.308 130.983 134.173 130.932C134.038 130.88 133.905 130.859 133.773 130.869C133.642 130.885 133.513 130.927 133.388 130.994C133.263 131.068 133.144 131.161 133.032 131.273C132.881 131.424 132.757 131.577 132.661 131.731C132.568 131.888 132.496 132.05 132.444 132.217C132.39 132.387 132.353 132.562 132.334 132.742C132.311 132.925 132.303 133.116 132.31 133.315L133.321 134.326ZM138.082 133.551C138.072 134.08 137.976 134.565 137.793 135.005C137.61 135.444 137.329 135.853 136.951 136.232C136.678 136.505 136.391 136.702 136.089 136.824C135.787 136.946 135.484 136.999 135.179 136.983C134.874 136.967 134.571 136.882 134.269 136.728C133.967 136.574 133.68 136.361 133.407 136.088L130.288 132.968L130.668 132.588C130.751 132.504 130.828 132.453 130.899 132.434C130.973 132.418 131.063 132.437 131.169 132.491L131.727 132.857C131.737 132.61 131.756 132.379 131.785 132.164C131.817 131.952 131.868 131.747 131.939 131.548C132.013 131.352 132.111 131.161 132.233 130.975C132.348 130.789 132.499 130.603 132.685 130.416C132.875 130.227 133.078 130.075 133.297 129.959C133.518 129.847 133.744 129.781 133.975 129.762C134.203 129.746 134.434 129.781 134.669 129.868C134.903 129.961 135.131 130.118 135.352 130.339C135.545 130.532 135.676 130.77 135.747 131.052C135.821 131.338 135.808 131.668 135.709 132.044C135.609 132.419 135.412 132.841 135.116 133.31C134.824 133.782 134.407 134.302 133.865 134.87L134.245 135.25C134.624 135.629 134.991 135.833 135.347 135.861C135.707 135.894 136.044 135.752 136.358 135.438C136.57 135.226 136.721 135.021 136.811 134.822C136.901 134.629 136.965 134.446 137.004 134.273C137.042 134.106 137.073 133.957 137.095 133.825C137.118 133.7 137.166 133.6 137.239 133.527C137.297 133.469 137.361 133.433 137.432 133.421C137.506 133.411 137.58 133.414 137.654 133.43L138.082 133.551Z" fill="#A6A8A7"/>
<path d="M132.542 139.338C132.498 139.691 132.381 140.042 132.192 140.391C131.999 140.743 131.701 141.085 131.297 141.416C130.975 141.681 130.657 141.874 130.345 141.995C130.037 142.119 129.746 142.184 129.475 142.19C129.2 142.198 128.951 142.152 128.729 142.053C128.506 141.96 128.321 141.824 128.174 141.645C128.088 141.54 128.014 141.415 127.954 141.271C127.891 141.129 127.855 140.974 127.845 140.805C127.836 140.637 127.856 140.456 127.904 140.264C127.952 140.072 128.044 139.873 128.18 139.667C127.756 139.845 127.356 139.901 126.978 139.834C126.598 139.771 126.273 139.576 126.006 139.25C125.804 139.004 125.677 138.736 125.625 138.443C125.576 138.155 125.589 137.863 125.663 137.567C125.741 137.274 125.875 136.988 126.067 136.707C126.256 136.429 126.487 136.177 126.761 135.953C126.933 135.812 127.121 135.683 127.326 135.568C127.527 135.456 127.74 135.364 127.963 135.292C128.189 135.224 128.419 135.179 128.653 135.157C128.884 135.138 129.117 135.153 129.35 135.201L129.368 135.76C129.375 135.854 129.34 135.933 129.262 135.996C129.199 136.048 129.11 136.074 128.993 136.076C128.876 136.084 128.738 136.097 128.578 136.117C128.418 136.137 128.24 136.181 128.043 136.248C127.845 136.322 127.636 136.45 127.415 136.631C127.222 136.79 127.069 136.954 126.955 137.123C126.841 137.299 126.766 137.472 126.73 137.643C126.694 137.813 126.695 137.98 126.734 138.141C126.773 138.303 126.848 138.453 126.961 138.589C127.177 138.853 127.461 138.974 127.815 138.954C128.165 138.937 128.563 138.746 129.008 138.38L129.614 137.883L130.123 138.504L129.518 139.001C129.325 139.159 129.167 139.321 129.044 139.486C128.925 139.655 128.839 139.819 128.788 139.979C128.737 140.138 128.723 140.29 128.748 140.434C128.775 140.582 128.836 140.714 128.932 140.83C129.018 140.935 129.125 141.015 129.251 141.069C129.375 141.127 129.514 141.15 129.67 141.14C129.823 141.132 129.988 141.09 130.166 141.014C130.345 140.938 130.53 140.821 130.723 140.663C130.934 140.49 131.096 140.322 131.208 140.159C131.318 139.999 131.403 139.853 131.464 139.72C131.522 139.59 131.566 139.478 131.594 139.384C131.623 139.291 131.66 139.225 131.706 139.187C131.751 139.15 131.797 139.127 131.843 139.119C131.885 139.113 131.947 139.124 132.028 139.151L132.542 139.338Z" fill="#A6A8A7"/>
<path d="M122.005 147.999L118.218 142.235L119.236 141.566L121.008 144.263L123.774 142.446L122.002 139.749L123.02 139.08L126.807 144.844L125.789 145.513L124.278 143.214L121.513 145.031L123.024 147.33L122.005 147.999Z" fill="#A6A8A7"/>
<path d="M113.87 148.124C114.361 147.856 114.766 147.601 115.086 147.359C115.404 147.122 115.648 146.897 115.82 146.683C115.988 146.472 116.088 146.271 116.12 146.082C116.147 145.896 116.118 145.717 116.032 145.547C115.951 145.385 115.854 145.258 115.742 145.167C115.63 145.076 115.51 145.015 115.382 144.983C115.252 144.957 115.117 144.956 114.977 144.981C114.835 145.012 114.693 145.063 114.551 145.135C114.361 145.231 114.196 145.337 114.056 145.453C113.918 145.573 113.799 145.705 113.698 145.847C113.593 145.992 113.503 146.146 113.429 146.311C113.35 146.478 113.283 146.656 113.227 146.847L113.87 148.124ZM118.635 148.878C118.46 149.378 118.217 149.808 117.906 150.168C117.594 150.529 117.2 150.83 116.721 151.071C116.377 151.244 116.042 151.342 115.718 151.363C115.393 151.385 115.088 151.34 114.804 151.23C114.519 151.119 114.258 150.943 114.019 150.703C113.781 150.462 113.575 150.169 113.401 149.825L111.415 145.885L111.895 145.643C112 145.59 112.089 145.565 112.163 145.569C112.238 145.577 112.317 145.624 112.401 145.709L112.816 146.231C112.903 145.999 112.994 145.786 113.088 145.59C113.185 145.399 113.298 145.22 113.427 145.053C113.559 144.891 113.712 144.74 113.886 144.601C114.054 144.461 114.255 144.331 114.49 144.212C114.729 144.092 114.971 144.011 115.214 143.969C115.46 143.932 115.695 143.94 115.921 143.994C116.142 144.05 116.35 144.156 116.546 144.312C116.739 144.474 116.906 144.694 117.047 144.974C117.17 145.217 117.221 145.484 117.199 145.774C117.18 146.069 117.064 146.378 116.852 146.704C116.64 147.03 116.321 147.369 115.894 147.721C115.469 148.078 114.91 148.441 114.217 148.811L114.459 149.291C114.7 149.769 114.985 150.078 115.315 150.217C115.646 150.36 116.01 150.331 116.408 150.131C116.675 149.996 116.883 149.848 117.03 149.687C117.176 149.533 117.294 149.379 117.385 149.226C117.474 149.08 117.549 148.948 117.612 148.83C117.672 148.718 117.749 148.638 117.842 148.591C117.915 148.555 117.987 148.541 118.059 148.551C118.132 148.565 118.201 148.591 118.266 148.63L118.635 148.878Z" fill="#A6A8A7"/>
<path d="M103.818 155.821C103.789 155.936 103.735 156.04 103.655 156.133C103.576 156.226 103.48 156.291 103.368 156.327L102.469 156.623L103.349 153.567C103.4 153.374 103.465 153.207 103.543 153.066C103.623 152.93 103.735 152.807 103.881 152.697C103.655 152.709 103.451 152.678 103.269 152.604C103.089 152.535 102.912 152.426 102.739 152.277L100.128 150.133L100.93 149.869C101.137 149.801 101.308 149.783 101.442 149.815C101.577 149.847 101.707 149.915 101.831 150.017L103.775 151.636C104.088 151.905 104.448 151.974 104.853 151.84L105.558 151.609L104.588 148.659L105.746 148.279L107.902 154.837L106.744 155.218L105.813 152.385L105.192 152.589C104.847 152.702 104.626 152.937 104.528 153.294L103.818 155.821Z" fill="#A6A8A7"/>
<path d="M94.9831 158.374L96.7609 148.812C96.7806 148.714 96.8155 148.632 96.8654 148.565C96.9109 148.498 96.9957 148.451 97.1196 148.423L97.9961 148.225L97.3725 151.172L101.583 156.878L100.561 157.11C100.459 157.133 100.373 157.124 100.304 157.084C100.231 157.05 100.176 157.004 100.14 156.947L97.3806 153.118C97.2676 152.948 97.1637 152.767 97.0689 152.574C97.0541 152.797 97.0323 153.009 97.0036 153.211L96.2156 157.836C96.2051 157.913 96.1739 157.98 96.122 158.039C96.0666 158.102 95.9991 158.143 95.9194 158.161L94.9831 158.374Z" fill="#A6A8A7"/>
<path d="M86.9977 152.473L88.1525 152.326C88.2516 152.313 88.3335 152.328 88.3984 152.37C88.4593 152.417 88.5118 152.469 88.5559 152.528L90.6208 154.989C90.6308 154.924 90.643 154.858 90.6574 154.792C90.668 154.731 90.6881 154.674 90.7178 154.62L92.0137 152.086C92.0507 152.017 92.0927 151.952 92.1398 151.891C92.183 151.835 92.2496 151.802 92.3397 151.79L93.4135 151.653L91.465 155.471L94.1936 158.506L93.0387 158.654C92.9397 158.667 92.8656 158.66 92.8166 158.634C92.7675 158.608 92.7213 158.569 92.6778 158.515L90.668 156.163C90.6487 156.299 90.6086 156.432 90.5476 156.563L89.3516 158.913C89.3191 158.981 89.2827 159.036 89.2423 159.077C89.1979 159.124 89.142 159.152 89.0745 159.161L87.9669 159.302L89.8519 155.739L86.9977 152.473Z" fill="#A6A8A7"/>
<path d="M80.3239 159.597L80.1642 152.702L81.3825 152.673L81.4573 155.9L84.7653 155.823L84.6906 152.597L85.9089 152.568L86.0687 159.464L84.8503 159.492L84.7866 156.742L81.4786 156.819L81.5423 159.568L80.3239 159.597Z" fill="#A6A8A7"/>
<path d="M72.1151 156.387C72.0891 156.667 72.1061 156.926 72.166 157.164C72.221 157.406 72.3176 157.618 72.4558 157.799C72.589 157.985 72.7598 158.133 72.9684 158.244C73.1765 158.359 73.4184 158.429 73.6941 158.455C74.2726 158.508 74.7471 158.381 75.1175 158.074C75.483 157.77 75.7341 157.324 75.8708 156.735L72.1151 156.387ZM71.4378 153.076C71.6037 152.909 71.7969 152.767 72.0174 152.651C72.2374 152.539 72.4712 152.451 72.7187 152.388C72.9617 152.324 73.2116 152.283 73.4685 152.266C73.7258 152.244 73.9787 152.245 74.2273 152.268C74.7018 152.312 75.1329 152.432 75.5205 152.627C75.9031 152.827 76.227 153.094 76.4922 153.429C76.7526 153.767 76.9429 154.173 77.0632 154.644C77.1835 155.116 77.2162 155.648 77.1613 156.24C77.1168 156.719 77.003 157.159 76.8198 157.562C76.632 157.964 76.3863 158.303 76.0825 158.58C75.7782 158.862 75.4193 159.071 75.0056 159.205C74.5916 159.345 74.136 159.391 73.6388 159.345C73.2275 159.307 72.8544 159.202 72.5194 159.029C72.1795 158.861 71.8951 158.634 71.6663 158.348C71.4326 158.067 71.2613 157.727 71.1523 157.33C71.0429 156.937 71.0109 156.496 71.0562 156.008C71.0738 155.818 71.1059 155.693 71.1525 155.634C71.199 155.574 71.2788 155.55 71.3918 155.56L75.9813 155.986C76.0081 155.551 75.9843 155.168 75.9102 154.838C75.8315 154.507 75.7073 154.224 75.5376 153.99C75.3675 153.76 75.1564 153.578 74.9043 153.445C74.6519 153.317 74.3629 153.238 74.0375 153.208C73.7347 153.18 73.4717 153.189 73.2485 153.237C73.0203 153.289 72.8233 153.348 72.6576 153.415C72.4919 153.481 72.3539 153.544 72.2436 153.602C72.1285 153.664 72.0324 153.692 71.9556 153.685C71.8562 153.675 71.7829 153.63 71.7358 153.548L71.4378 153.076Z" fill="#A6A8A7"/>
<path d="M43.3517 143.331C43.028 143.138 42.7272 143.009 42.4491 142.943C42.171 142.878 41.9183 142.868 41.6912 142.912C41.4578 142.958 41.2514 143.051 41.072 143.193C40.8903 143.338 40.7333 143.522 40.6009 143.744C40.343 144.177 40.2938 144.61 40.4532 145.043C40.6102 145.48 40.9968 145.882 41.613 146.249L43.4262 147.329L45.165 144.411L43.3517 143.331ZM41.2414 150.997L42.9453 148.137L41.448 147.245C41.1282 147.054 40.8304 146.924 40.5546 146.855C40.275 146.784 40.0219 146.765 39.7955 146.799C39.5652 146.831 39.3607 146.913 39.1821 147.044C39.0011 147.179 38.8479 147.352 38.7225 147.563C38.4275 148.058 38.3608 148.507 38.5224 148.91C38.6817 149.316 39.0733 149.705 39.6972 150.077L41.2414 150.997ZM39.1641 150.972C38.6494 150.665 38.237 150.351 37.927 150.029C37.613 149.704 37.3928 149.378 37.2665 149.049C37.1362 148.718 37.0958 148.382 37.1454 148.042C37.1926 147.705 37.3172 147.367 37.5193 147.028C37.6424 146.821 37.7941 146.642 37.9742 146.491C38.1481 146.341 38.3481 146.222 38.5744 146.135C38.8006 146.048 39.0527 145.997 39.3305 145.983C39.6022 145.971 39.895 146.002 40.2089 146.079C39.6625 145.595 39.3316 145.099 39.2164 144.592C39.0949 144.086 39.1898 143.572 39.5011 143.05C39.7125 142.695 39.9716 142.411 40.2784 142.197C40.5813 141.981 40.9222 141.844 41.3011 141.784C41.6761 141.722 42.0817 141.742 42.518 141.843C42.9519 141.949 43.4028 142.141 43.8708 142.419L46.8305 144.182L41.8372 152.564L39.1641 150.972Z" fill="#A6A8A7"/>
<path d="M34.9582 140.067C35.4134 140.39 35.82 140.643 36.1782 140.824C36.53 141.007 36.8396 141.128 37.107 141.189C37.3707 141.248 37.5945 141.25 37.7783 141.196C37.9584 141.139 38.1062 141.035 38.2217 140.883C38.3317 140.739 38.4031 140.596 38.4359 140.456C38.4687 140.315 38.4715 140.18 38.4443 140.051C38.4108 139.923 38.3522 139.801 38.2686 139.686C38.1786 139.572 38.0705 139.467 37.9441 139.371C37.7744 139.242 37.6067 139.14 37.4411 139.065C37.2728 138.994 37.1025 138.944 36.9302 138.915C36.7543 138.884 36.576 138.871 36.3953 138.876C36.211 138.878 36.0207 138.896 35.8244 138.929L34.9582 140.067ZM36.3653 144.681C35.8392 144.742 35.346 144.712 34.8857 144.59C34.4254 144.467 33.9822 144.244 33.5561 143.92C33.2492 143.686 33.015 143.428 32.8537 143.145C32.6923 142.863 32.5991 142.569 32.5741 142.265C32.5491 141.96 32.5927 141.649 32.7049 141.329C32.817 141.009 32.99 140.696 33.2237 140.389L35.8965 136.879L36.3244 137.205C36.4183 137.276 36.4796 137.346 36.5081 137.413C36.5339 137.484 36.5269 137.576 36.487 137.688L36.1994 138.29C36.4456 138.267 36.6772 138.255 36.8942 138.255C37.1084 138.258 37.3188 138.281 37.5255 138.325C37.7294 138.372 37.9318 138.443 38.1326 138.539C38.3326 138.628 38.5373 138.753 38.7468 138.912C38.9598 139.075 39.1382 139.256 39.282 139.457C39.4231 139.661 39.5186 139.877 39.5687 140.103C39.6152 140.327 39.6112 140.56 39.5568 140.804C39.496 141.049 39.3707 141.296 39.181 141.545C39.016 141.762 38.7983 141.924 38.5279 142.032C38.2548 142.143 37.9255 142.175 37.54 142.127C37.1545 142.078 36.7098 141.94 36.2058 141.71C35.6991 141.484 35.1278 141.14 34.4921 140.679L34.1663 141.107C33.8418 141.533 33.6891 141.924 33.7083 142.281C33.7248 142.642 33.9099 142.957 34.2638 143.226C34.5022 143.408 34.726 143.53 34.9352 143.592C35.1381 143.655 35.328 143.694 35.5049 143.709C35.6755 143.725 35.8275 143.735 35.9609 143.74C36.0879 143.745 36.193 143.78 36.276 143.843C36.341 143.892 36.3846 143.951 36.4068 144.019C36.4263 144.091 36.433 144.165 36.427 144.24L36.3653 144.681Z" fill="#A6A8A7"/>
<path d="M22.3767 133.676L27.2535 128.799L33.8154 135.361L28.9385 140.238L28.0768 139.376L32.3037 135.149L30.3154 133.161L26.0885 137.388L25.2267 136.526L29.4537 132.299L27.4654 130.311L23.2384 134.538L22.3767 133.676Z" fill="#A6A8A7"/>
<path d="M18.5227 127.832C18.1738 127.759 17.833 127.615 17.5003 127.398C17.1649 127.178 16.8484 126.853 16.5507 126.424C16.3125 126.081 16.1457 125.75 16.0502 125.429C15.951 125.111 15.9095 124.817 15.9258 124.546C15.9395 124.271 16.0047 124.027 16.1215 123.813C16.2321 123.598 16.3824 123.425 16.5725 123.293C16.6844 123.215 16.8147 123.152 16.9637 123.104C17.11 123.052 17.2676 123.028 17.4364 123.033C17.6052 123.037 17.7833 123.071 17.9709 123.134C18.1584 123.197 18.3493 123.305 18.5436 123.457C18.4006 123.021 18.3772 122.617 18.4734 122.246C18.5671 121.872 18.7872 121.564 19.134 121.323C19.3949 121.142 19.6731 121.037 19.9685 121.009C20.2601 120.983 20.5504 121.019 20.8393 121.117C21.1245 121.218 21.3994 121.375 21.6641 121.589C21.9262 121.799 22.1583 122.05 22.3602 122.341C22.4871 122.523 22.5997 122.721 22.6982 122.935C22.7941 123.144 22.8688 123.363 22.9222 123.592C22.9719 123.822 22.9983 124.055 23.0015 124.291C23.0022 124.522 22.9688 124.753 22.9013 124.982L22.3437 124.955C22.2492 124.954 22.1735 124.913 22.1166 124.831C22.07 124.764 22.0506 124.672 22.0585 124.556C22.06 124.439 22.0574 124.3 22.0506 124.139C22.0437 123.978 22.0145 123.796 21.9628 123.595C21.9048 123.392 21.7943 123.173 21.6312 122.938C21.4888 122.733 21.3377 122.567 21.1779 122.44C21.0118 122.313 20.8452 122.224 20.678 122.174C20.5109 122.124 20.3451 122.112 20.1806 122.138C20.0162 122.164 19.8612 122.227 19.7158 122.328C19.4362 122.523 19.2922 122.797 19.2838 123.151C19.2728 123.501 19.4317 123.913 19.7605 124.386L20.2071 125.029L19.5472 125.488L19.1006 124.844C18.9582 124.639 18.8096 124.469 18.6547 124.333C18.496 124.201 18.3393 124.102 18.1845 124.038C18.0296 123.975 17.8793 123.949 17.7335 123.962C17.584 123.977 17.4477 124.028 17.3246 124.113C17.2128 124.191 17.1247 124.291 17.0603 124.413C16.9932 124.531 16.9587 124.668 16.9566 124.825C16.952 124.977 16.9803 125.145 17.0417 125.329C17.1031 125.513 17.205 125.708 17.3474 125.913C17.5028 126.136 17.6572 126.311 17.8106 126.436C17.9615 126.558 18.1006 126.655 18.2279 126.727C18.3526 126.795 18.4606 126.847 18.5519 126.883C18.6433 126.919 18.7058 126.962 18.7394 127.01C18.7731 127.058 18.7922 127.106 18.7969 127.152C18.799 127.195 18.7831 127.256 18.7493 127.335L18.5227 127.832Z" fill="#A6A8A7"/>
<path d="M15.0342 116.64C15.3215 117.119 15.5929 117.513 15.8484 117.823C16.0977 118.131 16.3326 118.366 16.5531 118.529C16.7715 118.688 16.9757 118.78 17.1657 118.804C17.3535 118.824 17.5307 118.788 17.6973 118.695C17.8559 118.607 17.9784 118.505 18.0648 118.389C18.1511 118.274 18.2077 118.151 18.2345 118.022C18.2551 117.891 18.2502 117.756 18.2196 117.617C18.183 117.477 18.126 117.337 18.0487 117.198C17.945 117.012 17.8323 116.851 17.7105 116.716C17.5848 116.584 17.4487 116.47 17.3022 116.375C17.1536 116.276 16.9955 116.192 16.8279 116.125C16.6581 116.053 16.4767 115.993 16.2835 115.944L15.0342 116.64ZM14.4747 121.431C13.9681 121.277 13.5284 121.051 13.1556 120.755C12.7829 120.458 12.4663 120.076 12.2059 119.608C12.0183 119.271 11.9072 118.941 11.8726 118.617C11.838 118.294 11.8702 117.987 11.9691 117.698C12.0681 117.41 12.2331 117.141 12.4639 116.893C12.6947 116.645 12.9787 116.428 13.3159 116.24L17.1711 114.095L17.4326 114.565C17.49 114.668 17.5182 114.756 17.5174 114.829C17.5126 114.905 17.4695 114.986 17.388 115.073L16.883 115.51C17.1181 115.587 17.335 115.668 17.5339 115.755C17.7288 115.844 17.9123 115.95 18.0843 116.072C18.2524 116.197 18.4092 116.343 18.5548 116.512C18.7022 116.674 18.8399 116.87 18.9679 117.1C19.0981 117.334 19.1888 117.572 19.2402 117.813C19.2875 118.057 19.2888 118.293 19.2439 118.52C19.1969 118.744 19.0996 118.956 18.9521 119.158C18.7984 119.358 18.5847 119.534 18.311 119.686C18.073 119.818 17.8085 119.88 17.5176 119.87C17.2226 119.863 16.9082 119.76 16.5744 119.561C16.2405 119.363 15.8887 119.057 15.519 118.645C15.1453 118.235 14.7596 117.691 14.3619 117.014L13.8919 117.275C13.4239 117.536 13.1272 117.833 13.0018 118.168C12.8724 118.505 12.9158 118.868 13.1321 119.256C13.2778 119.518 13.434 119.719 13.6007 119.86C13.7613 120 13.9196 120.112 14.0758 120.196C14.2257 120.279 14.3609 120.349 14.4813 120.407C14.5955 120.463 14.678 120.536 14.7288 120.627C14.7685 120.699 14.7848 120.77 14.7778 120.842C14.7669 120.915 14.7436 120.985 14.7079 121.052L14.4747 121.431Z" fill="#A6A8A7"/>
<path d="M8.26635 110.439C8.14949 110.42 8.04119 110.375 7.94147 110.304C7.84174 110.234 7.76849 110.144 7.72171 110.036L7.34655 109.167L10.4691 109.769C10.6665 109.803 10.8386 109.852 10.9854 109.917C11.128 109.984 11.2606 110.085 11.3831 110.22C11.3509 109.997 11.3635 109.791 11.4208 109.603C11.4739 109.417 11.5667 109.231 11.6991 109.045L13.6002 106.252L13.9348 107.027C14.0212 107.227 14.0544 107.395 14.0346 107.533C14.0147 107.67 13.9593 107.805 13.8685 107.938L12.4312 110.02C12.1908 110.356 12.1551 110.72 12.3242 111.111L12.6184 111.793L15.4687 110.562L15.9518 111.681L9.61369 114.418L9.13058 113.299L11.8683 112.117L11.6092 111.517C11.4653 111.183 11.2112 110.984 10.8468 110.919L8.26635 110.439Z" fill="#A6A8A7"/>
<path d="M9.2317 102.839C9.41734 103.366 9.60431 103.807 9.79262 104.162C9.97522 104.513 10.1583 104.791 10.3417 104.995C10.5238 105.194 10.7055 105.325 10.8869 105.386C11.0669 105.444 11.2478 105.444 11.4295 105.386C11.6026 105.331 11.743 105.256 11.8508 105.16C11.9585 105.064 12.0384 104.956 12.0905 104.834C12.1369 104.71 12.1591 104.577 12.157 104.435C12.1492 104.29 12.1213 104.142 12.0734 103.99C12.0091 103.787 11.9308 103.607 11.8385 103.45C11.7418 103.295 11.6313 103.156 11.5069 103.034C11.3811 102.907 11.2429 102.794 11.0922 102.694C10.9402 102.589 10.7745 102.494 10.5949 102.408L9.2317 102.839ZM7.72452 107.422C7.25901 107.169 6.87334 106.86 6.56748 106.495C6.26163 106.13 6.02796 105.692 5.86647 105.182C5.75015 104.814 5.70742 104.468 5.73827 104.144C5.76913 103.82 5.86196 103.526 6.01676 103.263C6.17156 103 6.38686 102.77 6.66266 102.573C6.93845 102.377 7.26028 102.22 7.62813 102.104L11.8347 100.774L11.9969 101.287C12.0324 101.399 12.0425 101.491 12.027 101.563C12.0073 101.636 11.9487 101.706 11.8515 101.775L11.2693 102.102C11.4842 102.225 11.6804 102.348 11.8579 102.473C12.0311 102.599 12.1897 102.739 12.3337 102.894C12.4734 103.05 12.5978 103.224 12.7067 103.419C12.8187 103.607 12.9143 103.827 12.9937 104.078C13.0744 104.333 13.1158 104.584 13.1177 104.831C13.1153 105.079 13.0693 105.31 12.9799 105.524C12.8891 105.734 12.7512 105.923 12.5663 106.091C12.3757 106.256 12.1311 106.385 11.8325 106.48C11.5728 106.562 11.3014 106.569 11.0182 106.502C10.7307 106.436 10.4432 106.272 10.1559 106.01C9.86852 105.749 9.58499 105.379 9.30529 104.901C9.02126 104.424 8.75221 103.815 8.49815 103.071L7.98532 103.233C7.47464 103.395 7.12437 103.627 6.9345 103.93C6.7403 104.234 6.71026 104.598 6.84437 105.022C6.93469 105.308 7.04743 105.537 7.18259 105.708C7.31204 105.877 7.4448 106.018 7.58084 106.132C7.71119 106.243 7.82957 106.339 7.93598 106.42C8.0367 106.497 8.1028 106.586 8.13428 106.685C8.15891 106.763 8.16065 106.836 8.13949 106.905C8.114 106.975 8.07712 107.039 8.02885 107.097L7.72452 107.422Z" fill="#A6A8A7"/>
<path d="M5.11818 99.7557C4.8258 99.5519 4.56906 99.2851 4.34798 98.9554C4.12599 98.6212 3.96218 98.1985 3.85656 97.6873C3.77206 97.2784 3.74879 96.9078 3.78673 96.5755C3.82023 96.2441 3.89763 95.957 4.01893 95.7141C4.13932 95.4668 4.29517 95.2677 4.48649 95.1169C4.67245 94.9626 4.87877 94.8621 5.10547 94.8152C5.23882 94.7877 5.38344 94.781 5.53931 94.7951C5.69426 94.8048 5.84852 94.8448 6.00207 94.915C6.15563 94.9853 6.30627 95.0862 6.45399 95.2179C6.6017 95.3496 6.735 95.5237 6.85388 95.7402C6.8937 95.2823 7.03059 94.9018 7.26456 94.5986C7.49762 94.2909 7.82084 94.0943 8.23423 94.0089C8.54538 93.9446 8.84234 93.9574 9.1251 94.0473C9.40341 94.1381 9.65627 94.2851 9.88367 94.4884C10.1066 94.6927 10.2978 94.9451 10.4573 95.2459C10.6159 95.5422 10.731 95.8637 10.8026 96.2104C10.8476 96.4282 10.8735 96.6546 10.8804 96.8896C10.8863 97.1201 10.869 97.3508 10.8287 97.5816C10.7839 97.8133 10.7167 98.0381 10.6273 98.2559C10.537 98.4692 10.4159 98.668 10.2639 98.8524L9.76164 98.6085C9.67505 98.5708 9.62166 98.503 9.60145 98.4052C9.58492 98.3252 9.60303 98.2334 9.65578 98.1298C9.70317 98.0227 9.75532 97.8937 9.81222 97.7429C9.86912 97.5921 9.91339 97.4138 9.94502 97.208C9.97128 96.9986 9.95548 96.7539 9.89762 96.4739C9.84711 96.2294 9.77321 96.0176 9.67593 95.8384C9.57329 95.6557 9.45485 95.5086 9.32062 95.3973C9.18638 95.286 9.03857 95.21 8.87719 95.1691C8.71581 95.1283 8.54844 95.1258 8.37508 95.1617C8.0417 95.2305 7.80171 95.4261 7.6551 95.7484C7.50757 96.0663 7.49212 96.5074 7.60876 97.072L7.76719 97.8387L6.98042 98.0013L6.82199 97.2345C6.77147 96.99 6.70156 96.7751 6.61225 96.5896C6.5185 96.405 6.41294 96.253 6.29557 96.1336C6.17819 96.0142 6.04993 95.9318 5.91077 95.8863C5.76717 95.8419 5.62203 95.8348 5.47534 95.8651C5.34199 95.8926 5.22173 95.9499 5.11457 96.037C5.0065 96.1195 4.92087 96.2322 4.85768 96.3751C4.79358 96.5135 4.75368 96.6793 4.738 96.8726C4.72231 97.0658 4.73973 97.2847 4.79024 97.5292C4.84535 97.7959 4.91886 98.0171 5.01077 98.1927C5.10177 98.364 5.1917 98.5076 5.28057 98.6237C5.36851 98.7353 5.44742 98.8256 5.5173 98.8945C5.58717 98.9635 5.62807 99.0269 5.64001 99.0847C5.65195 99.1425 5.65094 99.1937 5.63698 99.2383C5.62211 99.2784 5.5837 99.3281 5.52176 99.3872L5.11818 99.7557Z" fill="#A6A8A7"/>
<path d="M2.16653 82.717L9.0548 82.3711L9.11591 83.5883L5.89277 83.7501L6.05869 87.0548L9.28183 86.893L9.34294 88.1102L2.45467 88.456L2.39356 87.2389L5.14071 87.1009L4.97479 83.7962L2.22764 83.9341L2.16653 82.717Z" fill="#A6A8A7"/>
<path d="M6.1681 75.2866C6.14963 75.8449 6.16368 76.3234 6.21027 76.7222C6.25263 77.1162 6.32224 77.4415 6.41911 77.698C6.51627 77.95 6.63813 78.1377 6.78469 78.261C6.93154 78.3799 7.10008 78.4455 7.29031 78.458C7.47148 78.4699 7.62967 78.4507 7.76488 78.4005C7.9001 78.3502 8.014 78.2781 8.1066 78.1841C8.19497 78.0853 8.264 77.9693 8.31368 77.8361C8.35914 77.6981 8.38707 77.5498 8.39748 77.3913C8.41147 77.1784 8.40388 76.9823 8.37471 76.803C8.34102 76.6234 8.28847 76.4539 8.21706 76.2945C8.14595 76.1307 8.05839 75.9748 7.95438 75.827C7.85067 75.6746 7.73081 75.5257 7.5948 75.3803L6.1681 75.2866ZM3.09889 79.0083C2.75702 78.6038 2.50992 78.1759 2.35761 77.7246C2.2053 77.2734 2.14669 76.7806 2.1818 76.2461C2.20708 75.8611 2.29295 75.5233 2.4394 75.2328C2.58585 74.9422 2.779 74.7024 3.01885 74.5134C3.25869 74.3245 3.54282 74.1885 3.87124 74.1055C4.19965 74.0224 4.55635 73.9935 4.94134 74.0188L9.34372 74.308L9.30846 74.8447C9.30073 74.9624 9.27666 75.0518 9.23626 75.1129C9.19134 75.1736 9.11107 75.2184 8.99546 75.2471L8.33433 75.3402C8.49001 75.5324 8.62787 75.7188 8.74792 75.8996C8.86343 76.08 8.96023 76.2683 9.03832 76.4645C9.11188 76.6604 9.16417 76.8685 9.19518 77.0889C9.23102 77.305 9.24031 77.5444 9.22306 77.8071C9.20551 78.0743 9.15276 78.3233 9.06483 78.5541C8.97236 78.7845 8.8456 78.9832 8.68453 79.15C8.52376 79.3123 8.32673 79.4381 8.09343 79.5274C7.85589 79.6119 7.58087 79.6438 7.26835 79.6233C6.9966 79.6055 6.74108 79.5136 6.50179 79.3478C6.25798 79.1817 6.0497 78.9246 5.87695 78.5767C5.70421 78.2287 5.5744 77.7813 5.48751 77.2343C5.39609 76.6869 5.36706 76.0209 5.4004 75.2362L4.86369 75.2009C4.32925 75.1658 3.91856 75.2548 3.63164 75.468C3.34019 75.6808 3.17988 76.0092 3.15073 76.453C3.1311 76.752 3.15309 77.0059 3.2167 77.2147C3.27607 77.4188 3.34841 77.5987 3.43371 77.7544C3.51477 77.9053 3.59023 78.0376 3.66009 78.1513C3.72571 78.2603 3.75511 78.3668 3.74826 78.471C3.74291 78.5525 3.71792 78.6214 3.67329 78.6776C3.62413 78.7335 3.5665 78.7797 3.50042 78.8163L3.09889 79.0083Z" fill="#A6A8A7"/>
<path d="M4.56672 62.9232C4.48242 62.8401 4.42016 62.7408 4.37993 62.6254C4.3397 62.51 4.33197 62.3946 4.35673 62.2792L4.55529 61.3539L6.74916 63.6561C6.8905 63.7978 7.00205 63.9378 7.0838 64.0761C7.16111 64.2134 7.21052 64.3725 7.23203 64.5536C7.33543 64.3529 7.46498 64.1927 7.62067 64.0729C7.77192 63.9522 7.95534 63.8546 8.17093 63.7801L11.3401 62.608L11.163 63.4334C11.1173 63.6464 11.0466 63.803 10.9508 63.9032C10.855 64.0033 10.7315 64.0813 10.5803 64.137L8.20196 64.9984C7.81104 65.1327 7.57083 65.4085 7.48131 65.8256L7.3256 66.5512L10.3611 67.2026L10.1054 68.3942L3.35536 66.9457L3.61106 65.7541L6.52677 66.3798L6.66391 65.7408C6.7401 65.3857 6.64873 65.076 6.3898 64.8115L4.56672 62.9232Z" fill="#A6A8A7"/>
<path d="M6.7882 54.0716L14.1454 60.4326C14.2196 60.4989 14.2731 60.5706 14.3059 60.6476C14.34 60.7203 14.3379 60.8172 14.2996 60.9384L14.0287 61.7953L11.7988 59.7691L4.74775 60.5243L5.06388 59.5246C5.09536 59.4251 5.14595 59.3554 5.21568 59.3155C5.28244 59.27 5.34954 59.246 5.41697 59.2435L10.1149 58.7939C10.3186 58.7822 10.5275 58.784 10.7416 58.7993C10.5574 58.6744 10.3853 58.5486 10.2254 58.4219L6.63015 55.407C6.56912 55.3591 6.52654 55.298 6.50242 55.2238C6.47535 55.1438 6.47413 55.0649 6.49876 54.987L6.7882 54.0716Z" fill="#A6A8A7"/>
<path d="M15.9833 49.9634L15.5258 51.034C15.4866 51.1258 15.4324 51.1891 15.3633 51.2237C15.2918 51.2524 15.2197 51.2709 15.147 51.2793L11.9792 51.8136C12.0305 51.8553 12.0809 51.899 12.1305 51.9449C12.1776 51.9847 12.217 52.0312 12.2486 52.0842L13.7771 54.4848C13.8177 54.5515 13.8523 54.6206 13.881 54.6921C13.9073 54.7576 13.9026 54.8321 13.8669 54.9156L13.4415 55.9111L11.1358 52.2972L7.13691 53.113L7.59445 52.0424C7.63369 51.9506 7.67684 51.8901 7.72389 51.8608C7.77095 51.8316 7.82874 51.8118 7.89727 51.8016L10.9425 51.2595C10.8358 51.1744 10.7412 51.0722 10.6588 50.9531L9.23872 48.7321C9.19634 48.6696 9.16738 48.6103 9.15182 48.5543C9.13388 48.4923 9.13829 48.43 9.16505 48.3674L9.60385 47.3407L11.7216 50.7706L15.9833 49.9634Z" fill="#A6A8A7"/>
<path d="M13.2534 40.5373L19.2677 43.9131L18.6712 44.9759L15.857 43.3963L14.2374 46.2817L17.0516 47.8613L16.4551 48.9241L10.4408 45.5483L11.0373 44.4855L13.4359 45.8318L15.0555 42.9464L12.6569 41.6001L13.2534 40.5373Z" fill="#A6A8A7"/>
<path d="M19.8462 35.554C19.6175 35.3902 19.3852 35.274 19.1494 35.2057C18.9126 35.1309 18.681 35.1074 18.4546 35.1351C18.2272 35.1564 18.0131 35.2292 17.8124 35.3535C17.6081 35.4751 17.4253 35.6484 17.264 35.8735C16.9257 36.3458 16.7958 36.8195 16.8743 37.2945C16.9518 37.7631 17.2103 38.2051 17.6498 38.6204L19.8462 35.554ZM23.0463 36.6403C23.1066 36.8677 23.1314 37.106 23.1205 37.355C23.1059 37.6014 23.0636 37.8475 22.9937 38.0933C22.9263 38.3354 22.8353 38.5717 22.7205 38.8021C22.6093 39.0352 22.4811 39.2532 22.3357 39.4561C22.0582 39.8436 21.7372 40.1552 21.3728 40.3911C21.0074 40.6207 20.6133 40.7656 20.1906 40.8257C19.7668 40.8794 19.321 40.8393 18.8532 40.7052C18.3853 40.571 17.9097 40.3309 17.4263 39.9846C17.0352 39.7044 16.7122 39.3837 16.4573 39.0225C16.205 38.6575 16.0359 38.274 15.9499 37.8718C15.8602 37.467 15.8616 37.052 15.954 36.6268C16.0426 36.199 16.2324 35.7822 16.5231 35.3763C16.7636 35.0405 17.0429 34.7715 17.3608 34.5693C17.6776 34.3608 18.0171 34.2299 18.3791 34.1765C18.7401 34.1168 19.1197 34.1403 19.5179 34.2469C19.9125 34.3508 20.309 34.5455 20.7075 34.831C20.8625 34.942 20.9539 35.0326 20.9818 35.1028C21.0097 35.1731 20.9906 35.2543 20.9245 35.3465L18.2404 39.0937C18.6025 39.3364 18.945 39.5091 19.2678 39.6119C19.5932 39.711 19.9 39.7465 20.1881 39.7184C20.4726 39.6877 20.7357 39.597 20.9776 39.4464C21.2158 39.2932 21.43 39.0837 21.6203 38.818C21.7974 38.5708 21.9217 38.3388 21.9932 38.1221C22.0637 37.899 22.112 37.699 22.1381 37.5223C22.1642 37.3456 22.1799 37.195 22.1854 37.0705C22.1898 36.9396 22.2144 36.8428 22.2594 36.7801C22.3175 36.6989 22.3938 36.6586 22.4883 36.6593L23.0463 36.6403Z" fill="#A6A8A7"/>
<path d="M48.5599 15.5782C48.8975 15.4111 49.1692 15.2285 49.375 15.0303C49.5808 14.8322 49.7268 14.6258 49.8129 14.4109C49.901 14.19 49.9344 13.9658 49.913 13.7384C49.8895 13.5069 49.8204 13.2752 49.7056 13.0434C49.4821 12.5918 49.1452 12.3155 48.695 12.2142C48.2427 12.1089 47.6953 12.2153 47.0525 12.5335L45.161 13.4699L46.6684 16.5147L48.5599 15.5782ZM43.267 9.64421L44.7442 12.6279L46.3062 11.8546C46.6398 11.6895 46.9104 11.5099 47.1183 11.3158C47.3301 11.1198 47.4832 10.9174 47.5774 10.7087C47.6757 10.498 47.7181 10.282 47.7048 10.0606C47.6894 9.83526 47.6274 9.61274 47.5186 9.39308C47.2629 8.87647 46.922 8.57673 46.4961 8.49385C46.0681 8.4069 45.5287 8.52453 44.8779 8.84674L43.267 9.64421ZM44.4157 7.91319C44.9527 7.64737 45.4405 7.47168 45.8793 7.38613C46.3222 7.29857 46.716 7.29099 47.0608 7.3634C47.4097 7.4338 47.7136 7.58217 47.9725 7.80851C48.2294 8.03079 48.4455 8.31887 48.6207 8.67277C48.7274 8.88836 48.7955 9.11293 48.8251 9.34649C48.8567 9.57396 48.8476 9.80635 48.798 10.0436C48.7483 10.281 48.654 10.5201 48.515 10.7611C48.3781 10.996 48.1924 11.2247 47.9581 11.447C48.6612 11.2509 49.257 11.2421 49.7455 11.4206C50.2361 11.5931 50.6163 11.9518 50.8862 12.4969C51.0694 12.8671 51.1674 13.2389 51.1801 13.6125C51.1969 13.984 51.1275 14.3451 50.9718 14.6956C50.8203 15.0442 50.5835 15.3741 50.2615 15.6855C49.9376 15.9927 49.5315 16.2672 49.0434 16.5088L45.9559 18.0373L41.6273 9.29366L44.4157 7.91319Z" fill="#A6A8A7"/>
<path d="M55.678 10.3253C55.1593 10.5326 54.7267 10.7376 54.3802 10.9404C54.0364 11.1375 53.7665 11.3318 53.5704 11.5236C53.3786 11.7138 53.2557 11.9008 53.2016 12.0845C53.1518 12.2667 53.1593 12.4475 53.2243 12.6267C53.2862 12.7974 53.3673 12.9345 53.4676 13.0382C53.5679 13.1418 53.6797 13.2172 53.803 13.2642C53.929 13.3055 54.0629 13.3221 54.2049 13.3141C54.3495 13.3003 54.4965 13.2663 54.6459 13.2122C54.8465 13.1395 55.023 13.0538 55.1755 12.9551C55.3265 12.8521 55.4606 12.7359 55.5778 12.6065C55.6993 12.4756 55.8069 12.3328 55.9005 12.1782C55.9984 12.022 56.0866 11.8524 56.1652 11.6695L55.678 10.3253ZM51.037 9.00917C51.2701 8.5336 51.5628 8.13546 51.9148 7.81475C52.2669 7.49404 52.6947 7.24243 53.1983 7.05993C53.561 6.92847 53.9048 6.87145 54.2298 6.88886C54.5547 6.90627 54.8519 6.98686 55.1212 7.13063C55.3906 7.2744 55.6293 7.47999 55.8372 7.7474C56.0452 8.01481 56.2149 8.32987 56.3463 8.6926L57.8496 12.8405L57.3439 13.0237C57.233 13.0639 57.1415 13.0778 57.0693 13.0653C56.9957 13.0486 56.9225 12.993 56.8496 12.8987L56.4989 12.3306C56.3854 12.5504 56.2701 12.7515 56.1528 12.934C56.0339 13.1123 55.9003 13.2766 55.752 13.4269C55.6022 13.5729 55.4326 13.7044 55.2432 13.8213C55.0597 13.9409 54.8441 14.0456 54.5966 14.1353C54.3449 14.2265 54.0956 14.2782 53.849 14.2904C53.6008 14.2983 53.368 14.2619 53.1505 14.1814C52.9373 14.0994 52.743 13.9695 52.5675 13.7917C52.3947 13.6081 52.255 13.369 52.1483 13.0746C52.0555 12.8185 52.037 12.5477 52.0927 12.2619C52.1469 11.9719 52.2987 11.6779 52.548 11.38C52.7973 11.082 53.1549 10.7834 53.621 10.4842C54.0855 10.1806 54.6838 9.88657 55.4158 9.60194L55.2326 9.09626C55.0501 8.59271 54.8036 8.25236 54.4932 8.07519C54.1812 7.89376 53.8161 7.87883 53.3979 8.0304C53.1163 8.13247 52.8926 8.25458 52.7268 8.39672C52.5638 8.53305 52.4281 8.67154 52.3198 8.81219C52.2142 8.94703 52.1233 9.06928 52.0472 9.17894C51.9738 9.28279 51.888 9.3525 51.7898 9.38807C51.713 9.41591 51.6399 9.42068 51.5705 9.40238C51.4996 9.37981 51.4341 9.34562 51.374 9.29979L51.037 9.00917Z" fill="#A6A8A7"/>
<path d="M68.3296 3.0923L69.7509 9.8412L60.6702 11.7536L59.2489 5.00471L60.4414 4.75355L61.6734 10.603L64.4249 10.0236L63.193 4.17408L64.3855 3.92293L65.6174 9.77242L68.369 9.19294L67.137 3.34345L68.3296 3.0923Z" fill="#A6A8A7"/>
<path d="M75.2358 3.03976C75.4869 2.78679 75.7938 2.57977 76.1567 2.4187C76.5241 2.2575 76.9686 2.16884 77.4904 2.15272C77.9077 2.13983 78.2768 2.18065 78.5976 2.27519C78.9183 2.36519 79.1878 2.49083 79.4062 2.65211C79.6292 2.81324 79.7985 3.00101 79.9141 3.21541C80.0341 3.42514 80.0977 3.64569 80.1048 3.87707C80.109 4.01317 80.0907 4.15678 80.05 4.3079C80.0138 4.45887 79.9479 4.60395 79.8523 4.74314C79.7567 4.88233 79.6313 5.01335 79.4762 5.13621C79.321 5.25907 79.1266 5.36044 78.8929 5.44032C79.3371 5.55829 79.6884 5.7586 79.9469 6.04125C80.2099 6.32376 80.3479 6.67597 80.361 7.09789C80.3708 7.41547 80.3071 7.7058 80.1699 7.96888C80.0326 8.22742 79.8442 8.45121 79.6048 8.64025C79.3653 8.82475 79.0837 8.96969 78.76 9.07505C78.4408 9.18027 78.1043 9.23835 77.7504 9.24928C77.5281 9.25614 77.3006 9.24273 77.068 9.20905C76.8399 9.17522 76.6156 9.11857 76.3952 9.0391C76.1746 8.95509 75.9648 8.85032 75.7656 8.72477C75.571 8.59909 75.396 8.44556 75.2405 8.26417L75.5671 7.81133C75.6192 7.73252 75.6951 7.69158 75.7949 7.68849C75.8766 7.68597 75.9639 7.7196 76.0569 7.78939C76.1543 7.8545 76.2723 7.92805 76.4111 8.01005C76.5499 8.09204 76.7179 8.16632 76.9153 8.23288C77.117 8.29477 77.3607 8.3213 77.6466 8.31247C77.8961 8.30476 78.1175 8.26841 78.3107 8.20341C78.5084 8.13372 78.6736 8.04234 78.8063 7.92925C78.9391 7.81617 79.0394 7.68365 79.1074 7.53169C79.1754 7.37973 79.2066 7.21529 79.2011 7.03835C79.1906 6.69809 79.0392 6.42803 78.747 6.22817C78.4593 6.02816 78.0273 5.93706 77.4511 5.95485L76.6685 5.97903L76.6437 5.17601L77.4263 5.15184C77.6759 5.14413 77.8997 5.11225 78.0977 5.05618C78.2957 4.99557 78.4636 4.91772 78.6014 4.82265C78.7392 4.72757 78.8425 4.61539 78.9111 4.48612C78.9797 4.35231 79.0116 4.21055 79.007 4.06083C79.0028 3.92473 78.967 3.79641 78.8997 3.67588C78.837 3.55521 78.7407 3.45147 78.6109 3.36465C78.4856 3.2777 78.3291 3.20988 78.1414 3.16118C77.9537 3.11248 77.7351 3.09199 77.4856 3.0997C77.2133 3.1081 76.9828 3.14247 76.7939 3.2028C76.6096 3.26298 76.4527 3.32687 76.323 3.39445C76.198 3.46188 76.0955 3.52409 76.0155 3.58105C75.9355 3.63801 75.866 3.66741 75.807 3.66923C75.7481 3.67105 75.6978 3.66125 75.6563 3.63983C75.6193 3.61826 75.577 3.57189 75.5294 3.5007L75.2358 3.03976Z" fill="#A6A8A7"/>
<path d="M86.4779 6.19505C85.9197 6.17443 85.4411 6.18664 85.0421 6.23169C84.648 6.27252 84.3225 6.34088 84.0655 6.43676C83.8132 6.53295 83.625 6.65409 83.5011 6.80017C83.3817 6.94657 83.3154 7.11485 83.3022 7.30503C83.2896 7.48615 83.3082 7.64441 83.3579 7.77982C83.4076 7.91523 83.4793 8.02941 83.5729 8.12237C83.6714 8.21112 83.7872 8.28059 83.9202 8.33079C84.058 8.37678 84.2062 8.40528 84.3647 8.41631C84.5775 8.43111 84.7736 8.42427 84.953 8.3958C85.1328 8.36281 85.3024 8.31091 85.4621 8.24011C85.6262 8.16963 85.7824 8.08267 85.9307 7.97923C86.0834 7.87611 86.2328 7.75683 86.3787 7.62138L86.4779 6.19505ZM82.7681 3.11152C83.1739 2.77121 83.6028 2.52576 84.0546 2.37519C84.5064 2.22462 84.9994 2.16791 85.5338 2.20508C85.9186 2.23185 86.2561 2.31902 86.5461 2.46659C86.8362 2.61416 87.0752 2.80823 87.2632 3.0488C87.4512 3.28937 87.5861 3.57403 87.6679 3.90276C87.7497 4.23149 87.7772 4.5883 87.7504 4.97318L87.4443 9.37441L86.9077 9.33709C86.79 9.32891 86.7007 9.30449 86.6398 9.26386C86.5793 9.2187 86.5348 9.13826 86.5065 9.02254L86.416 8.36106C86.2232 8.516 86.0362 8.65314 85.855 8.77248C85.6741 8.8873 85.4854 8.98338 85.289 9.06071C85.0928 9.13351 84.8845 9.185 84.664 9.21516C84.4477 9.25017 84.2083 9.25854 83.9456 9.24027C83.6785 9.22169 83.4297 9.16799 83.1993 9.07916C82.9692 8.98581 82.771 8.85828 82.6048 8.69657C82.4431 8.53518 82.3181 8.33766 82.2297 8.10402C82.1462 7.86616 82.1152 7.59102 82.137 7.27858C82.1559 7.0069 82.2487 6.75174 82.4154 6.51309C82.5825 6.26991 82.8403 6.06263 83.189 5.89123C83.5376 5.71983 83.9855 5.59174 84.5329 5.50696C85.0805 5.41765 85.7467 5.39118 86.5313 5.42755L86.5686 4.89098C86.6058 4.35668 86.5183 3.94565 86.3063 3.65791C86.0946 3.36564 85.7668 3.20407 85.3231 3.17321C85.0242 3.15242 84.7703 3.17343 84.5611 3.23624C84.3569 3.29483 84.1767 3.36647 84.0207 3.45117C83.8695 3.53165 83.7369 3.6066 83.6228 3.67602C83.5137 3.74122 83.407 3.7702 83.3029 3.76296C83.2214 3.75729 83.1526 3.73203 83.0966 3.68719C83.0408 3.63781 82.9948 3.58001 82.9585 3.51378L82.7681 3.11152Z" fill="#A6A8A7"/>
<path d="M95.9282 3.971C96.008 3.88359 96.1048 3.81758 96.2186 3.77297C96.3324 3.72836 96.4474 3.71623 96.5637 3.73656L97.4959 3.89963L95.2792 6.17984C95.143 6.3265 95.0073 6.44331 94.8723 6.53029C94.7381 6.61279 94.5809 6.66824 94.4009 6.69664C94.6053 6.79231 94.7703 6.91564 94.896 7.06664C95.0224 7.21317 95.1269 7.39273 95.2096 7.60532L96.502 10.7274L95.6703 10.582C95.4557 10.5444 95.2966 10.4797 95.1928 10.3879C95.0891 10.296 95.0065 10.1755 94.945 10.0266L93.9933 7.68286C93.8442 7.29736 93.5595 7.06785 93.1392 6.99433L92.4082 6.86646L91.8732 9.92467L90.6728 9.71468L91.8623 2.91418L93.0628 3.12418L92.549 6.06167L93.1928 6.17429C93.5505 6.23686 93.8565 6.13372 94.1109 5.86489L95.9282 3.971Z" fill="#A6A8A7"/>
<path d="M101.465 8.85686C100.923 8.72424 100.452 8.63982 100.052 8.60359C99.6575 8.56422 99.3249 8.56561 99.0539 8.60779C98.7873 8.65118 98.5786 8.73194 98.4278 8.85008C98.2814 8.96943 98.1826 9.12091 98.1313 9.30453C98.0825 9.4794 98.0688 9.63816 98.0903 9.78081C98.1117 9.92346 98.1589 10.0497 98.2319 10.1597C98.3105 10.2664 98.4099 10.3578 98.53 10.4337C98.6558 10.5065 98.7952 10.5643 98.9482 10.607C99.1537 10.6644 99.3472 10.6972 99.5286 10.7054C99.7114 10.7093 99.888 10.6926 100.059 10.6554C100.234 10.6195 100.404 10.5657 100.57 10.4943C100.741 10.424 100.911 10.3373 101.081 10.234L101.465 8.85686ZM98.4527 5.08937C98.9188 4.83777 99.3882 4.68372 99.8611 4.62723C100.334 4.57073 100.828 4.61449 101.344 4.7585C101.716 4.86223 102.029 5.01558 102.283 5.21853C102.538 5.42149 102.733 5.65972 102.868 5.93323C103.004 6.20674 103.079 6.51273 103.093 6.8512C103.107 7.18966 103.062 7.5447 102.958 7.9163L101.772 12.1657L101.254 12.0211C101.14 11.9894 101.058 11.9475 101.006 11.8954C100.956 11.839 100.928 11.7512 100.924 11.6322L100.969 10.966C100.749 11.079 100.538 11.1756 100.336 11.256C100.136 11.3321 99.9318 11.3882 99.7238 11.4244C99.517 11.4562 99.3026 11.4646 99.0805 11.4498C98.8616 11.4405 98.6254 11.4005 98.3718 11.3297C98.1139 11.2577 97.881 11.155 97.6732 11.0216C97.4666 10.8838 97.2982 10.719 97.168 10.5271C97.0421 10.3365 96.9594 10.1178 96.9199 9.87116C96.886 9.62135 96.9111 9.34561 96.9953 9.04396C97.0685 8.78165 97.2108 8.55041 97.4222 8.35023C97.6348 8.14568 97.9291 7.99457 98.3051 7.89689C98.6811 7.79921 99.1457 7.76397 99.6989 7.79115C100.253 7.81397 100.911 7.9222 101.672 8.11584L101.817 7.59778C101.961 7.08191 101.958 6.6617 101.808 6.33715C101.66 6.00823 101.371 5.78397 100.943 5.66437C100.654 5.58382 100.401 5.55325 100.184 5.57265C99.972 5.5889 99.7811 5.6228 99.6112 5.67433C99.4469 5.72271 99.3019 5.76942 99.1763 5.81445C99.0562 5.85633 98.9459 5.86324 98.8453 5.83517C98.7666 5.8132 98.7044 5.77461 98.6585 5.7194C98.6139 5.65982 98.5804 5.59393 98.5582 5.52174L98.4527 5.08937Z" fill="#A6A8A7"/>
<path d="M106.308 7.08096C106.638 6.94731 107.002 6.87792 107.399 6.87279C107.8 6.86932 108.244 6.96293 108.73 7.15361C109.118 7.30616 109.441 7.48906 109.699 7.70231C109.958 7.91133 110.157 8.13298 110.294 8.36724C110.435 8.60317 110.517 8.84243 110.539 9.08504C110.566 9.32508 110.538 9.55284 110.453 9.76833C110.404 9.89509 110.33 10.0199 110.233 10.1427C110.141 10.2673 110.023 10.3747 109.88 10.4649C109.738 10.5552 109.571 10.6263 109.38 10.6781C109.189 10.7299 108.97 10.7465 108.724 10.7279C109.086 11.0113 109.33 11.3338 109.456 11.6954C109.586 12.0586 109.575 12.4367 109.42 12.8297C109.304 13.1255 109.131 13.3672 108.902 13.555C108.674 13.7386 108.412 13.8701 108.118 13.9496C107.825 14.0248 107.509 14.0471 107.17 14.0164C106.835 13.9874 106.503 13.9083 106.173 13.7789C105.966 13.6977 105.763 13.5958 105.562 13.4732C105.366 13.3523 105.182 13.2119 105.011 13.052C104.841 12.8879 104.689 12.7089 104.556 12.5151C104.426 12.3229 104.326 12.1129 104.254 11.8849L104.733 11.5973C104.812 11.5454 104.898 11.5376 104.991 11.5741C105.067 11.604 105.134 11.6693 105.192 11.77C105.256 11.8682 105.335 11.9824 105.43 12.1124C105.526 12.2424 105.651 12.3769 105.806 12.5158C105.967 12.6521 106.181 12.7725 106.447 12.877C106.679 12.9682 106.897 13.0219 107.1 13.0383C107.31 13.0521 107.497 13.0332 107.664 12.9815C107.83 12.9299 107.975 12.8476 108.097 12.7347C108.22 12.6218 108.313 12.4829 108.378 12.3181C108.502 12.0012 108.469 11.6934 108.279 11.3946C108.094 11.0974 107.733 10.8435 107.196 10.6329L106.467 10.3469L106.761 9.59905L107.489 9.88508C107.722 9.97627 107.94 10.0351 108.144 10.0616C108.35 10.0838 108.535 10.0784 108.699 10.0453C108.863 10.0122 109.002 9.94977 109.116 9.858C109.232 9.76199 109.317 9.64428 109.372 9.50484C109.422 9.37808 109.439 9.24606 109.425 9.10876C109.415 8.97313 109.367 8.83984 109.282 8.70891C109.201 8.57963 109.084 8.45565 108.931 8.33697C108.777 8.21828 108.585 8.11334 108.352 8.02214C108.099 7.92266 107.873 7.86344 107.676 7.84451C107.483 7.82723 107.313 7.82412 107.168 7.83519C107.026 7.84792 106.907 7.86471 106.811 7.88556C106.715 7.90642 106.64 7.90607 106.585 7.88452C106.53 7.86296 106.488 7.83416 106.458 7.79811C106.432 7.76372 106.412 7.70443 106.396 7.62024L106.308 7.08096Z" fill="#A6A8A7"/>
<path d="M122.415 14.0191L118.929 19.9702L117.877 19.3542L119.508 16.5696L116.653 14.8971L115.022 17.6817L113.97 17.0657L117.456 11.1146L118.508 11.7306L117.118 14.104L119.973 15.7765L121.363 13.4031L122.415 14.0191Z" fill="#A6A8A7"/>
<path d="M125.879 21.026C125.421 20.7072 125.011 20.4591 124.651 20.2816C124.297 20.1031 123.987 19.9849 123.718 19.9269C123.454 19.8715 123.23 19.8719 123.047 19.9279C122.868 19.9867 122.721 20.0925 122.607 20.2455C122.499 20.3911 122.429 20.5343 122.398 20.6752C122.366 20.816 122.365 20.9508 122.394 21.0796C122.429 21.2075 122.489 21.3284 122.573 21.4425C122.665 21.5557 122.774 21.6597 122.901 21.7545C123.072 21.8819 123.241 21.982 123.408 22.055C123.577 22.1242 123.748 22.1722 123.92 22.1988C124.096 22.2281 124.275 22.2392 124.455 22.2322C124.64 22.2279 124.83 22.2082 125.026 22.173L125.879 21.026ZM124.422 16.4274C124.947 16.3602 125.441 16.3851 125.902 16.5024C126.364 16.6196 126.81 16.8381 127.239 17.1579C127.549 17.3883 127.786 17.6439 127.95 17.9247C128.115 18.2055 128.211 18.4979 128.239 18.8019C128.268 19.1059 128.227 19.4183 128.119 19.7392C128.01 20.06 127.841 20.3752 127.61 20.6847L124.976 24.2239L124.545 23.9027C124.45 23.8322 124.388 23.7635 124.359 23.6964C124.332 23.6257 124.338 23.534 124.377 23.4213L124.658 22.8157C124.412 22.842 124.18 22.8564 123.963 22.8591C123.749 22.858 123.538 22.837 123.331 22.796C123.127 22.7514 122.924 22.6822 122.722 22.5885C122.521 22.5012 122.315 22.379 122.104 22.2218C121.889 22.0619 121.709 21.8823 121.563 21.6832C121.419 21.4803 121.321 21.266 121.269 21.0401C121.22 20.817 121.221 20.5832 121.273 20.3389C121.331 20.0935 121.454 19.8453 121.641 19.594C121.803 19.3756 122.019 19.2109 122.288 19.1001C122.56 18.9856 122.889 18.9504 123.275 18.9943C123.661 19.0383 124.107 19.1724 124.614 19.3966C125.123 19.6172 125.698 19.9546 126.339 20.4088L126.66 19.9774C126.98 19.5477 127.128 19.1546 127.105 18.7979C127.085 18.4376 126.896 18.1246 126.539 17.859C126.299 17.6802 126.074 17.5607 125.864 17.5006C125.66 17.4397 125.47 17.4027 125.293 17.3897C125.122 17.3758 124.97 17.3673 124.837 17.3641C124.71 17.3601 124.604 17.3269 124.52 17.2645C124.455 17.2157 124.411 17.1574 124.388 17.0894C124.367 17.0177 124.36 16.9442 124.365 16.8688L124.422 16.4274Z" fill="#A6A8A7"/>
<path d="M137.493 26.7339C137.609 26.7086 137.726 26.7107 137.845 26.74C137.963 26.7693 138.064 26.8258 138.147 26.9096L138.814 27.5812L135.688 28.162C135.492 28.203 135.313 28.22 135.153 28.213C134.996 28.2028 134.835 28.1573 134.672 28.0765C134.784 28.2727 134.847 28.4687 134.863 28.6645C134.881 28.8571 134.863 29.0641 134.807 29.2854L134.059 32.5804L133.464 31.9813C133.31 31.8267 133.218 31.6819 133.186 31.547C133.155 31.4121 133.157 31.2661 133.193 31.1089L133.77 28.6461C133.871 28.2453 133.771 27.8935 133.47 27.5907L132.947 27.064L130.744 29.2513L129.886 28.3865L134.785 23.5225L135.644 24.3874L133.527 26.4884L133.988 26.9522C134.244 27.2099 134.553 27.3025 134.916 27.23L137.493 26.7339Z" fill="#A6A8A7"/>
<path d="M143.78 33.518L134.434 36.2113C134.338 36.2373 134.249 36.243 134.166 36.2285C134.087 36.2174 134.007 36.1628 133.926 36.0645L133.356 35.3698L136.271 34.6071L139.486 28.2866L140.151 29.0971C140.218 29.1778 140.248 29.2582 140.244 29.3384C140.245 29.4192 140.229 29.4885 140.194 29.5464L138.007 33.7283C137.906 33.9054 137.79 34.0795 137.66 34.2505C137.866 34.1643 138.065 34.0888 138.258 34.024L142.747 32.6568C142.82 32.6318 142.895 32.6294 142.97 32.6498C143.052 32.6707 143.119 32.7128 143.171 32.7759L143.78 33.518Z" fill="#A6A8A7"/>
<path d="M141.912 42.9929L141.259 42.0294C141.203 41.9467 141.179 41.867 141.187 41.7901C141.202 41.7145 141.225 41.6438 141.257 41.578L142.52 38.624C142.457 38.6446 142.393 38.6634 142.327 38.6803C142.268 38.6984 142.208 38.7064 142.146 38.7044L139.301 38.6931C139.222 38.6912 139.146 38.683 139.07 38.6685C139.001 38.6552 138.94 38.611 138.889 38.5359L138.282 37.64L142.569 37.653L144.043 33.8474L144.697 34.811C144.753 34.8936 144.78 34.9626 144.78 35.018C144.779 35.0734 144.764 35.1327 144.736 35.1959L143.546 38.0512C143.675 38.0073 143.812 37.9829 143.957 37.978L146.593 37.9834C146.669 37.9816 146.734 37.9892 146.79 38.0064C146.852 38.0248 146.902 38.0622 146.94 38.1185L147.567 39.0426L143.536 38.9709L141.912 42.9929Z" fill="#A6A8A7"/>
<path d="M151.313 45.756L145.225 48.9977L144.652 47.922L147.501 46.4052L145.946 43.4846L143.097 45.0014L142.524 43.9257L148.612 40.684L149.185 41.7597L146.757 43.0525L148.312 45.9732L150.74 44.6803L151.313 45.756Z" fill="#A6A8A7"/>
<path d="M152.15 54.496C152.412 54.3932 152.636 54.2615 152.822 54.1009C153.013 53.9429 153.159 53.7613 153.259 53.5563C153.365 53.3539 153.42 53.1347 153.425 52.8987C153.434 52.6611 153.388 52.4134 153.287 52.1556C153.075 51.6148 152.748 51.2481 152.307 51.0556C151.872 50.8656 151.36 50.842 150.773 50.9848L152.15 54.496ZM149.498 56.5901C149.274 56.517 149.061 56.4081 148.858 56.2635C148.659 56.1172 148.476 55.9479 148.307 55.7554C148.141 55.5672 147.992 55.3623 147.861 55.1406C147.726 54.9206 147.613 54.6943 147.522 54.462C147.348 54.0183 147.261 53.5794 147.261 53.1454C147.267 52.7138 147.36 52.3044 147.54 51.917C147.725 51.5322 148.002 51.18 148.369 50.8604C148.736 50.5408 149.196 50.2724 149.749 50.0552C150.197 49.8794 150.642 49.7829 151.084 49.7656C151.527 49.7524 151.941 49.8192 152.325 49.9659C152.714 50.1108 153.061 50.3377 153.368 50.6466C153.679 50.9537 153.925 51.3397 154.107 51.8045C154.258 52.189 154.332 52.5696 154.329 52.9463C154.331 53.3256 154.257 53.6817 154.104 54.0145C153.958 54.3498 153.732 54.6556 153.426 54.9317C153.124 55.2062 152.745 55.433 152.289 55.6121C152.111 55.6817 151.985 55.7091 151.911 55.6943C151.837 55.6795 151.779 55.6193 151.738 55.5136L150.054 51.2229C149.653 51.3948 149.322 51.5881 149.06 51.803C148.8 52.0222 148.603 52.2603 148.47 52.5173C148.341 52.7727 148.274 53.0428 148.269 53.3277C148.268 53.6109 148.327 53.9046 148.447 54.2088C148.558 54.4919 148.685 54.7224 148.828 54.9004C148.977 55.0809 149.118 55.2302 149.252 55.3482C149.386 55.4662 149.504 55.5614 149.605 55.6337C149.713 55.7086 149.781 55.7819 149.809 55.8538C149.845 55.9467 149.838 56.0326 149.786 56.1115L149.498 56.5901Z" fill="#A6A8A7"/>
<circle cx="30.958" cy="22.3311" r="2" fill="#AEAEAE"/>
<circle cx="156.577" cy="70.4795" r="2" fill="#AEAEAE"/>
<circle cx="57.4644" cy="153.352" r="2" fill="#AEAEAE"/>
</g>
<defs>
<clipPath id="clip0_359_10768">
<rect width="164" height="161" fill="white"/>
</clipPath>
</defs>
</svg>
