<svg width="55" height="32" viewBox="0 0 55 32" fill="none" xmlns="http://www.w3.org/2000/svg">
<path d="M14.5098 16.4483C12.2221 16.1428 10.9995 13.5381 12.1999 11.6155C13.7581 9.12015 16.549 6.14561 20.9962 6.14561H32.1064L34.4805 6.14551H37.7216C38.3187 6.14551 38.8894 6.25755 39.4145 6.45932C40.2454 6.7786 40.6137 7.09897 41.1722 7.64889C41.923 8.46103 42.3811 9.53836 42.3811 10.7187C42.3861 11.7981 42.0004 12.8214 41.2022 13.5796M14.5098 16.4483V16.7132C14.5098 18.229 15.0841 19.6149 16.0287 20.6752M14.5098 16.4483C14.5834 16.1199 14.9306 15.4528 15.7302 15.4115C16.7298 15.3599 18.2028 15.9278 19.5706 14.224C20.0756 13.7697 20.6227 13.6051 20.8332 13.5796H38.6672C38.8353 13.5679 39.0884 13.5364 39.334 13.4793C39.7868 13.374 40.3428 13.2557 40.7778 13.4196L41.2022 13.5796M16.0287 20.6752H2.05229C1.55767 20.6752 1.12987 21.0133 1.02433 21.4874C0.918803 21.9617 1.16406 22.444 1.61365 22.6464C2.09669 22.8637 13.4993 27.9699 18.5434 27.9699H32.1066H36.4567C41.5008 27.9699 52.9034 22.8638 53.3864 22.6464C53.8358 22.444 54.0812 21.9617 53.9757 21.4874C53.8701 21.0133 53.4424 20.6752 52.9477 20.6752H40.1123M16.0287 20.6752H40.1123M40.1123 20.6752C41.0569 19.6149 41.6312 18.229 41.6312 16.7132V15.7942C41.6312 15.0319 41.484 14.2803 41.2022 13.5796M19.8336 6.21559C24.7261 7.92506 26.0413 12.262 26.3044 13.5796M27.4618 6.14561C30.8813 7.46038 32.9856 11.6155 32.9856 13.5796" stroke="#232B2B" stroke-width="1.20039"/>
<path d="M31.8965 31.1983L53.7921 4.073" stroke="#232B2B" stroke-width="1.20039" stroke-linecap="round"/>
<path d="M30.7793 25.3704C31.3011 24.6499 39.0717 8.82326 42.8918 1" stroke="#232B2B" stroke-width="1.20039" stroke-linecap="round"/>
</svg>
