<svg width="43" height="38" viewBox="0 0 43 38" fill="none" xmlns="http://www.w3.org/2000/svg">
<path d="M36.9578 25.2778C36.9984 25.3302 37.0391 25.3896 37.0778 25.4516C37.7685 26.5614 37.4498 28.0176 36.3519 28.7677L28.2699 35.1713C27.4365 35.833 26.3818 36.1986 25.2992 36.1999H8.75844C8.39047 36.1999 8.0918 35.9142 8.0918 35.5606V27.8893C8.0918 27.6995 8.17977 27.5198 8.3318 27.3977L11.5918 24.7958C12.1818 24.3241 12.9305 24.06 13.6992 24.0536H22.3718C23.6311 24.0242 24.7158 24.9857 24.7571 26.2188C24.7578 26.2252 24.7585 26.284 24.7585 26.2911C24.7585 27.5249 23.7117 28.5286 22.4251 28.5286H18.0917C17.7244 28.5286 17.4251 28.815 17.4251 29.1678C17.4251 29.5207 17.7244 29.8071 18.0917 29.8071H25.8784L33.3318 24.7037C33.8944 24.3162 34.5858 24.1622 35.2678 24.2702C35.9531 24.3783 36.5538 24.7363 36.9578 25.2778Z" stroke="#232B2B" stroke-width="1.20039"/>
<path d="M1.42578 26.9109H7.4034C7.70416 26.9109 7.94828 27.1421 7.94828 27.4282V36.2221C7.94828 36.5082 7.70416 36.7394 7.4034 36.7394H1.42578" stroke="#232B2B" stroke-width="1.20039" stroke-linecap="round"/>
<path d="M4.35728 32.2722C3.76834 32.2722 3.28906 32.7318 3.28906 33.2965C3.28906 33.8613 3.76834 34.3209 4.35728 34.3209C4.94622 34.3209 5.4255 33.8613 5.4255 33.2965C5.4255 32.7318 4.94622 32.2722 4.35728 32.2722Z" stroke="#232B2B" stroke-width="1.20039"/>
<path d="M10.9961 25.3317H6.09243C3.51914 25.3317 1.42578 23.3237 1.42578 20.8568C1.42578 20.5033 1.72445 20.2175 2.09242 20.2175H40.7592C41.1279 20.2175 41.4259 20.5033 41.4258 20.8568C41.4258 23.1485 39.6187 25.0441 37.2995 25.3019M24.5118 25.3317H32.1747" stroke="#232B2B" stroke-width="1.20039"/>
<path d="M4.0918 20.2174C4.0918 11.0527 11.8678 3.59619 21.4252 3.59619C30.9832 3.59619 38.7586 11.0527 38.7585 20.2174" stroke="#232B2B" stroke-width="1.20039"/>
<path d="M19.4258 1H23.4258" stroke="#232B2B" stroke-width="1.20039" stroke-linecap="round"/>
<path d="M21.4258 1.03955V3.63664" stroke="#232B2B" stroke-width="1.20039"/>
</svg>
