<svg width="46" height="42" viewBox="0 0 46 42" fill="none" xmlns="http://www.w3.org/2000/svg">
<path d="M27.5609 31.1749C27.2974 31.0033 26.986 30.9107 26.6662 30.9107C26.2371 30.9107 25.8285 31.0771 25.5296 31.3685C25.2312 31.6594 25.0664 32.0506 25.0664 32.4552C25.0664 32.7573 25.1582 33.0538 25.3321 33.3075C25.506 33.5613 25.7549 33.7614 26.049 33.8802C26.3433 33.999 26.6679 34.0303 26.9812 33.9695C27.2944 33.9088 27.5801 33.7592 27.8029 33.542C28.0255 33.325 28.1753 33.0503 28.2359 32.7537C28.2964 32.4571 28.2655 32.1496 28.1463 31.8692C28.0272 31.5887 27.8242 31.3465 27.5609 31.1749Z" stroke="#232B2B" stroke-width="1.20039"/>
<path d="M9.96127 31.1749C9.69774 31.0033 9.38637 30.9107 9.06661 30.9107C8.63745 30.9107 8.22886 31.0771 7.92994 31.3685C7.63155 31.6594 7.46681 32.0506 7.46681 32.4552C7.46681 32.7573 7.5586 33.0538 7.73245 33.3075C7.90643 33.5613 8.15534 33.7614 8.44944 33.8802C8.74366 33.999 9.06824 34.0303 9.38155 33.9695C9.69478 33.9088 9.98047 33.7592 10.2033 33.542C10.4259 33.325 10.5757 33.0503 10.6363 32.7537C10.6968 32.4571 10.6658 32.1496 10.5467 31.8692C10.4275 31.5887 10.2246 31.3465 9.96127 31.1749Z" stroke="#232B2B" stroke-width="1.20039"/>
<path d="M6.81914 22.9131C6.63585 22.5598 6.35617 22.2627 6.01086 22.0543C5.66554 21.8459 5.26797 21.7344 4.86187 21.7321H3.20015C2.61667 21.7321 2.0571 21.958 1.64452 22.3603C1.23194 22.7625 1.00015 23.308 1.00015 23.8768V24.5917C1.00015 25.1605 1.23194 25.706 1.64452 26.1082C2.0571 26.5104 2.61667 26.7364 3.20015 26.7364H4.36321L4.79221 27.1546M6.81914 22.9131C7.21824 21.1647 8.21486 19.6003 9.6456 18.4765C11.0763 17.3527 12.8563 16.7361 14.6937 16.7278H21.0399C22.8773 16.7361 24.6572 17.3527 26.088 18.4765C27.5187 19.6003 28.5153 21.1647 28.9144 22.9131M6.81914 22.9131C6.23919 24.1875 7.37097 26.1082 4.79221 27.1546M28.9144 22.9131C29.0977 22.5598 29.3774 22.2627 29.7227 22.0543C30.068 21.8459 30.4656 21.7344 30.8717 21.7321H32.5334C33.1169 21.7321 33.6765 21.958 34.089 22.3603C34.5016 22.7625 34.7334 23.308 34.7334 23.8768V24.5917C34.7334 25.1605 34.5016 25.706 34.089 26.1082C33.6765 26.5104 33.1169 26.7364 32.5334 26.7364H31.3703L30.9413 27.1546M28.9144 22.9131C29.706 24.5695 28.5459 26.3343 30.9413 27.1546M30.9413 27.1546C31.4576 27.4146 31.9031 27.7904 32.2411 28.2512C32.5791 28.712 32.7999 29.2444 32.8854 29.8047L33.5139 34.0941C33.5832 34.5645 33.5554 35.0435 33.4324 35.5033C33.3093 35.963 33.0933 36.3942 32.7971 36.7715C32.5009 37.1488 32.1304 37.4647 31.7074 37.7006C31.2843 37.9366 30.8172 38.0878 30.3334 38.1455V38.8897C30.3334 39.4585 30.1016 40.004 29.689 40.4062C29.2765 40.8084 28.7169 41.0344 28.1334 41.0344H25.2001C24.6166 41.0344 24.057 40.8084 23.6445 40.4062C23.2319 40.004 23.0001 39.4585 23.0001 38.8897V38.1748M23.0001 38.1748H12.7335M23.0001 38.1748H30.3334M12.7335 38.1748V38.8897C12.7335 39.4585 12.5017 40.004 12.0891 40.4062C11.6765 40.8084 11.1169 41.0344 10.5335 41.0344H7.60014C7.01666 41.0344 6.45708 40.8084 6.04451 40.4062C5.63193 40.004 5.40014 39.4585 5.40014 38.8897V38.1455C4.91636 38.0878 4.44925 37.9366 4.0262 37.7006C3.60315 37.4647 3.23266 37.1488 2.93645 36.7715C2.64024 36.3942 2.42426 35.963 2.30118 35.5033C2.17811 35.0435 2.15039 34.5645 2.21968 34.0941L2.84815 29.8047C2.93361 29.2444 3.15444 28.712 3.49245 28.2512C3.83045 27.7904 4.27595 27.4146 4.79221 27.1546M12.7335 38.1748H5.40014M32.1768 28.1662H3.55677" stroke="#232B2B" stroke-width="1.20039"/>
<path d="M22.2666 31.6249H22.2665H13.4665H13.4664C13.4427 31.6248 13.42 31.6304 13.4002 31.6402C13.3805 31.65 13.365 31.6635 13.3541 31.6783C13.3432 31.6931 13.3368 31.709 13.3344 31.7245C13.332 31.74 13.3333 31.7559 13.3385 31.7713C13.3385 31.7713 13.3385 31.7714 13.3385 31.7714L14.0718 33.916L14.0719 33.9161C14.0789 33.9366 14.0933 33.9572 14.1159 33.9731C14.1388 33.9892 14.1682 33.999 14.1997 33.999H14.1998H21.5332H21.5333C21.5649 33.999 21.5942 33.9892 21.6171 33.9731L21.9621 34.4642L21.6171 33.9731C21.6398 33.9572 21.6541 33.9366 21.6611 33.9161L21.6612 33.916L22.3945 31.7714C22.3945 31.7714 22.3945 31.7714 22.3945 31.7714C22.3945 31.7714 22.3945 31.7713 22.3945 31.7713C22.3997 31.7559 22.4011 31.74 22.3986 31.7245C22.3962 31.709 22.3899 31.6931 22.3789 31.6783C22.368 31.6635 22.3525 31.65 22.3328 31.6402C22.313 31.6304 22.2903 31.6248 22.2666 31.6249Z" stroke="#232B2B" stroke-width="1.20039"/>
<path d="M36.9334 15.298V34.7319C36.5059 34.8792 36.1356 35.1517 35.873 35.512C35.6105 35.8724 35.4686 36.303 35.4667 36.745V40.3195C35.4667 40.5091 35.544 40.691 35.6815 40.825C35.819 40.9591 36.0055 41.0344 36.2 41.0344H41.3333C41.5278 41.0344 41.7144 40.9591 41.8519 40.825C41.9894 40.691 42.0667 40.5091 42.0667 40.3195V36.745C42.0648 36.303 41.9229 35.8724 41.6603 35.512C41.3978 35.1517 41.0275 34.8792 40.6 34.7319V15.298M36.9334 15.298H32.5334C32.3389 15.298 32.1523 15.2227 32.0148 15.0886C31.8773 14.9545 31.8 14.7727 31.8 14.5831V1.7149C31.8 1.5253 31.8773 1.34346 32.0148 1.20939C32.1523 1.07532 32.3389 1 32.5334 1H44.2667C44.4612 1 44.6477 1.07532 44.7852 1.20939C44.9227 1.34346 45 1.5253 45 1.7149V14.5831C45 14.7727 44.9227 14.9545 44.7852 15.0886C44.6477 15.2227 44.4612 15.298 44.2667 15.298H40.6M36.9334 15.298H40.6M36.9334 34.6897H40.6" stroke="#232B2B" stroke-width="1.20039"/>
<path d="M35.7334 11.723V9.5784M35.7334 9.5784V4.57403C35.7334 4.38443 35.8107 4.20259 35.9482 4.06852C36.0857 3.93445 36.2722 3.85913 36.4667 3.85913H38.6667C39.4447 3.85913 40.1908 4.16041 40.7409 4.69669C41.291 5.23297 41.6 5.96032 41.6 6.71873C41.6 7.47715 41.291 8.2045 40.7409 8.74078C40.1908 9.27705 39.4447 9.57833 38.6667 9.57833H37.2001L35.7334 9.5784Z" stroke="#232B2B" stroke-width="1.20039" stroke-linecap="round"/>
</svg>
