<svg width="53" height="40" viewBox="0 0 53 40" fill="none" xmlns="http://www.w3.org/2000/svg">
<path d="M42.401 11.7768C42.401 11.6388 42.5128 11.527 42.6508 11.527C42.7888 11.527 42.9006 11.6388 42.9006 11.7768V13.1315C42.9006 13.2694 42.7888 13.3813 42.6508 13.3813C42.5128 13.3813 42.401 13.2694 42.401 13.1315V11.7768Z" stroke="#232B2B" stroke-width="1.20039"/>
<path d="M39.0006 11.7768C39.0006 11.6388 39.1124 11.527 39.2504 11.527C39.3884 11.527 39.5002 11.6388 39.5002 11.7768V13.1315C39.5002 13.2694 39.3884 13.3813 39.2504 13.3813C39.1124 13.3813 39.0006 13.2694 39.0006 13.1315V11.7768Z" stroke="#232B2B" stroke-width="1.20039"/>
<path d="M35.6002 11.7768C35.6002 11.6388 35.712 11.527 35.85 11.527C35.988 11.527 36.0999 11.6388 36.0999 11.7768V13.1315C36.0999 13.2694 35.988 13.3813 35.85 13.3813C35.712 13.3813 35.6002 13.2694 35.6002 13.1315V11.7768Z" stroke="#232B2B" stroke-width="1.20039"/>
<path d="M32.1998 11.7768C32.1998 11.6388 32.3117 11.527 32.4496 11.527C32.5876 11.527 32.6995 11.6388 32.6995 11.7768V13.1315C32.6995 13.2694 32.5876 13.3813 32.4496 13.3813C32.3117 13.3813 32.1998 13.2694 32.1998 13.1315V11.7768Z" stroke="#232B2B" stroke-width="1.20039"/>
<path d="M41.8008 26.1992C41.8008 25.7775 42.1427 25.4355 42.5645 25.4355H42.7371C43.1589 25.4355 43.5008 25.7775 43.5008 26.1992C43.5008 26.621 43.1589 26.9629 42.7371 26.9629H42.5645C42.1427 26.9629 41.8008 26.621 41.8008 26.1992Z" fill="#232B2B"/>
<path d="M38.4004 26.1992C38.4004 25.7775 38.7423 25.4355 39.1641 25.4355H39.3368C39.7585 25.4355 40.1004 25.7775 40.1004 26.1992C40.1004 26.621 39.7585 26.9629 39.3368 26.9629H39.1641C38.7423 26.9629 38.4004 26.621 38.4004 26.1992Z" fill="#232B2B"/>
<path d="M35 26.1992C35 25.7775 35.3419 25.4355 35.7637 25.4355H35.9364C36.3581 25.4355 36.7 25.7775 36.7 26.1992C36.7 26.621 36.3581 26.9629 35.9364 26.9629H35.7637C35.3419 26.9629 35 26.621 35 26.1992Z" fill="#232B2B"/>
<path d="M31.5996 26.1992C31.5996 25.7775 31.9415 25.4355 32.3633 25.4355H32.536C32.9577 25.4355 33.2997 25.7775 33.2997 26.1992C33.2997 26.621 32.9577 26.9629 32.536 26.9629H32.3633C31.9415 26.9629 31.5996 26.621 31.5996 26.1992Z" fill="#232B2B"/>
<path d="M23.1662 31.5461L38.2964 38.0694C39.2444 38.4773 40.3339 38.5295 41.3246 38.2141C42.3154 37.899 43.1256 37.2423 43.5759 36.3892L46.1404 31.5461M23.1662 31.5461H16.279M23.1662 31.5461H27.0951H44.257H46.1404M49.4505 25.296V27.7277C49.4443 29.4843 48.1045 31.0106 46.2044 31.4252L46.1404 31.5461M49.4505 25.296L51.6138 21.2136C52.553 19.4379 51.7208 17.3143 49.7506 16.4589L49.4505 16.3299M49.4505 25.296V16.3299M49.4505 16.3299V10.9267C49.4476 8.81875 47.5467 7.11091 45.2004 7.1083H28.063M28.063 7.1083L14.705 1.34864C13.7574 0.940696 12.6675 0.888492 11.6772 1.20396C10.6864 1.51905 9.87627 2.17571 9.42552 3.02888L7.23738 7.15939C5.13182 7.40885 3.55588 9.01862 3.54924 10.9267V14.1213M28.063 7.1083H16.279M3.54924 14.1213L1.38599 18.2044C0.447149 19.9801 1.27933 22.1037 3.24916 22.9591L3.54924 23.0881V27.7277C3.55214 29.8356 5.45349 31.5434 7.79936 31.5461H16.279M3.54924 14.1213V23.1478M17.6631 19.3272C19.0594 20.5307 21.3926 21.8624 23.4249 22.1471C23.8429 22.2057 24.1864 22.5449 24.1864 22.967V22.967C24.1864 23.3885 23.8444 23.7326 23.4246 23.6946C20.9355 23.4695 17.9911 22.1959 16.279 20.7162C14.5984 22.0808 11.7888 23.4363 9.41062 23.6883C8.99149 23.7327 8.64938 23.3884 8.64938 22.9669V22.9669C8.64938 22.5449 8.99263 22.2052 9.4108 22.1481C11.4803 21.8656 13.9757 20.5322 15.374 19.3272M16.279 19.3272C16.279 19.3272 21.2142 18.5475 22.7565 17.9982C24.2989 17.4489 25.2319 16.0316 25.0252 14.5527C24.8185 13.0738 23.524 11.9078 21.8787 11.718C20.233 11.5282 18.6529 12.3627 18.037 13.7469C17.4211 15.131 16.279 19.3272 16.279 19.3272ZM16.279 19.3272C16.279 19.3272 15.4172 15.124 14.7984 13.7469C14.1795 12.3698 12.6032 11.542 10.9637 11.7333C9.32425 11.9242 8.0351 13.0854 7.82758 14.559C7.61964 16.0323 8.54562 17.4459 10.0801 17.9982C11.6145 18.5504 16.279 19.3272 16.279 19.3272ZM7.26444 7.1083H16.279M3.54924 19.3272H49.4505M16.279 7.1083V31.5461" stroke="#232B2B" stroke-width="1.20039"/>
</svg>
