<svg width="120" height="120" viewBox="0 0 120 120" fill="none" xmlns="http://www.w3.org/2000/svg">
<path d="M41.4745 57.9149C51.1399 53.6816 57.5836 50.8905 60.8054 49.5421C70.0151 45.6916 71.9265 45.0229 73.1748 45.0002C73.4493 44.9958 74.0605 45.064 74.4594 45.3882C74.7909 45.6617 74.8841 46.0314 74.9307 46.2911C74.9722 46.5504 75.0292 47.1416 74.9825 47.603C74.4853 52.8738 72.3253 65.6644 71.2272 71.568C70.7662 74.0659 69.8494 74.9034 68.9636 74.9851C67.0367 75.1633 65.576 73.706 63.7113 72.4773C60.7951 70.5539 59.1479 69.357 56.3146 67.4805C53.0409 65.3118 55.1646 64.1196 57.0294 62.1717C57.5163 61.6618 66.0008 53.904 66.1614 53.2004C66.1821 53.1124 66.2028 52.7843 66.006 52.6113C65.8143 52.4379 65.5294 52.4973 65.3222 52.5442C65.027 52.6108 60.3703 55.7087 51.3368 61.8373C50.0159 62.7508 48.8194 63.1962 47.742 63.1727C46.561 63.1472 44.2819 62.4998 42.5881 61.9467C40.5162 61.268 38.8638 60.9092 39.0089 59.7566C39.0814 59.1566 39.905 58.5425 41.4745 57.9149Z" fill="white"/>
</svg>
